Fira Sans-Light Italic.ufo
<glyph name="exclam" format="1">
  <advance width="234"/>
  <unicode hex="0021"/>
  <outline>
    <contour>
      <point x="175" y="680" type="line"/>
      <point x="107" y="188" type="line"/>
      <point x="109" y="188" type="line"/>
      <point x="177" y="680" type="line"/>
    </contour>
    <component base="period" xOffset="60"/>
  </outline>
</glyph>
<glyph name="dollar" format="1">
  <advance width="527"/>
  <unicode hex="0024"/>
  <outline>
    <contour>
      <point x="217" y="-8" type="line"/>
      <point x="198" y="-144" type="line"/>
      <point x="200" y="-144" type="line"/>
      <point x="219" y="-8" type="line"/>
    </contour>
    <contour>
      <point x="335" y="805" type="line"/>
      <point x="316" y="669" type="line"/>
      <point x="318" y="669" type="line"/>
      <point x="337" y="805" type="line"/>
    </contour>
    <contour>
      <point x="173" y="669"/>
      <point x="122" y="583"/>
      <point x="122" y="504" type="curve" smooth="yes"/>
      <point x="122" y="435"/>
      <point x="165" y="395"/>
      <point x="278" y="357" type="curve" smooth="yes"/>
      <point x="382" y="321"/>
      <point x="436" y="270"/>
      <point x="436" y="188" type="curve" smooth="yes"/>
      <point x="436" y="94"/>
      <point x="381" y="-7"/>
      <point x="217" y="-7" type="curve" smooth="yes"/>
      <point x="141" y="-7"/>
      <point x="81" y="23"/>
      <point x="39" y="69" type="curve"/>
      <point x="38" y="67" type="line"/>
      <point x="80" y="21"/>
      <point x="141" y="-9"/>
      <point x="217" y="-9" type="curve" smooth="yes"/>
      <point x="382" y="-9"/>
      <point x="438" y="93"/>
      <point x="438" y="188" type="curve" smooth="yes"/>
      <point x="438" y="271"/>
      <point x="384" y="323"/>
      <point x="279" y="359" type="curve" smooth="yes"/>
      <point x="165" y="397"/>
      <point x="124" y="437"/>
      <point x="124" y="504" type="curve" smooth="yes"/>
      <point x="124" y="582"/>
      <point x="173" y="667"/>
      <point x="313" y="667" type="curve" smooth="yes"/>
      <point x="387" y="667"/>
      <point x="430" y="642"/>
      <point x="471" y="605" type="curve"/>
      <point x="473" y="607" type="line"/>
      <point x="431" y="643"/>
      <point x="389" y="669"/>
      <point x="313" y="669" type="curve" smooth="yes"/>
    </contour>
    <contour>
      <point x="323" y="660" type="move" name="top"/>
    </contour>
  </outline>
</glyph>
<glyph name="percent" format="1">
  <advance width="745"/>
  <unicode hex="0025"/>
  <outline>
    <contour>
      <point x="108" y="-9" type="line"/>
      <point x="110" y="-9" type="line"/>
      <point x="663" y="690" type="line"/>
      <point x="661" y="690" type="line"/>
    </contour>
    <contour>
      <point x="316" y="668"/>
      <point x="354" y="628"/>
      <point x="354" y="554" type="curve" smooth="yes"/>
      <point x="354" y="483"/>
      <point x="320" y="368"/>
      <point x="209" y="368" type="curve" smooth="yes"/>
      <point x="142" y="368"/>
      <point x="106" y="413"/>
      <point x="106" y="485" type="curve" smooth="yes"/>
      <point x="106" y="555"/>
      <point x="139" y="668"/>
      <point x="251" y="668" type="curve" smooth="yes"/>
    </contour>
    <contour>
      <point x="139" y="670"/>
      <point x="104" y="557"/>
      <point x="104" y="485" type="curve" smooth="yes"/>
      <point x="104" y="412"/>
      <point x="141" y="366"/>
      <point x="209" y="366" type="curve" smooth="yes"/>
      <point x="321" y="366"/>
      <point x="356" y="482"/>
      <point x="356" y="554" type="curve" smooth="yes"/>
      <point x="356" y="628"/>
      <point x="318" y="670"/>
      <point x="251" y="670" type="curve" smooth="yes"/>
    </contour>
    <contour>
      <point x="621" y="293"/>
      <point x="659" y="253"/>
      <point x="659" y="179" type="curve" smooth="yes"/>
      <point x="659" y="108"/>
      <point x="625" y="-7"/>
      <point x="514" y="-7" type="curve" smooth="yes"/>
      <point x="447" y="-7"/>
      <point x="411" y="38"/>
      <point x="411" y="110" type="curve" smooth="yes"/>
      <point x="411" y="180"/>
      <point x="444" y="293"/>
      <point x="556" y="293" type="curve" smooth="yes"/>
    </contour>
    <contour>
      <point x="444" y="295"/>
      <point x="409" y="182"/>
      <point x="409" y="110" type="curve" smooth="yes"/>
      <point x="409" y="37"/>
      <point x="446" y="-9"/>
      <point x="514" y="-9" type="curve" smooth="yes"/>
      <point x="626" y="-9"/>
      <point x="661" y="107"/>
      <point x="661" y="179" type="curve" smooth="yes"/>
      <point x="661" y="253"/>
      <point x="623" y="295"/>
      <point x="556" y="295" type="curve" smooth="yes"/>
    </contour>
  </outline>
</glyph>
<glyph name="parenright" format="1">
  <advance width="328"/>
  <unicode hex="0029"/>
  <outline>
    <contour>
      <point x="159" y="824" type="line"/>
      <point x="230" y="693"/>
      <point x="290" y="577"/>
      <point x="259" y="350" type="curve"/>
      <point x="227" y="123"/>
      <point x="133" y="7"/>
      <point x="26" y="-124" type="curve"/>
      <point x="28" y="-125" type="line"/>
      <point x="136" y="7"/>
      <point x="229" y="123"/>
      <point x="261" y="350" type="curve"/>
      <point x="292" y="577"/>
      <point x="232" y="693"/>
      <point x="161" y="825" type="curve"/>
    </contour>
  </outline>
</glyph>
<glyph name="asterisk" format="1">
  <advance width="428"/>
  <unicode hex="002A"/>
  <outline>
    <contour>
      <point x="257" y="564" type="line"/>
      <point x="332" y="435" type="line"/>
      <point x="334" y="436" type="line"/>
      <point x="259" y="565" type="line" smooth="yes"/>
      <point x="257" y="566" type="line"/>
    </contour>
    <contour>
      <point x="278" y="727" type="line"/>
      <point x="256" y="567" type="line"/>
      <point x="257" y="566" type="line"/>
      <point x="258" y="567" type="line"/>
      <point x="280" y="727" type="line"/>
    </contour>
    <contour>
      <point x="258" y="567" type="line"/>
      <point x="257" y="566" type="line"/>
      <point x="259" y="565" type="line"/>
      <point x="417" y="614" type="line"/>
      <point x="417" y="616" type="line"/>
    </contour>
    <contour>
      <point x="109" y="614" type="line"/>
      <point x="255" y="565" type="line"/>
      <point x="257" y="566" type="line"/>
      <point x="256" y="567" type="line"/>
      <point x="110" y="616" type="line"/>
    </contour>
    <contour>
      <point x="255" y="565" type="line"/>
      <point x="143" y="436" type="line"/>
      <point x="145" y="435" type="line"/>
      <point x="257" y="564" type="line"/>
      <point x="257" y="566" type="line"/>
    </contour>
  </outline>
</glyph>
<glyph name="comma" format="1">
  <advance width="120"/>
  <unicode hex="002C"/>
  <outline>
    <contour>
      <point x="19" y="10"/>
      <point x="16" y="7"/>
      <point x="16" y="3" type="curve" smooth="yes"/>
      <point x="16" y="0"/>
      <point x="18" y="-3"/>
      <point x="22" y="-4" type="curve"/>
      <point x="-26" y="-109" type="line"/>
      <point x="-23" y="-109" type="line"/>
      <point x="27" y="-6" type="line" smooth="yes"/>
      <point x="29" y="-2"/>
      <point x="30" y="0"/>
      <point x="30" y="3" type="curve" smooth="yes"/>
      <point x="30" y="7"/>
      <point x="27" y="10"/>
      <point x="23" y="10" type="curve" smooth="yes"/>
    </contour>
  </outline>
</glyph>
<glyph name="two" format="1">
  <advance width="463"/>
  <unicode hex="0032"/>
  <outline>
    <contour>
      <point x="203" y="670"/>
      <point x="151" y="639"/>
      <point x="97" y="588" type="curve"/>
      <point x="99" y="587" type="line"/>
      <point x="153" y="638"/>
      <point x="204" y="668"/>
      <point x="278" y="668" type="curve" smooth="yes"/>
      <point x="367" y="668"/>
      <point x="422" y="607"/>
      <point x="422" y="528" type="curve" smooth="yes"/>
      <point x="422" y="408"/>
      <point x="365" y="348"/>
      <point x="15" y="2" type="curve"/>
      <point x="15" y="0" type="line"/>
      <point x="358" y="0" type="line"/>
      <point x="358" y="2" type="line"/>
      <point x="18" y="2" type="line"/>
      <point x="364" y="344"/>
      <point x="424" y="405"/>
      <point x="424" y="528" type="curve" smooth="yes"/>
      <point x="424" y="608"/>
      <point x="368" y="670"/>
      <point x="278" y="670" type="curve" smooth="yes"/>
    </contour>
  </outline>
</glyph>
<glyph name="eight" format="1">
  <advance width="523"/>
  <unicode hex="0038"/>
  <outline>
    <contour>
      <point x="225" y="670"/>
      <point x="134" y="600"/>
      <point x="134" y="504" type="curve" smooth="yes"/>
      <point x="134" y="438"/>
      <point x="163" y="398"/>
      <point x="242" y="365" type="curve"/>
      <point x="244" y="364" type="line"/>
      <point x="282" y="348" type="line" smooth="yes"/>
      <point x="387" y="305"/>
      <point x="440" y="271"/>
      <point x="440" y="183" type="curve" smooth="yes"/>
      <point x="440" y="78"/>
      <point x="352" y="-7"/>
      <point x="227" y="-7" type="curve" smooth="yes"/>
      <point x="119" y="-7"/>
      <point x="58" y="49"/>
      <point x="58" y="137" type="curve" smooth="yes"/>
      <point x="58" y="218"/>
      <point x="90" y="301"/>
      <point x="244" y="364" type="curve"/>
      <point x="242" y="365" type="line"/>
      <point x="93" y="304"/>
      <point x="56" y="223"/>
      <point x="56" y="137" type="curve" smooth="yes"/>
      <point x="56" y="48"/>
      <point x="118" y="-9"/>
      <point x="227" y="-9" type="curve" smooth="yes"/>
      <point x="353" y="-9"/>
      <point x="442" y="77"/>
      <point x="442" y="183" type="curve" smooth="yes"/>
      <point x="442" y="261"/>
      <point x="402" y="299"/>
      <point x="308" y="339" type="curve"/>
      <point x="306" y="340" type="line"/>
      <point x="253" y="362" type="line" smooth="yes"/>
      <point x="173" y="395"/>
      <point x="136" y="429"/>
      <point x="136" y="504" type="curve" smooth="yes"/>
      <point x="136" y="599"/>
      <point x="226" y="668"/>
      <point x="319" y="668" type="curve" smooth="yes"/>
      <point x="399" y="668"/>
      <point x="461" y="623"/>
      <point x="461" y="538" type="curve" smooth="yes"/>
      <point x="461" y="469"/>
      <point x="437" y="403"/>
      <point x="306" y="340" type="curve"/>
      <point x="308" y="339" type="line"/>
      <point x="438" y="402"/>
      <point x="463" y="467"/>
      <point x="463" y="538" type="curve" smooth="yes"/>
      <point x="463" y="624"/>
      <point x="400" y="670"/>
      <point x="319" y="670" type="curve" smooth="yes"/>
    </contour>
  </outline>
</glyph>
<glyph name="nine" format="1">
  <advance width="499"/>
  <unicode hex="0039"/>
  <outline>
    <contour>
      <point x="443" y="393" type="line"/>
      <point x="391" y="307"/>
      <point x="317" y="263"/>
      <point x="233" y="263" type="curve" smooth="yes"/>
      <point x="149" y="263"/>
      <point x="92" y="322"/>
      <point x="92" y="422" type="curve" smooth="yes"/>
      <point x="92" y="523"/>
      <point x="152" y="668"/>
      <point x="301" y="668" type="curve" smooth="yes"/>
      <point x="406" y="668"/>
      <point x="448" y="600"/>
      <point x="448" y="483" type="curve" smooth="yes"/>
      <point x="448" y="455"/>
      <point x="446" y="424"/>
      <point x="442" y="391" type="curve"/>
      <point x="442" y="389" type="line"/>
      <point x="409" y="155"/>
      <point x="258" y="41"/>
      <point x="87" y="-9" type="curve"/>
      <point x="88" y="-11" type="line"/>
      <point x="386" y="78"/>
      <point x="450" y="300"/>
      <point x="450" y="484" type="curve" smooth="yes"/>
      <point x="450" y="601"/>
      <point x="407" y="670"/>
      <point x="301" y="670" type="curve" smooth="yes"/>
      <point x="151" y="670"/>
      <point x="90" y="524"/>
      <point x="90" y="422" type="curve" smooth="yes"/>
      <point x="90" y="321"/>
      <point x="148" y="261"/>
      <point x="233" y="261" type="curve" smooth="yes"/>
      <point x="318" y="261"/>
      <point x="390" y="304"/>
      <point x="443" y="389" type="curve"/>
    </contour>
  </outline>
</glyph>
<glyph name="B" format="1">
  <advance width="581"/>
  <unicode hex="0042"/>
  <outline>
    <contour>
      <point x="189" y="680" type="line"/>
      <point x="94" y="0" type="line"/>
      <point x="251" y="0" type="line" smooth="yes"/>
      <point x="446" y="0"/>
      <point x="507" y="103"/>
      <point x="507" y="212" type="curve" smooth="yes"/>
      <point x="507" y="305"/>
      <point x="437" y="355"/>
      <point x="351" y="360" type="curve"/>
      <point x="438" y="371"/>
      <point x="516" y="440"/>
      <point x="516" y="541" type="curve" smooth="yes"/>
      <point x="516" y="630"/>
      <point x="449" y="680"/>
      <point x="323" y="680" type="curve" smooth="yes"/>
    </contour>
    <contour>
      <point x="449" y="678"/>
      <point x="514" y="628"/>
      <point x="514" y="541" type="curve" smooth="yes"/>
      <point x="514" y="419"/>
      <point x="406" y="361"/>
      <point x="336" y="361" type="curve" smooth="yes"/>
      <point x="146" y="361" type="line"/>
      <point x="146" y="359" type="line"/>
      <point x="332" y="359" type="line" smooth="yes"/>
      <point x="435" y="359"/>
      <point x="505" y="304"/>
      <point x="505" y="212" type="curve" smooth="yes"/>
      <point x="505" y="100"/>
      <point x="440" y="2"/>
      <point x="252" y="2" type="curve" smooth="yes"/>
      <point x="96" y="2" type="line"/>
      <point x="191" y="678" type="line"/>
      <point x="324" y="678" type="line" smooth="yes"/>
    </contour>
  </outline>
</glyph>
<glyph name="C" format="1">
  <advance width="530"/>
  <unicode hex="0043"/>
  <outline>
    <contour>
      <point x="166" y="690"/>
      <point x="91" y="429"/>
      <point x="91" y="253" type="curve" smooth="yes"/>
      <point x="91" y="83"/>
      <point x="173" y="-9"/>
      <point x="305" y="-9" type="curve" smooth="yes"/>
      <point x="387" y="-9"/>
      <point x="439" y="23"/>
      <point x="475" y="50" type="curve"/>
      <point x="474" y="52" type="line"/>
      <point x="438" y="25"/>
      <point x="386" y="-7"/>
      <point x="305" y="-7" type="curve" smooth="yes"/>
      <point x="175" y="-7"/>
      <point x="93" y="84"/>
      <point x="93" y="253" type="curve" smooth="yes"/>
      <point x="93" y="424"/>
      <point x="166" y="688"/>
      <point x="403" y="688" type="curve" smooth="yes"/>
      <point x="478" y="688"/>
      <point x="514" y="663"/>
      <point x="546" y="631" type="curve"/>
      <point x="547" y="633" type="line"/>
      <point x="517" y="664"/>
      <point x="477" y="690"/>
      <point x="403" y="690" type="curve" smooth="yes"/>
    </contour>
    <contour>
      <point x="403" y="680" type="move" name="top"/>
    </contour>
    <contour>
      <point x="306" y="0" type="move" name="bottom"/>
    </contour>
  </outline>
</glyph>
<glyph name="D" format="1">
  <advance width="612"/>
  <unicode hex="0044"/>
  <outline>
    <contour>
      <point x="189" y="680" type="line"/>
      <point x="94" y="0" type="line"/>
      <point x="205" y="0" type="line" smooth="yes"/>
      <point x="461" y="0"/>
      <point x="547" y="233"/>
      <point x="547" y="436" type="curve" smooth="yes"/>
      <point x="547" y="638"/>
      <point x="421" y="680"/>
      <point x="293" y="680" type="curve" smooth="yes"/>
    </contour>
    <contour>
      <point x="420" y="678"/>
      <point x="545" y="636"/>
      <point x="545" y="436" type="curve" smooth="yes"/>
      <point x="545" y="234"/>
      <point x="459" y="2"/>
      <point x="205" y="2" type="curve" smooth="yes"/>
      <point x="96" y="2" type="line"/>
      <point x="191" y="678" type="line"/>
      <point x="293" y="678" type="line" smooth="yes"/>
    </contour>
    <contour>
      <point x="321" y="340" type="move" name="center"/>
    </contour>
    <contour>
      <point x="348" y="680" type="move" name="top"/>
    </contour>
  </outline>
</glyph>
<glyph name="F" format="1">
  <advance width="470"/>
  <unicode hex="0046"/>
  <outline>
    <contour>
      <point x="189" y="680" type="line"/>
      <point x="94" y="0" type="line"/>
      <point x="96" y="0" type="line"/>
      <point x="144" y="345" type="line"/>
      <point x="402" y="345" type="line"/>
      <point x="402" y="347" type="line"/>
      <point x="144" y="347" type="line"/>
      <point x="191" y="678" type="line"/>
      <point x="489" y="678" type="line"/>
      <point x="489" y="680" type="line"/>
    </contour>
  </outline>
</glyph>
<glyph name="G" format="1">
  <advance width="600"/>
  <unicode hex="0047"/>
  <outline>
    <contour>
      <point x="189" y="690"/>
      <point x="91" y="450"/>
      <point x="91" y="256" type="curve" smooth="yes"/>
      <point x="91" y="83"/>
      <point x="176" y="-9"/>
      <point x="317" y="-9" type="curve" smooth="yes"/>
      <point x="387" y="-9"/>
      <point x="445" y="15"/>
      <point x="489" y="39" type="curve"/>
      <point x="532" y="342" type="line"/>
      <point x="379" y="342" type="line"/>
      <point x="379" y="340" type="line"/>
      <point x="530" y="340" type="line"/>
      <point x="487" y="40" type="line"/>
      <point x="444" y="17"/>
      <point x="388" y="-7"/>
      <point x="317" y="-7" type="curve" smooth="yes"/>
      <point x="177" y="-7"/>
      <point x="93" y="84"/>
      <point x="93" y="256" type="curve" smooth="yes"/>
      <point x="93" y="444"/>
      <point x="188" y="688"/>
      <point x="404" y="688" type="curve" smooth="yes"/>
      <point x="465" y="688"/>
      <point x="509" y="669"/>
      <point x="553" y="633" type="curve"/>
      <point x="554" y="635" type="line"/>
      <point x="510" y="671"/>
      <point x="466" y="690"/>
      <point x="404" y="690" type="curve" smooth="yes"/>
    </contour>
    <contour>
      <point x="397" y="680" type="move" name="top"/>
    </contour>
    <contour>
      <point x="303" y="0" type="move" name="bottom"/>
    </contour>
  </outline>
</glyph>
<glyph name="I" format="1">
  <advance width="262"/>
  <unicode hex="0049"/>
  <outline>
    <contour>
      <point x="189" y="680" type="line"/>
      <point x="94" y="0" type="line"/>
      <point x="96" y="0" type="line"/>
      <point x="191" y="680" type="line"/>
    </contour>
    <contour>
      <point x="106" y="0" type="move" name="ogonek"/>
    </contour>
    <contour>
      <point x="190" y="680" type="move" name="top"/>
    </contour>
    <contour>
      <point x="88" y="517" type="move" name="topleft"/>
    </contour>
  </outline>
</glyph>
<glyph name="K" format="1">
  <advance width="504"/>
  <unicode hex="004B"/>
  <outline>
    <contour>
      <point x="529" y="680" type="line"/>
      <point x="150" y="366" type="line"/>
      <point x="450" y="0" type="line"/>
      <point x="453" y="0" type="line"/>
      <point x="152" y="366" type="line"/>
      <point x="532" y="680" type="line"/>
    </contour>
    <contour>
      <point x="189" y="680" type="line"/>
      <point x="94" y="1" type="line"/>
      <point x="96" y="1" type="line"/>
      <point x="191" y="680" type="line"/>
    </contour>
    <contour>
      <point x="343" y="680" type="move" name="top"/>
    </contour>
    <contour>
      <point x="248" y="0" type="move" name="bottom"/>
    </contour>
  </outline>
</glyph>
<glyph name="M" format="1">
  <advance width="757"/>
  <unicode hex="004D"/>
  <outline>
    <contour>
      <point x="648" y="680" type="line"/>
      <point x="354" y="88" type="line"/>
      <point x="227" y="680" type="line"/>
      <point x="223" y="680" type="line"/>
      <point x="49" y="0" type="line"/>
      <point x="51" y="0" type="line"/>
      <point x="144" y="361" type="line" smooth="yes"/>
      <point x="173" y="474"/>
      <point x="213" y="630"/>
      <point x="225" y="678" type="curve"/>
      <point x="352" y="85" type="line"/>
      <point x="355" y="85" type="line"/>
      <point x="649" y="677" type="line"/>
      <point x="647" y="606"/>
      <point x="644" y="468"/>
      <point x="641" y="354" type="curve" smooth="yes"/>
      <point x="634" y="0" type="line"/>
      <point x="636" y="0" type="line"/>
      <point x="651" y="680" type="line"/>
    </contour>
  </outline>
</glyph>
<glyph name="O" format="1">
  <advance width="687"/>
  <unicode hex="004F"/>
  <outline>
    <contour>
      <point x="169" y="690"/>
      <point x="90" y="418"/>
      <point x="90" y="251" type="curve" smooth="yes"/>
      <point x="90" y="86"/>
      <point x="169" y="-9"/>
      <point x="306" y="-9" type="curve" smooth="yes"/>
      <point x="551" y="-9"/>
      <point x="621" y="261"/>
      <point x="621" y="429" type="curve" smooth="yes"/>
      <point x="621" y="596"/>
      <point x="541" y="690"/>
      <point x="403" y="690" type="curve" smooth="yes"/>
    </contour>
    <contour>
      <point x="540" y="688"/>
      <point x="619" y="595"/>
      <point x="619" y="429" type="curve" smooth="yes"/>
      <point x="619" y="265"/>
      <point x="550" y="-7"/>
      <point x="306" y="-7" type="curve" smooth="yes"/>
      <point x="170" y="-7"/>
      <point x="92" y="88"/>
      <point x="92" y="253" type="curve" smooth="yes"/>
      <point x="92" y="415"/>
      <point x="170" y="688"/>
      <point x="403" y="688" type="curve" smooth="yes"/>
    </contour>
    <contour>
      <point x="401" y="680" type="move" name="top"/>
    </contour>
    <contour>
      <point x="108" y="517" type="move" name="topleft"/>
    </contour>
  </outline>
</glyph>
<glyph name="P" format="1">
  <advance width="552"/>
  <unicode hex="0050"/>
  <outline>
    <contour>
      <point x="191" y="678" type="line"/>
      <point x="311" y="678" type="line" smooth="yes"/>
      <point x="452" y="678"/>
      <point x="520" y="633"/>
      <point x="520" y="525" type="curve" smooth="yes"/>
      <point x="520" y="412"/>
      <point x="461" y="293"/>
      <point x="254" y="293" type="curve" smooth="yes"/>
      <point x="136" y="293" type="line"/>
      <point x="135" y="291" type="line"/>
      <point x="253" y="291" type="line" smooth="yes"/>
      <point x="462" y="291"/>
      <point x="522" y="411"/>
      <point x="522" y="525" type="curve" smooth="yes"/>
      <point x="522" y="634"/>
      <point x="453" y="680"/>
      <point x="311" y="680" type="curve" smooth="yes"/>
      <point x="189" y="680" type="line"/>
      <point x="94" y="0" type="line"/>
      <point x="96" y="0" type="line"/>
    </contour>
  </outline>
</glyph>
<glyph name="Q" format="1">
  <advance width="674"/>
  <unicode hex="0051"/>
  <outline>
    <contour>
      <point x="306" y="-9" type="line"/>
      <point x="448" y="-7"/>
      <point x="513" y="-24"/>
      <point x="567" y="-73" type="curve"/>
      <point x="569" y="-72" type="line"/>
      <point x="514" y="-21"/>
      <point x="443" y="-8"/>
      <point x="336" y="-7" type="curve"/>
    </contour>
    <contour>
      <point x="169" y="690"/>
      <point x="90" y="418"/>
      <point x="90" y="251" type="curve" smooth="yes"/>
      <point x="90" y="86"/>
      <point x="169" y="-9"/>
      <point x="306" y="-9" type="curve" smooth="yes"/>
      <point x="312" y="-9"/>
      <point x="317" y="-9"/>
      <point x="323" y="-8" type="curve"/>
      <point x="326" y="-8" type="line"/>
      <point x="555" y="6"/>
      <point x="621" y="266"/>
      <point x="621" y="429" type="curve" smooth="yes"/>
      <point x="621" y="596"/>
      <point x="541" y="690"/>
      <point x="403" y="690" type="curve" smooth="yes"/>
    </contour>
    <contour>
      <point x="540" y="688"/>
      <point x="619" y="595"/>
      <point x="619" y="429" type="curve" smooth="yes"/>
      <point x="619" y="265"/>
      <point x="550" y="-7"/>
      <point x="306" y="-7" type="curve" smooth="yes"/>
      <point x="170" y="-7"/>
      <point x="92" y="88"/>
      <point x="92" y="253" type="curve" smooth="yes"/>
      <point x="92" y="415"/>
      <point x="170" y="688"/>
      <point x="403" y="688" type="curve" smooth="yes"/>
    </contour>
  </outline>
</glyph>
<glyph name="R" format="1">
  <advance width="561"/>
  <unicode hex="0052"/>
  <outline>
    <contour>
      <point x="189" y="680" type="line"/>
      <point x="94" y="0" type="line"/>
      <point x="96" y="0" type="line"/>
      <point x="191" y="678" type="line"/>
      <point x="326" y="678" type="line" smooth="yes"/>
      <point x="467" y="678"/>
      <point x="517" y="625"/>
      <point x="517" y="539" type="curve" smooth="yes"/>
      <point x="517" y="442"/>
      <point x="458" y="336"/>
      <point x="317" y="336" type="curve" smooth="yes"/>
      <point x="142" y="336" type="line"/>
      <point x="142" y="334" type="line"/>
      <point x="323" y="334" type="line"/>
      <point x="464" y="337"/>
      <point x="519" y="446"/>
      <point x="519" y="539" type="curve" smooth="yes"/>
      <point x="519" y="626"/>
      <point x="468" y="680"/>
      <point x="326" y="680" type="curve" smooth="yes"/>
    </contour>
    <contour>
      <point x="322" y="335" type="line"/>
      <point x="467" y="0" type="line"/>
      <point x="470" y="0" type="line"/>
      <point x="324" y="335" type="line"/>
    </contour>
    <contour>
      <point x="340" y="680" type="move" name="top"/>
    </contour>
    <contour>
      <point x="265" y="0" type="move" name="bottom"/>
    </contour>
  </outline>
</glyph>
<glyph name="S" format="1">
  <advance width="540"/>
  <unicode hex="0053"/>
  <outline>
    <contour>
      <point x="177" y="690"/>
      <point x="125" y="591"/>
      <point x="125" y="524" type="curve" smooth="yes"/>
      <point x="125" y="439"/>
      <point x="168" y="407"/>
      <point x="285" y="368" type="curve" smooth="yes"/>
      <point x="393" y="331"/>
      <point x="449" y="293"/>
      <point x="449" y="197" type="curve" smooth="yes"/>
      <point x="449" y="121"/>
      <point x="388" y="-7"/>
      <point x="223" y="-7" type="curve" smooth="yes"/>
      <point x="131" y="-7"/>
      <point x="82" y="24"/>
      <point x="39" y="71" type="curve"/>
      <point x="38" y="69" type="line"/>
      <point x="81" y="22"/>
      <point x="131" y="-9"/>
      <point x="223" y="-9" type="curve" smooth="yes"/>
      <point x="389" y="-9"/>
      <point x="451" y="118"/>
      <point x="451" y="198" type="curve" smooth="yes"/>
      <point x="451" y="294"/>
      <point x="395" y="333"/>
      <point x="286" y="370" type="curve" smooth="yes"/>
      <point x="169" y="409"/>
      <point x="127" y="441"/>
      <point x="127" y="524" type="curve" smooth="yes"/>
      <point x="127" y="590"/>
      <point x="178" y="688"/>
      <point x="324" y="688" type="curve" smooth="yes"/>
      <point x="400" y="688"/>
      <point x="450" y="662"/>
      <point x="487" y="625" type="curve"/>
      <point x="489" y="626" type="line"/>
      <point x="452" y="663"/>
      <point x="402" y="690"/>
      <point x="324" y="690" type="curve" smooth="yes"/>
    </contour>
    <contour>
      <point x="332" y="680" type="move" name="top"/>
    </contour>
    <contour>
      <point x="225" y="0" type="move" name="bottom"/>
    </contour>
  </outline>
</glyph>
<glyph name="U" format="1">
  <advance width="633"/>
  <unicode hex="0055"/>
  <outline>
    <contour>
      <point x="571" y="680" type="line"/>
      <point x="504" y="206" type="line" smooth="yes"/>
      <point x="488" y="84"/>
      <point x="423" y="-7"/>
      <point x="280" y="-7" type="curve" smooth="yes"/>
      <point x="136" y="-7"/>
      <point x="98" y="84"/>
      <point x="114" y="206" type="curve" smooth="yes"/>
      <point x="181" y="680" type="line"/>
      <point x="179" y="680" type="line"/>
      <point x="112" y="206" type="line" smooth="yes"/>
      <point x="96" y="83"/>
      <point x="134" y="-9"/>
      <point x="280" y="-9" type="curve" smooth="yes"/>
      <point x="424" y="-9"/>
      <point x="490" y="83"/>
      <point x="506" y="206" type="curve" smooth="yes"/>
      <point x="573" y="680" type="line"/>
    </contour>
    <contour>
      <point x="361" y="0" type="move" name="ogonek"/>
    </contour>
    <contour>
      <point x="381" y="680" type="move" name="top"/>
    </contour>
  </outline>
</glyph>
<glyph name="V" format="1">
  <advance width="523"/>
  <unicode hex="0056"/>
  <outline>
    <contour>
      <point x="546" y="680" type="line"/>
      <point x="228" y="2" type="line"/>
      <point x="97" y="680" type="line"/>
      <point x="95" y="680" type="line"/>
      <point x="227" y="0" type="line"/>
      <point x="229" y="0" type="line"/>
      <point x="548" y="680" type="line"/>
    </contour>
  </outline>
</glyph>
<glyph name="Y" format="1">
  <advance width="479"/>
  <unicode hex="0059"/>
  <outline>
    <contour>
      <point x="511" y="680" type="line"/>
      <point x="241" y="273" type="line"/>
      <point x="86" y="680" type="line"/>
      <point x="84" y="680" type="line"/>
      <point x="240" y="271" type="line"/>
      <point x="203" y="0" type="line"/>
      <point x="205" y="0" type="line"/>
      <point x="242" y="271" type="line"/>
      <point x="513" y="680" type="line"/>
    </contour>
    <contour>
      <point x="299" y="680" type="move" name="top"/>
    </contour>
    <contour>
      <point x="28" y="517" type="move" name="topleft"/>
    </contour>
  </outline>
</glyph>
<glyph name="Z" format="1">
  <advance width="504"/>
  <unicode hex="005A"/>
  <outline>
    <contour>
      <point x="141" y="680" type="line"/>
      <point x="141" y="678" type="line"/>
      <point x="510" y="678" type="line"/>
      <point x="9" y="2" type="line"/>
      <point x="9" y="0" type="line"/>
      <point x="401" y="0" type="line"/>
      <point x="401" y="2" type="line"/>
      <point x="12" y="2" type="line"/>
      <point x="513" y="678" type="line"/>
      <point x="513" y="680" type="line"/>
    </contour>
    <contour>
      <point x="313" y="680" type="move" name="top"/>
    </contour>
  </outline>
</glyph>
<glyph name="bracketright" format="1">
  <advance width="310"/>
  <unicode hex="005D"/>
  <outline>
    <contour>
      <point x="165" y="790" type="line"/>
      <point x="164" y="788" type="line"/>
      <point x="272" y="788" type="line"/>
      <point x="149" y="-98" type="line"/>
      <point x="41" y="-98" type="line"/>
      <point x="39" y="-100" type="line"/>
      <point x="149" y="-100" type="line"/>
      <point x="275" y="790" type="line"/>
    </contour>
  </outline>
</glyph>
<glyph name="a" format="1">
  <advance width="539"/>
  <unicode hex="0061"/>
  <outline>
    <contour>
      <point x="139" y="527"/>
      <point x="74" y="326"/>
      <point x="74" y="183" type="curve" smooth="yes"/>
      <point x="74" y="72"/>
      <point x="129" y="-9"/>
      <point x="227" y="-9" type="curve" smooth="yes"/>
      <point x="291" y="-9"/>
      <point x="357" y="31"/>
      <point x="404" y="118" type="curve"/>
      <point x="398" y="71"/>
      <point x="388" y="12"/>
      <point x="442" y="-9" type="curve"/>
      <point x="443" y="-7" type="line"/>
      <point x="413" y="4"/>
      <point x="401" y="28"/>
      <point x="401" y="65" type="curve" smooth="yes"/>
      <point x="401" y="81"/>
      <point x="403" y="99"/>
      <point x="406" y="121" type="curve" smooth="yes"/>
      <point x="462" y="487" type="line"/>
      <point x="428" y="511"/>
      <point x="387" y="527"/>
      <point x="337" y="527" type="curve" smooth="yes"/>
    </contour>
    <contour>
      <point x="386" y="525"/>
      <point x="426" y="510"/>
      <point x="460" y="486" type="curve"/>
      <point x="404" y="121" type="line"/>
      <point x="357" y="34"/>
      <point x="291" y="-7"/>
      <point x="227" y="-7" type="curve" smooth="yes"/>
      <point x="130" y="-7"/>
      <point x="76" y="73"/>
      <point x="76" y="183" type="curve" smooth="yes"/>
      <point x="76" y="325"/>
      <point x="140" y="525"/>
      <point x="337" y="525" type="curve" smooth="yes"/>
    </contour>
    <contour>
      <point x="452" y="-9" type="move" name="ogonek"/>
    </contour>
    <contour>
      <point x="337" y="517" type="move" name="top"/>
    </contour>
  </outline>
</glyph>
<glyph name="b" format="1">
  <advance width="562"/>
  <unicode hex="0062"/>
  <outline>
    <contour>
      <point x="191" y="730" type="line"/>
      <point x="94" y="27" type="line"/>
      <point x="150" y="2"/>
      <point x="190" y="-9"/>
      <point x="251" y="-9" type="curve" smooth="yes"/>
      <point x="425" y="-9"/>
      <point x="489" y="207"/>
      <point x="489" y="339" type="curve" smooth="yes"/>
      <point x="489" y="459"/>
      <point x="439" y="527"/>
      <point x="343" y="527" type="curve" smooth="yes"/>
      <point x="259" y="527"/>
      <point x="200" y="481"/>
      <point x="150" y="420" type="curve"/>
      <point x="193" y="730" type="line"/>
    </contour>
    <contour>
      <point x="438" y="525"/>
      <point x="487" y="458"/>
      <point x="487" y="339" type="curve" smooth="yes"/>
      <point x="487" y="208"/>
      <point x="424" y="-7"/>
      <point x="251" y="-7" type="curve" smooth="yes"/>
      <point x="192" y="-7"/>
      <point x="153" y="3"/>
      <point x="96" y="28" type="curve"/>
      <point x="150" y="418" type="line"/>
      <point x="205" y="483"/>
      <point x="261" y="525"/>
      <point x="343" y="525" type="curve" smooth="yes"/>
    </contour>
  </outline>
</glyph>
<glyph name="c" format="1">
  <advance width="469"/>
  <unicode hex="0063"/>
  <outline>
    <contour>
      <point x="193" y="527"/>
      <point x="104" y="426"/>
      <point x="80" y="256" type="curve" smooth="yes"/>
      <point x="56" y="86"/>
      <point x="128" y="-9"/>
      <point x="243" y="-9" type="curve" smooth="yes"/>
      <point x="304" y="-9"/>
      <point x="346" y="13"/>
      <point x="384" y="44" type="curve"/>
      <point x="383" y="45" type="line"/>
      <point x="344" y="14"/>
      <point x="302" y="-7"/>
      <point x="243" y="-7" type="curve" smooth="yes"/>
      <point x="129" y="-7"/>
      <point x="58" y="88"/>
      <point x="82" y="256" type="curve" smooth="yes"/>
      <point x="105" y="424"/>
      <point x="195" y="525"/>
      <point x="319" y="525" type="curve" smooth="yes"/>
      <point x="370" y="525"/>
      <point x="408" y="509"/>
      <point x="439" y="476" type="curve"/>
      <point x="441" y="477" type="line"/>
      <point x="410" y="510"/>
      <point x="372" y="527"/>
      <point x="319" y="527" type="curve" smooth="yes"/>
    </contour>
    <contour>
      <point x="305" y="517" type="move" name="top"/>
    </contour>
    <contour>
      <point x="249" y="-1" type="move" name="bottom"/>
    </contour>
  </outline>
</glyph>
<glyph name="d" format="1">
  <advance width="572"/>
  <unicode hex="0064"/>
  <outline>
    <contour>
      <point x="468" y="424" type="line"/>
      <point x="450" y="473"/>
      <point x="404" y="527"/>
      <point x="318" y="527" type="curve" smooth="yes"/>
      <point x="139" y="527"/>
      <point x="80" y="315"/>
      <point x="80" y="182" type="curve" smooth="yes"/>
      <point x="80" y="61"/>
      <point x="139" y="-9"/>
      <point x="229" y="-9" type="curve" smooth="yes"/>
      <point x="326" y="-9"/>
      <point x="383" y="65"/>
      <point x="430" y="149" type="curve"/>
      <point x="409" y="0" type="line"/>
      <point x="411" y="0" type="line"/>
      <point x="513" y="730" type="line"/>
      <point x="511" y="730" type="line"/>
    </contour>
    <contour>
      <point x="403" y="525"/>
      <point x="448" y="474"/>
      <point x="468" y="420" type="curve"/>
      <point x="430" y="152" type="line"/>
      <point x="383" y="68"/>
      <point x="326" y="-7"/>
      <point x="229" y="-7" type="curve" smooth="yes"/>
      <point x="140" y="-7"/>
      <point x="82" y="62"/>
      <point x="82" y="182" type="curve" smooth="yes"/>
      <point x="82" y="314"/>
      <point x="140" y="525"/>
      <point x="318" y="525" type="curve" smooth="yes"/>
    </contour>
    <contour>
      <point x="289" y="259" type="move" name="center"/>
    </contour>
    <contour>
      <point x="562" y="727" type="move" name="topright"/>
    </contour>
  </outline>
</glyph>
<glyph name="e" format="1">
  <advance width="519"/>
  <unicode hex="0065"/>
  <outline>
    <contour>
      <point x="132" y="527"/>
      <point x="74" y="310"/>
      <point x="74" y="190" type="curve"/>
      <point x="74" y="61"/>
      <point x="136" y="-9"/>
      <point x="238" y="-9" type="curve"/>
      <point x="303" y="-9"/>
      <point x="348" y="12"/>
      <point x="400" y="50" type="curve"/>
      <point x="399" y="52" type="line"/>
      <point x="347" y="14"/>
      <point x="303" y="-7"/>
      <point x="238" y="-7" type="curve"/>
      <point x="137" y="-7"/>
      <point x="76" y="62"/>
      <point x="76" y="190" type="curve"/>
      <point x="76" y="310"/>
      <point x="134" y="525"/>
      <point x="324" y="525" type="curve"/>
      <point x="398" y="525"/>
      <point x="462" y="487"/>
      <point x="462" y="414" type="curve"/>
      <point x="462" y="308"/>
      <point x="347" y="233"/>
      <point x="76" y="220" type="curve"/>
      <point x="76" y="218" type="line"/>
      <point x="347" y="231"/>
      <point x="464" y="306"/>
      <point x="464" y="414" type="curve"/>
      <point x="464" y="488"/>
      <point x="399" y="527"/>
      <point x="324" y="527" type="curve"/>
    </contour>
    <contour>
      <point x="343" y="10" type="move" name="ogonek"/>
    </contour>
    <contour>
      <point x="233" y="0" type="move" name="bottom"/>
    </contour>
    <contour>
      <point x="307" y="517" type="move" name="top"/>
    </contour>
  </outline>
</glyph>
<glyph name="f" format="1">
  <advance width="299"/>
  <unicode hex="0066"/>
  <outline>
    <contour>
      <point x="240" y="734"/>
      <point x="189" y="694"/>
      <point x="178" y="618" type="curve" smooth="yes"/>
      <point x="91" y="1" type="line" smooth="yes"/>
      <point x="75" y="-117"/>
      <point x="41" y="-153"/>
      <point x="-33" y="-190" type="curve"/>
      <point x="-32" y="-191" type="line"/>
      <point x="43" y="-154"/>
      <point x="76" y="-118"/>
      <point x="93" y="1" type="curve" smooth="yes"/>
      <point x="180" y="618" type="line" smooth="yes"/>
      <point x="191" y="693"/>
      <point x="241" y="732"/>
      <point x="305" y="732" type="curve" smooth="yes"/>
      <point x="349" y="732"/>
      <point x="382" y="719"/>
      <point x="413" y="695" type="curve"/>
      <point x="415" y="696" type="line"/>
      <point x="383" y="721"/>
      <point x="349" y="734"/>
      <point x="305" y="734" type="curve" smooth="yes"/>
    </contour>
    <contour>
      <point x="71" y="517" type="line"/>
      <point x="71" y="515" type="line"/>
      <point x="316" y="515" type="line"/>
      <point x="316" y="517" type="line"/>
    </contour>
  </outline>
</glyph>
<glyph name="g" format="1">
  <advance width="549"/>
  <unicode hex="0067"/>
  <outline>
    <contour>
      <point x="139" y="527"/>
      <point x="76" y="338"/>
      <point x="76" y="195" type="curve" smooth="yes"/>
      <point x="76" y="84"/>
      <point x="130" y="0"/>
      <point x="228" y="0" type="curve" smooth="yes"/>
      <point x="292" y="0"/>
      <point x="360" y="42"/>
      <point x="407" y="132" type="curve"/>
      <point x="386" y="-11" type="line" smooth="yes"/>
      <point x="365" y="-151"/>
      <point x="296" y="-189"/>
      <point x="211" y="-189" type="curve" smooth="yes"/>
      <point x="141" y="-189"/>
      <point x="85" y="-165"/>
      <point x="53" y="-143" type="curve"/>
      <point x="52" y="-145" type="line"/>
      <point x="84" y="-167"/>
      <point x="141" y="-191"/>
      <point x="211" y="-191" type="curve" smooth="yes"/>
      <point x="297" y="-191"/>
      <point x="367" y="-152"/>
      <point x="388" y="-11" type="curve" smooth="yes"/>
      <point x="462" y="487" type="line"/>
      <point x="428" y="511"/>
      <point x="387" y="527"/>
      <point x="337" y="527" type="curve" smooth="yes"/>
    </contour>
    <contour>
      <point x="386" y="525"/>
      <point x="426" y="510"/>
      <point x="460" y="486" type="curve"/>
      <point x="408" y="138" type="line"/>
      <point x="362" y="49"/>
      <point x="297" y="2"/>
      <point x="228" y="2" type="curve" smooth="yes"/>
      <point x="131" y="2"/>
      <point x="78" y="85"/>
      <point x="78" y="195" type="curve" smooth="yes"/>
      <point x="78" y="337"/>
      <point x="140" y="525"/>
      <point x="337" y="525" type="curve" smooth="yes"/>
    </contour>
    <contour>
      <point x="316" y="517" type="move" name="top"/>
    </contour>
  </outline>
</glyph>
<glyph name="k" format="1">
  <advance width="509"/>
  <unicode hex="006B"/>
  <outline>
    <contour>
      <point x="191" y="730" type="line"/>
      <point x="89" y="0" type="line"/>
      <point x="91" y="0" type="line"/>
      <point x="133" y="302" type="line"/>
      <point x="197" y="446"/>
      <point x="279" y="525"/>
      <point x="363" y="525" type="curve" smooth="yes"/>
      <point x="433" y="525"/>
      <point x="469" y="485"/>
      <point x="469" y="424" type="curve" smooth="yes"/>
      <point x="469" y="335"/>
      <point x="397" y="284"/>
      <point x="279" y="244" type="curve"/>
      <point x="408" y="0" type="line"/>
      <point x="410" y="0" type="line"/>
      <point x="282" y="243" type="line"/>
      <point x="397" y="281"/>
      <point x="471" y="335"/>
      <point x="471" y="424" type="curve"/>
      <point x="471" y="486"/>
      <point x="434" y="527"/>
      <point x="363" y="527" type="curve" smooth="yes"/>
      <point x="280" y="527"/>
      <point x="197" y="450"/>
      <point x="134" y="308" type="curve"/>
      <point x="193" y="730" type="line"/>
    </contour>
    <contour>
      <point x="228" y="0" type="move" name="bottom"/>
    </contour>
  </outline>
</glyph>
<glyph name="l" format="1">
  <advance width="275"/>
  <unicode hex="006C"/>
  <outline>
    <contour>
      <point x="186" y="730" type="line"/>
      <point x="93" y="64" type="line" smooth="yes"/>
      <point x="87" y="19"/>
      <point x="103" y="-9"/>
      <point x="145" y="-9" type="curve" smooth="yes"/>
      <point x="159" y="-9"/>
      <point x="174" y="-6"/>
      <point x="187" y="-1" type="curve"/>
      <point x="187" y="1" type="line"/>
      <point x="174" y="-4"/>
      <point x="159" y="-7"/>
      <point x="145" y="-7" type="curve" smooth="yes"/>
      <point x="104" y="-7"/>
      <point x="89" y="21"/>
      <point x="95" y="64" type="curve" smooth="yes"/>
      <point x="188" y="730" type="line"/>
    </contour>
    <contour>
      <point x="138" y="0" type="move" name="bottom"/>
    </contour>
    <contour>
      <point x="187" y="730" type="move" name="top"/>
    </contour>
    <contour>
      <point x="237" y="727" type="move" name="topright"/>
    </contour>
    <contour>
      <point x="272" y="375" type="move" name="center"/>
    </contour>
  </outline>
</glyph>
<glyph name="m" format="1">
  <advance width="843"/>
  <unicode hex="006D"/>
  <outline>
    <contour>
      <point x="274" y="527"/>
      <point x="202" y="478"/>
      <point x="138" y="335" type="curve"/>
      <point x="163" y="517" type="line"/>
      <point x="161" y="517" type="line"/>
      <point x="89" y="0" type="line"/>
      <point x="91" y="0" type="line"/>
      <point x="137" y="329" type="line"/>
      <point x="203" y="476"/>
      <point x="274" y="525"/>
      <point x="345" y="525" type="curve" smooth="yes"/>
      <point x="422" y="525"/>
      <point x="452" y="466"/>
      <point x="438" y="368" type="curve" smooth="yes"/>
      <point x="387" y="0" type="line"/>
      <point x="389" y="0" type="line"/>
      <point x="440" y="368" type="line" smooth="yes"/>
      <point x="454" y="467"/>
      <point x="423" y="527"/>
      <point x="345" y="527" type="curve" smooth="yes"/>
    </contour>
    <contour>
      <point x="572" y="527"/>
      <point x="499" y="480"/>
      <point x="435" y="337" type="curve"/>
      <point x="434" y="331" type="line"/>
      <point x="500" y="479"/>
      <point x="572" y="525"/>
      <point x="643" y="525" type="curve" smooth="yes"/>
      <point x="720" y="525"/>
      <point x="750" y="466"/>
      <point x="736" y="368" type="curve" smooth="yes"/>
      <point x="685" y="0" type="line"/>
      <point x="687" y="0" type="line"/>
      <point x="738" y="368" type="line" smooth="yes"/>
      <point x="752" y="467"/>
      <point x="721" y="527"/>
      <point x="643" y="527" type="curve" smooth="yes"/>
    </contour>
  </outline>
</glyph>
<glyph name="n" format="1">
  <advance width="580"/>
  <unicode hex="006E"/>
  <outline>
    <contour>
      <point x="279" y="527"/>
      <point x="207" y="473"/>
      <point x="138" y="335" type="curve"/>
      <point x="163" y="517" type="line"/>
      <point x="161" y="517" type="line"/>
      <point x="89" y="0" type="line"/>
      <point x="91" y="0" type="line"/>
      <point x="137" y="329" type="line"/>
      <point x="208" y="471"/>
      <point x="279" y="525"/>
      <point x="365" y="525" type="curve" smooth="yes"/>
      <point x="457" y="525"/>
      <point x="487" y="466"/>
      <point x="474" y="368" type="curve" smooth="yes"/>
      <point x="422" y="0" type="line"/>
      <point x="424" y="0" type="line"/>
      <point x="476" y="368" type="line" smooth="yes"/>
      <point x="489" y="467"/>
      <point x="458" y="527"/>
      <point x="365" y="527" type="curve" smooth="yes"/>
    </contour>
    <contour>
      <point x="326" y="517" type="move" name="top"/>
    </contour>
    <contour>
      <point x="254" y="0" type="move" name="bottom"/>
    </contour>
  </outline>
</glyph>
<glyph name="o" format="1">
  <advance width="559"/>
  <unicode hex="006F"/>
  <outline>
    <contour>
      <point x="136" y="527"/>
      <point x="75" y="325"/>
      <point x="75" y="192" type="curve" smooth="yes"/>
      <point x="75" y="65"/>
      <point x="136" y="-9"/>
      <point x="242" y="-9" type="curve" smooth="yes"/>
      <point x="426" y="-9"/>
      <point x="484" y="198"/>
      <point x="484" y="328" type="curve" smooth="yes"/>
      <point x="484" y="455"/>
      <point x="423" y="527"/>
      <point x="318" y="527" type="curve" smooth="yes"/>
    </contour>
    <contour>
      <point x="422" y="525"/>
      <point x="482" y="454"/>
      <point x="482" y="328" type="curve" smooth="yes"/>
      <point x="482" y="199"/>
      <point x="425" y="-7"/>
      <point x="242" y="-7" type="curve" smooth="yes"/>
      <point x="137" y="-7"/>
      <point x="77" y="66"/>
      <point x="77" y="192" type="curve" smooth="yes"/>
      <point x="77" y="324"/>
      <point x="137" y="525"/>
      <point x="318" y="525" type="curve" smooth="yes"/>
    </contour>
    <contour>
      <point x="316" y="517" type="move" name="top"/>
    </contour>
  </outline>
</glyph>
<glyph name="p" format="1">
  <advance width="568"/>
  <unicode hex="0070"/>
  <outline>
    <contour>
      <point x="260" y="527"/>
      <point x="200" y="483"/>
      <point x="150" y="420" type="curve"/>
      <point x="163" y="517" type="line"/>
      <point x="161" y="517" type="line"/>
      <point x="63" y="-190" type="line"/>
      <point x="65" y="-189" type="line"/>
      <point x="95" y="26" type="line"/>
      <point x="151" y="2"/>
      <point x="191" y="-9"/>
      <point x="251" y="-9" type="curve" smooth="yes"/>
      <point x="425" y="-9"/>
      <point x="489" y="207"/>
      <point x="489" y="339" type="curve" smooth="yes"/>
      <point x="489" y="459"/>
      <point x="439" y="527"/>
      <point x="343" y="527" type="curve" smooth="yes"/>
    </contour>
    <contour>
      <point x="438" y="525"/>
      <point x="487" y="458"/>
      <point x="487" y="339" type="curve" smooth="yes"/>
      <point x="487" y="208"/>
      <point x="424" y="-7"/>
      <point x="251" y="-7" type="curve" smooth="yes"/>
      <point x="192" y="-7"/>
      <point x="153" y="3"/>
      <point x="95" y="28" type="curve"/>
      <point x="150" y="418" type="line"/>
      <point x="205" y="484"/>
      <point x="261" y="525"/>
      <point x="343" y="525" type="curve" smooth="yes"/>
    </contour>
  </outline>
</glyph>
<glyph name="q" format="1">
  <advance width="549"/>
  <unicode hex="0071"/>
  <outline>
    <contour>
      <point x="139" y="527"/>
      <point x="74" y="326"/>
      <point x="74" y="183" type="curve" smooth="yes"/>
      <point x="74" y="72"/>
      <point x="129" y="-9"/>
      <point x="227" y="-9" type="curve" smooth="yes"/>
      <point x="291" y="-9"/>
      <point x="358" y="31"/>
      <point x="405" y="118" type="curve"/>
      <point x="359" y="-190" type="line"/>
      <point x="362" y="-189" type="line"/>
      <point x="462" y="487" type="line"/>
      <point x="428" y="511"/>
      <point x="387" y="527"/>
      <point x="337" y="527" type="curve" smooth="yes"/>
    </contour>
    <contour>
      <point x="386" y="525"/>
      <point x="426" y="510"/>
      <point x="460" y="486" type="curve"/>
      <point x="406" y="124" type="line"/>
      <point x="358" y="33"/>
      <point x="291" y="-7"/>
      <point x="227" y="-7" type="curve" smooth="yes"/>
      <point x="130" y="-7"/>
      <point x="76" y="73"/>
      <point x="76" y="183" type="curve" smooth="yes"/>
      <point x="76" y="325"/>
      <point x="140" y="525"/>
      <point x="337" y="525" type="curve" smooth="yes"/>
    </contour>
  </outline>
</glyph>
<glyph name="r" format="1">
  <advance width="361"/>
  <unicode hex="0072"/>
  <outline>
    <contour>
      <point x="245" y="527"/>
      <point x="189" y="486"/>
      <point x="141" y="357" type="curve"/>
      <point x="163" y="517" type="line"/>
      <point x="161" y="517" type="line"/>
      <point x="89" y="0" type="line"/>
      <point x="91" y="0" type="line"/>
      <point x="140" y="349" type="line"/>
      <point x="190" y="485"/>
      <point x="246" y="525"/>
      <point x="327" y="525" type="curve" smooth="yes"/>
      <point x="344" y="525"/>
      <point x="360" y="522"/>
      <point x="372" y="518" type="curve"/>
      <point x="373" y="520" type="line"/>
      <point x="360" y="524"/>
      <point x="345" y="527"/>
      <point x="327" y="527" type="curve" smooth="yes"/>
    </contour>
    <contour>
      <point x="266" y="517" type="move" name="top"/>
    </contour>
    <contour>
      <point x="90" y="0" type="move" name="bottom"/>
    </contour>
  </outline>
</glyph>
<glyph name="s" format="1">
  <advance width="457"/>
  <unicode hex="0073"/>
  <outline>
    <contour>
      <point x="171" y="527"/>
      <point x="96" y="478"/>
      <point x="96" y="399" type="curve" smooth="yes"/>
      <point x="96" y="341"/>
      <point x="129" y="309"/>
      <point x="233" y="275" type="curve" smooth="yes"/>
      <point x="333" y="242"/>
      <point x="369" y="210"/>
      <point x="369" y="141" type="curve" smooth="yes"/>
      <point x="369" y="46"/>
      <point x="290" y="-7"/>
      <point x="193" y="-7" type="curve" smooth="yes"/>
      <point x="112" y="-7"/>
      <point x="68" y="21"/>
      <point x="30" y="59" type="curve"/>
      <point x="29" y="57" type="line"/>
      <point x="67" y="19"/>
      <point x="112" y="-9"/>
      <point x="193" y="-9" type="curve" smooth="yes"/>
      <point x="291" y="-9"/>
      <point x="371" y="45"/>
      <point x="371" y="141" type="curve" smooth="yes"/>
      <point x="371" y="211"/>
      <point x="335" y="244"/>
      <point x="234" y="277" type="curve" smooth="yes"/>
      <point x="129" y="311"/>
      <point x="98" y="343"/>
      <point x="98" y="399" type="curve" smooth="yes"/>
      <point x="98" y="478"/>
      <point x="173" y="525"/>
      <point x="259" y="525" type="curve" smooth="yes"/>
      <point x="323" y="525"/>
      <point x="365" y="508"/>
      <point x="401" y="474" type="curve"/>
      <point x="403" y="475" type="line"/>
      <point x="367" y="509"/>
      <point x="324" y="527"/>
      <point x="259" y="527" type="curve" smooth="yes"/>
    </contour>
    <contour>
      <point x="270" y="517" type="move" name="top"/>
    </contour>
    <contour>
      <point x="193" y="0" type="move" name="bottom"/>
    </contour>
  </outline>
</glyph>
<glyph name="t" format="1">
  <advance width="322"/>
  <unicode hex="0074"/>
  <outline>
    <contour>
      <point x="172" y="651" type="line"/>
      <point x="153" y="516" type="line"/>
      <point x="97" y="113" type="line" smooth="yes"/>
      <point x="86" y="35"/>
      <point x="118" y="-9"/>
      <point x="183" y="-9" type="curve" smooth="yes"/>
      <point x="224" y="-9"/>
      <point x="254" y="4"/>
      <point x="281" y="19" type="curve"/>
      <point x="280" y="21" type="line"/>
      <point x="252" y="5"/>
      <point x="223" y="-7"/>
      <point x="183" y="-7" type="curve" smooth="yes"/>
      <point x="119" y="-7"/>
      <point x="88" y="37"/>
      <point x="99" y="113" type="curve" smooth="yes"/>
      <point x="174" y="651" type="line"/>
    </contour>
    <contour>
      <point x="66" y="517" type="line"/>
      <point x="66" y="515" type="line"/>
      <point x="301" y="515" type="line"/>
      <point x="301" y="517" type="line"/>
    </contour>
    <contour>
      <point x="145" y="259" type="move" name="center"/>
    </contour>
    <contour>
      <point x="192" y="0" type="move" name="bottom"/>
    </contour>
    <contour>
      <point x="243" y="730" type="move" name="topright"/>
    </contour>
  </outline>
</glyph>
<glyph name="u" format="1">
  <advance width="575"/>
  <unicode hex="0075"/>
  <outline>
    <contour>
      <point x="484" y="517" type="line"/>
      <point x="436" y="171" type="line"/>
      <point x="386" y="55"/>
      <point x="311" y="-7"/>
      <point x="224" y="-7" type="curve" smooth="yes"/>
      <point x="138" y="-7"/>
      <point x="93" y="48"/>
      <point x="107" y="150" type="curve" smooth="yes"/>
      <point x="158" y="517" type="line"/>
      <point x="156" y="517" type="line"/>
      <point x="105" y="150" type="line" smooth="yes"/>
      <point x="91" y="46"/>
      <point x="137" y="-9"/>
      <point x="224" y="-9" type="curve" smooth="yes"/>
      <point x="310" y="-9"/>
      <point x="386" y="52"/>
      <point x="436" y="167" type="curve"/>
      <point x="412" y="0" type="line"/>
      <point x="414" y="0" type="line"/>
      <point x="486" y="517" type="line"/>
    </contour>
    <contour>
      <point x="424" y="0" type="move" name="ogonek"/>
    </contour>
    <contour>
      <point x="324" y="517" type="move" name="top"/>
    </contour>
  </outline>
</glyph>
<glyph name="v" format="1">
  <advance width="435"/>
  <unicode hex="0076"/>
  <outline>
    <contour>
      <point x="439" y="517" type="line"/>
      <point x="187" y="2" type="line"/>
      <point x="68" y="517" type="line"/>
      <point x="66" y="517" type="line"/>
      <point x="186" y="0" type="line"/>
      <point x="188" y="0" type="line"/>
      <point x="441" y="517" type="line"/>
    </contour>
  </outline>
</glyph>
<glyph name="z" format="1">
  <advance width="410"/>
  <unicode hex="007A"/>
  <outline>
    <contour>
      <point x="102" y="517" type="line"/>
      <point x="102" y="515" type="line"/>
      <point x="403" y="515" type="line"/>
      <point x="-1" y="2" type="line"/>
      <point x="-1" y="0" type="line"/>
      <point x="323" y="0" type="line"/>
      <point x="323" y="2" type="line"/>
      <point x="2" y="2" type="line"/>
      <point x="406" y="515" type="line"/>
      <point x="406" y="517" type="line"/>
    </contour>
    <contour>
      <point x="251" y="517" type="move" name="top"/>
    </contour>
  </outline>
</glyph>
<glyph name="braceright" format="1">
  <advance width="326"/>
  <unicode hex="007D"/>
  <outline>
    <contour>
      <point x="92" y="-110"/>
      <point x="127" y="-84"/>
      <point x="136" y="-16" type="curve"/>
      <point x="176" y="271" type="line"/>
      <point x="184" y="323"/>
      <point x="218" y="348"/>
      <point x="263" y="348" type="curve"/>
      <point x="264" y="350" type="line"/>
      <point x="219" y="350"/>
      <point x="191" y="375"/>
      <point x="199" y="427" type="curve"/>
      <point x="239" y="714" type="line"/>
      <point x="248" y="782"/>
      <point x="221" y="808"/>
      <point x="172" y="808" type="curve"/>
      <point x="172" y="806" type="line"/>
      <point x="221" y="806"/>
      <point x="246" y="780"/>
      <point x="237" y="713" type="curve"/>
      <point x="197" y="427" type="line"/>
      <point x="190" y="378"/>
      <point x="214" y="349"/>
      <point x="261" y="349" type="curve"/>
      <point x="213" y="349"/>
      <point x="181" y="320"/>
      <point x="174" y="271" type="curve"/>
      <point x="134" y="-15" type="line"/>
      <point x="125" y="-82"/>
      <point x="92" y="-108"/>
      <point x="43" y="-108" type="curve"/>
      <point x="43" y="-110" type="line"/>
    </contour>
  </outline>
</glyph>
<glyph name="exclamdown" format="1">
  <advance width="234"/>
  <unicode hex="00A1"/>
  <outline>
    <contour>
      <point x="117" y="254" type="line"/>
      <point x="54" y="-188" type="line"/>
      <point x="56" y="-188" type="line"/>
      <point x="119" y="254" type="line"/>
    </contour>
    <component base="period" xOffset="120" yOffset="428"/>
  </outline>
</glyph>
<glyph name="yen" format="1">
  <advance width="469"/>
  <unicode hex="00A5"/>
  <outline>
    <contour>
      <point x="497" y="660" type="line"/>
      <point x="243" y="321" type="line"/>
      <point x="84" y="660" type="line"/>
      <point x="81" y="660" type="line"/>
      <point x="242" y="319" type="line"/>
      <point x="198" y="0" type="line"/>
      <point x="200" y="0" type="line"/>
      <point x="244" y="319" type="line"/>
      <point x="500" y="660" type="line"/>
    </contour>
    <contour>
      <point x="95" y="186" type="line"/>
      <point x="95" y="184" type="line"/>
      <point x="357" y="184" type="line"/>
      <point x="357" y="186" type="line"/>
    </contour>
    <contour>
      <point x="114" y="319" type="line"/>
      <point x="114" y="317" type="line"/>
      <point x="376" y="317" type="line"/>
      <point x="376" y="319" type="line"/>
    </contour>
  </outline>
</glyph>
<glyph name="dieresis" format="1">
  <advance width="221"/>
  <unicode hex="00A8"/>
  <outline>
    <contour>
      <point x="241" y="691"/>
      <point x="239" y="688"/>
      <point x="239" y="685" type="curve" smooth="yes"/>
      <point x="239" y="682"/>
      <point x="241" y="679"/>
      <point x="245" y="679" type="curve" smooth="yes"/>
      <point x="249" y="679"/>
      <point x="251" y="682"/>
      <point x="251" y="685" type="curve" smooth="yes"/>
      <point x="251" y="688"/>
      <point x="249" y="691"/>
      <point x="245" y="691" type="curve" smooth="yes"/>
    </contour>
    <contour>
      <point x="92" y="691"/>
      <point x="90" y="688"/>
      <point x="90" y="685" type="curve" smooth="yes"/>
      <point x="90" y="682"/>
      <point x="92" y="679"/>
      <point x="96" y="679" type="curve" smooth="yes"/>
      <point x="100" y="679"/>
      <point x="102" y="682"/>
      <point x="102" y="685" type="curve" smooth="yes"/>
      <point x="102" y="688"/>
      <point x="100" y="691"/>
      <point x="96" y="691" type="curve" smooth="yes"/>
    </contour>
    <contour>
      <point x="162" y="607" type="move" name="top"/>
    </contour>
    <contour>
      <point x="157" y="517" type="move" name="_top"/>
    </contour>
  </outline>
</glyph>
<glyph name="ordfeminine" format="1">
  <advance width="500"/>
  <unicode hex="00AA"/>
  <outline>
    <contour>
      <point x="267" y="680"/>
      <point x="228" y="672"/>
      <point x="183" y="655" type="curve"/>
      <point x="183" y="653" type="line"/>
      <point x="229" y="670"/>
      <point x="268" y="678"/>
      <point x="304" y="678" type="curve" smooth="yes"/>
      <point x="377" y="678"/>
      <point x="401" y="645"/>
      <point x="401" y="593" type="curve" smooth="yes"/>
      <point x="401" y="583"/>
      <point x="400" y="574"/>
      <point x="399" y="564" type="curve"/>
      <point x="392" y="513" type="line"/>
      <point x="293" y="513" type="line" smooth="yes"/>
      <point x="186" y="513"/>
      <point x="115" y="462"/>
      <point x="115" y="373" type="curve" smooth="yes"/>
      <point x="115" y="317"/>
      <point x="152" y="278"/>
      <point x="221" y="278" type="curve" smooth="yes"/>
      <point x="289" y="278"/>
      <point x="335" y="308"/>
      <point x="371" y="363" type="curve"/>
      <point x="366" y="328"/>
      <point x="359" y="290"/>
      <point x="403" y="278" type="curve"/>
      <point x="404" y="280" type="line"/>
      <point x="361" y="292"/>
      <point x="368" y="326"/>
      <point x="374" y="368" type="curve" smooth="yes"/>
      <point x="401" y="564" type="line"/>
      <point x="402" y="574"/>
      <point x="403" y="584"/>
      <point x="403" y="593" type="curve" smooth="yes"/>
      <point x="403" y="648"/>
      <point x="376" y="680"/>
      <point x="304" y="680" type="curve" smooth="yes"/>
    </contour>
    <contour>
      <point x="372" y="368" type="line"/>
      <point x="335" y="312"/>
      <point x="292" y="280"/>
      <point x="221" y="280" type="curve" smooth="yes"/>
      <point x="153" y="280"/>
      <point x="117" y="318"/>
      <point x="117" y="373" type="curve" smooth="yes"/>
      <point x="117" y="461"/>
      <point x="187" y="511"/>
      <point x="293" y="511" type="curve" smooth="yes"/>
      <point x="392" y="511" type="line"/>
    </contour>
    <component base="minus" xOffset="-38" yOffset="-330"/>
  </outline>
</glyph>
<glyph name="logicalnot" format="1">
  <advance width="488"/>
  <unicode hex="00AC"/>
  <outline>
    <contour>
      <point x="95" y="322" type="line"/>
      <point x="94" y="320" type="line"/>
      <point x="410" y="320" type="line"/>
      <point x="395" y="215" type="line"/>
      <point x="397" y="215" type="line"/>
      <point x="413" y="322" type="line"/>
    </contour>
  </outline>
</glyph>
<glyph name="macron" format="1">
  <advance width="250"/>
  <unicode hex="00AF"/>
  <outline>
    <contour>
      <point x="280" y="691" type="line"/>
      <point x="90" y="691" type="line"/>
      <point x="90" y="689" type="line"/>
      <point x="280" y="689" type="line"/>
    </contour>
    <contour>
      <point x="161" y="517" type="move" name="_top"/>
    </contour>
  </outline>
</glyph>
<glyph name="acute" format="1">
  <advance width="228"/>
  <unicode hex="00B4"/>
  <outline>
    <contour>
      <point x="87" y="664" type="line"/>
      <point x="87" y="662" type="line"/>
      <point x="266" y="744" type="line"/>
      <point x="265" y="746" type="line"/>
    </contour>
    <contour>
      <point x="155" y="517" type="move" name="_top"/>
    </contour>
  </outline>
</glyph>
<glyph name="cedilla" format="1">
  <advance width="189"/>
  <unicode hex="00B8"/>
  <outline>
    <contour>
      <point x="34" y="-7" type="line"/>
      <point x="19" y="-84" type="line"/>
      <point x="75" y="-85"/>
      <point x="102" y="-101"/>
      <point x="102" y="-136" type="curve" smooth="yes"/>
      <point x="102" y="-165"/>
      <point x="82" y="-200"/>
      <point x="27" y="-200" type="curve" smooth="yes"/>
      <point x="0" y="-200"/>
      <point x="-17" y="-195"/>
      <point x="-32" y="-184" type="curve"/>
      <point x="-33" y="-186" type="line"/>
      <point x="-18" y="-196"/>
      <point x="-2" y="-202"/>
      <point x="27" y="-202" type="curve" smooth="yes"/>
      <point x="80" y="-202"/>
      <point x="104" y="-170"/>
      <point x="104" y="-136" type="curve" smooth="yes"/>
      <point x="104" y="-98"/>
      <point x="73" y="-84"/>
      <point x="21" y="-83" type="curve"/>
      <point x="36" y="-7" type="line"/>
    </contour>
    <contour>
      <point x="44" y="0" type="move" name="_bottom"/>
    </contour>
  </outline>
</glyph>
<glyph name="Eth" format="1">
  <advance width="604"/>
  <unicode hex="00D0"/>
  <outline>
    <contour>
      <point x="137" y="354" type="line"/>
      <point x="43" y="354" type="line"/>
      <point x="43" y="352" type="line"/>
      <point x="335" y="352" type="line"/>
      <point x="335" y="354" type="line"/>
    </contour>
    <component base="D" xOffset="-8"/>
  </outline>
</glyph>
<glyph name="Oslash" format="1">
  <advance width="687"/>
  <unicode hex="00D8"/>
  <outline>
    <contour>
      <point x="496" y="672" type="line"/>
      <point x="496" y="672" type="line"/>
      <point x="212" y="11" type="line"/>
      <point x="212" y="11" type="line"/>
      <point x="162" y="-102" type="line"/>
      <point x="164" y="-103" type="line"/>
      <point x="214" y="10" type="line"/>
      <point x="214" y="10" type="line"/>
      <point x="498" y="671" type="line"/>
      <point x="498" y="671" type="line"/>
      <point x="548" y="786" type="line"/>
      <point x="547" y="787" type="line"/>
    </contour>
    <contour>
      <point x="169" y="690"/>
      <point x="90" y="418"/>
      <point x="90" y="251" type="curve" smooth="yes"/>
      <point x="90" y="86"/>
      <point x="169" y="-9"/>
      <point x="306" y="-9" type="curve" smooth="yes"/>
      <point x="551" y="-9"/>
      <point x="621" y="261"/>
      <point x="621" y="429" type="curve" smooth="yes"/>
      <point x="621" y="596"/>
      <point x="541" y="690"/>
      <point x="403" y="690" type="curve" smooth="yes"/>
    </contour>
    <contour>
      <point x="540" y="688"/>
      <point x="619" y="595"/>
      <point x="619" y="429" type="curve" smooth="yes"/>
      <point x="619" y="265"/>
      <point x="550" y="-7"/>
      <point x="306" y="-7" type="curve" smooth="yes"/>
      <point x="170" y="-7"/>
      <point x="92" y="88"/>
      <point x="92" y="253" type="curve" smooth="yes"/>
      <point x="92" y="415"/>
      <point x="170" y="688"/>
      <point x="403" y="688" type="curve" smooth="yes"/>
    </contour>
    <contour>
      <point x="403" y="680" type="move" name="top"/>
    </contour>
  </outline>
</glyph>
<glyph name="Thorn" format="1">
  <advance width="553"/>
  <unicode hex="00DE"/>
  <outline>
    <contour>
      <point x="171" y="550" type="line"/>
      <point x="172" y="548" type="line"/>
      <point x="292" y="548" type="line" smooth="yes"/>
      <point x="433" y="548"/>
      <point x="501" y="503"/>
      <point x="501" y="383" type="curve" smooth="yes"/>
      <point x="501" y="276"/>
      <point x="447" y="156"/>
      <point x="234" y="156" type="curve" smooth="yes"/>
      <point x="116" y="156" type="line"/>
      <point x="116" y="154" type="line"/>
      <point x="234" y="154" type="line" smooth="yes"/>
      <point x="445" y="154"/>
      <point x="503" y="272"/>
      <point x="503" y="383" type="curve" smooth="yes"/>
      <point x="503" y="505"/>
      <point x="434" y="550"/>
      <point x="293" y="550" type="curve" smooth="yes"/>
    </contour>
    <contour>
      <point x="189" y="680" type="line"/>
      <point x="94" y="0" type="line"/>
      <point x="96" y="0" type="line"/>
      <point x="191" y="680" type="line"/>
    </contour>
  </outline>
</glyph>
<glyph name="germandbls" format="1">
  <advance width="569"/>
  <unicode hex="00DF"/>
  <outline>
    <contour>
      <point x="330" y="495"/>
      <point x="478" y="500"/>
      <point x="478" y="631" type="curve" smooth="yes"/>
      <point x="478" y="690"/>
      <point x="434" y="733"/>
      <point x="359" y="733" type="curve" smooth="yes"/>
      <point x="264" y="733"/>
      <point x="181" y="663"/>
      <point x="164" y="541" type="curve" smooth="yes"/>
      <point x="88" y="1" type="line" smooth="yes"/>
      <point x="71" y="-117"/>
      <point x="38" y="-153"/>
      <point x="-36" y="-190" type="curve"/>
      <point x="-35" y="-191" type="line"/>
      <point x="40" y="-154"/>
      <point x="73" y="-118"/>
      <point x="90" y="0" type="curve" smooth="yes"/>
      <point x="166" y="541" type="line" smooth="yes"/>
      <point x="182" y="662"/>
      <point x="265" y="731"/>
      <point x="359" y="731" type="curve" smooth="yes"/>
      <point x="434" y="731"/>
      <point x="476" y="688"/>
      <point x="476" y="631" type="curve" smooth="yes"/>
      <point x="476" y="501"/>
      <point x="328" y="496"/>
      <point x="328" y="411" type="curve" smooth="yes"/>
      <point x="328" y="329"/>
      <point x="488" y="309"/>
      <point x="488" y="150" type="curve" smooth="yes"/>
      <point x="488" y="89"/>
      <point x="448" y="-8"/>
      <point x="332" y="-8" type="curve" smooth="yes"/>
      <point x="289" y="-8"/>
      <point x="247" y="6"/>
      <point x="226" y="20" type="curve"/>
      <point x="225" y="18" type="line"/>
      <point x="245" y="5"/>
      <point x="288" y="-10"/>
      <point x="332" y="-10" type="curve" smooth="yes"/>
      <point x="449" y="-10"/>
      <point x="490" y="88"/>
      <point x="490" y="150" type="curve" smooth="yes"/>
      <point x="491" y="310"/>
      <point x="330" y="330"/>
      <point x="330" y="411" type="curve" smooth="yes"/>
    </contour>
  </outline>
</glyph>
<glyph name="ae" format="1">
  <advance width="851"/>
  <unicode hex="00E6"/>
  <outline>
    <contour>
      <point x="255" y="527"/>
      <point x="207" y="516"/>
      <point x="149" y="493" type="curve"/>
      <point x="149" y="491" type="line"/>
      <point x="208" y="514"/>
      <point x="255" y="525"/>
      <point x="301" y="525" type="curve" smooth="yes"/>
      <point x="370" y="525"/>
      <point x="436" y="482"/>
      <point x="437" y="378" type="curve"/>
      <point x="424" y="348"/>
      <point x="418" y="328"/>
      <point x="410" y="295" type="curve"/>
      <point x="286" y="295" type="line" smooth="yes"/>
      <point x="125" y="295"/>
      <point x="62" y="214"/>
      <point x="62" y="119" type="curve" smooth="yes"/>
      <point x="62" y="45"/>
      <point x="106" y="-9"/>
      <point x="193" y="-9" type="curve" smooth="yes"/>
      <point x="279" y="-9"/>
      <point x="337" y="32"/>
      <point x="405" y="123" type="curve"/>
      <point x="424" y="39"/>
      <point x="477" y="-9"/>
      <point x="561" y="-9" type="curve" smooth="yes"/>
      <point x="626" y="-9"/>
      <point x="671" y="12"/>
      <point x="723" y="50" type="curve"/>
      <point x="722" y="52" type="line"/>
      <point x="670" y="14"/>
      <point x="626" y="-7"/>
      <point x="561" y="-7" type="curve" smooth="yes"/>
      <point x="419" y="-7"/>
      <point x="394" y="132"/>
      <point x="400" y="218" type="curve"/>
      <point x="670" y="231"/>
      <point x="787" y="306"/>
      <point x="787" y="414" type="curve" smooth="yes"/>
      <point x="787" y="488"/>
      <point x="722" y="527"/>
      <point x="647" y="527" type="curve" smooth="yes"/>
      <point x="503" y="527"/>
      <point x="452" y="409"/>
      <point x="439" y="382" type="curve"/>
      <point x="437" y="484"/>
      <point x="369" y="527"/>
      <point x="301" y="527" type="curve" smooth="yes"/>
    </contour>
    <contour>
      <point x="393" y="219"/>
      <point x="394" y="170"/>
      <point x="404" y="125" type="curve"/>
      <point x="337" y="37"/>
      <point x="281" y="-7"/>
      <point x="193" y="-7" type="curve" smooth="yes"/>
      <point x="107" y="-7"/>
      <point x="64" y="46"/>
      <point x="64" y="119" type="curve" smooth="yes"/>
      <point x="64" y="213"/>
      <point x="126" y="293"/>
      <point x="286" y="293" type="curve" smooth="yes"/>
      <point x="409" y="293" type="line"/>
    </contour>
    <contour>
      <point x="721" y="525"/>
      <point x="785" y="487"/>
      <point x="785" y="414" type="curve" smooth="yes"/>
      <point x="785" y="308"/>
      <point x="670" y="233"/>
      <point x="400" y="220" type="curve"/>
      <point x="407" y="301"/>
      <point x="448" y="525"/>
      <point x="647" y="525" type="curve" smooth="yes"/>
    </contour>
    <contour>
      <point x="666" y="10" type="move" name="ogonek"/>
    </contour>
    <contour>
      <point x="551" y="0" type="move" name="bottom"/>
    </contour>
    <contour>
      <point x="464" y="517" type="move" name="top"/>
    </contour>
  </outline>
</glyph>
<glyph name="eth" format="1">
  <advance width="541"/>
  <unicode hex="00F0"/>
  <outline>
    <contour>
      <point x="428" y="736" type="line"/>
      <point x="426" y="737" type="line"/>
      <point x="354" y="671" type="line"/>
      <point x="315" y="701"/>
      <point x="267" y="722"/>
      <point x="219" y="734" type="curve"/>
      <point x="218" y="732" type="line"/>
      <point x="266" y="720"/>
      <point x="314" y="699"/>
      <point x="352" y="670" type="curve"/>
      <point x="251" y="577" type="line"/>
      <point x="253" y="576" type="line"/>
      <point x="354" y="669" type="line"/>
      <point x="466" y="583"/>
      <point x="476" y="451"/>
      <point x="464" y="337" type="curve"/>
      <point x="427" y="408"/>
      <point x="371" y="457"/>
      <point x="288" y="457" type="curve" smooth="yes"/>
      <point x="130" y="457"/>
      <point x="72" y="279"/>
      <point x="72" y="174" type="curve" smooth="yes"/>
      <point x="72" y="63"/>
      <point x="127" y="-9"/>
      <point x="227" y="-9" type="curve" smooth="yes"/>
      <point x="351" y="-9"/>
      <point x="432" y="93"/>
      <point x="464" y="322" type="curve" smooth="yes"/>
      <point x="468" y="353"/>
      <point x="470" y="382"/>
      <point x="470" y="409" type="curve" smooth="yes"/>
      <point x="470" y="527"/>
      <point x="431" y="612"/>
      <point x="356" y="670" type="curve"/>
    </contour>
    <contour>
      <point x="128" y="-7"/>
      <point x="74" y="64"/>
      <point x="74" y="174" type="curve" smooth="yes"/>
      <point x="74" y="278"/>
      <point x="131" y="455"/>
      <point x="288" y="455" type="curve" smooth="yes"/>
      <point x="372" y="455"/>
      <point x="426" y="406"/>
      <point x="463" y="334" type="curve"/>
      <point x="462" y="322"/>
      <point x="459" y="302"/>
      <point x="454" y="275" type="curve" smooth="yes"/>
      <point x="420" y="93"/>
      <point x="349" y="-7"/>
      <point x="227" y="-7" type="curve" smooth="yes"/>
    </contour>
  </outline>
</glyph>
<glyph name="oslash" format="1">
  <advance width="559"/>
  <unicode hex="00F8"/>
  <outline>
    <contour>
      <point x="396" y="511" type="line"/>
      <point x="374" y="521"/>
      <point x="347" y="527"/>
      <point x="318" y="527" type="curve" smooth="yes"/>
      <point x="136" y="527"/>
      <point x="75" y="325"/>
      <point x="75" y="192" type="curve" smooth="yes"/>
      <point x="75" y="102"/>
      <point x="106" y="39"/>
      <point x="161" y="9" type="curve"/>
      <point x="104" y="-112" type="line"/>
      <point x="106" y="-112" type="line"/>
      <point x="163" y="8" type="line"/>
      <point x="186" y="-3"/>
      <point x="212" y="-9"/>
      <point x="242" y="-9" type="curve" smooth="yes"/>
      <point x="426" y="-9"/>
      <point x="484" y="198"/>
      <point x="484" y="328" type="curve" smooth="yes"/>
      <point x="484" y="418"/>
      <point x="454" y="481"/>
      <point x="398" y="510" type="curve"/>
      <point x="454" y="630" type="line"/>
      <point x="452" y="630" type="line"/>
    </contour>
    <contour>
      <point x="347" y="525"/>
      <point x="373" y="519"/>
      <point x="395" y="509" type="curve"/>
      <point x="162" y="11" type="line"/>
      <point x="107" y="40"/>
      <point x="77" y="103"/>
      <point x="77" y="192" type="curve"/>
      <point x="77" y="324"/>
      <point x="137" y="525"/>
      <point x="318" y="525" type="curve" smooth="yes"/>
    </contour>
    <contour>
      <point x="452" y="479"/>
      <point x="482" y="418"/>
      <point x="482" y="328" type="curve" smooth="yes"/>
      <point x="482" y="199"/>
      <point x="425" y="-7"/>
      <point x="242" y="-7" type="curve" smooth="yes"/>
      <point x="212" y="-7"/>
      <point x="186" y="-1"/>
      <point x="164" y="10" type="curve"/>
      <point x="397" y="508" type="line"/>
    </contour>
    <contour>
      <point x="316" y="517" type="move" name="top"/>
    </contour>
  </outline>
</glyph>
<glyph name="thorn" format="1">
  <advance width="567.716"/>
  <unicode hex="00FE"/>
  <outline>
    <contour>
      <point x="258" y="527"/>
      <point x="199.409" y="482.089"/>
      <point x="149.79" y="422.173" type="curve"/>
      <point x="193" y="730" type="line"/>
      <point x="191" y="730" type="line"/>
      <point x="61.9999" y="-190" type="line"/>
      <point x="63.9999" y="-189" type="line"/>
      <point x="94.1835" y="26.029" type="line"/>
      <point x="149.047" y="1.7153"/>
      <point x="188.796" y="-9"/>
      <point x="247" y="-9" type="curve" smooth="yes"/>
      <point x="423" y="-9"/>
      <point x="487" y="207"/>
      <point x="487" y="339" type="curve" smooth="yes"/>
      <point x="487" y="459"/>
      <point x="437" y="527"/>
      <point x="341" y="527" type="curve" smooth="yes"/>
    </contour>
    <contour>
      <point x="190.15" y="-7"/>
      <point x="151.198" y="2.9498"/>
      <point x="94.4335" y="27.8102" type="curve"/>
      <point x="149.443" y="419.7" type="line"/>
      <point x="203.981" y="483.731"/>
      <point x="259.717" y="525"/>
      <point x="341" y="525" type="curve" smooth="yes"/>
      <point x="436" y="525"/>
      <point x="485" y="458"/>
      <point x="485" y="339" type="curve" smooth="yes"/>
      <point x="485" y="208"/>
      <point x="422" y="-7"/>
      <point x="247" y="-7" type="curve" smooth="yes"/>
    </contour>
  </outline>
</glyph>
<glyph name="dcroat" format="1">
  <advance width="571"/>
  <unicode hex="0111"/>
  <outline>
    <contour>
      <point x="317" y="640" type="line"/>
      <point x="317" y="638" type="line"/>
      <point x="499" y="638" type="line"/>
      <point x="574" y="638" type="line"/>
      <point x="574" y="640" type="line"/>
    </contour>
    <component base="d"/>
  </outline>
</glyph>
<glyph name="Hbar" format="1">
  <advance width="668"/>
  <unicode hex="0126"/>
  <outline>
    <contour>
      <point x="567" y="528" type="line"/>
      <point x="122" y="528" type="line"/>
      <point x="122" y="526" type="line"/>
      <point x="175" y="526" type="line"/>
      <point x="620" y="526" type="line"/>
      <point x="620" y="528" type="line"/>
    </contour>
    <component base="H" xOffset="7"/>
  </outline>
</glyph>
<glyph name="hbar" format="1">
  <advance width="580"/>
  <unicode hex="0127"/>
  <outline>
    <contour>
      <point x="105" y="640" type="line"/>
      <point x="105" y="638" type="line"/>
      <point x="179" y="638" type="line"/>
      <point x="373" y="638" type="line"/>
      <point x="373" y="640" type="line"/>
    </contour>
    <component base="h"/>
  </outline>
</glyph>
<glyph name="kgreenlandic" format="1">
  <advance width="446"/>
  <unicode hex="0138"/>
  <outline>
    <contour>
      <point x="427" y="517" type="line"/>
      <point x="134" y="273" type="line"/>
      <point x="382" y="0" type="line"/>
      <point x="385" y="0" type="line"/>
      <point x="137" y="273" type="line"/>
      <point x="430" y="517" type="line"/>
    </contour>
    <contour>
      <point x="161" y="517" type="line"/>
      <point x="89" y="0" type="line"/>
      <point x="91" y="0" type="line"/>
      <point x="163" y="517" type="line"/>
    </contour>
  </outline>
</glyph>
<glyph name="Lslash" format="1">
  <advance width="455"/>
  <unicode hex="0141"/>
  <outline>
    <contour>
      <point x="106" y="2" type="line"/>
      <point x="151" y="325" type="line"/>
      <point x="379" y="454" type="line"/>
      <point x="378" y="456" type="line"/>
      <point x="151" y="327" type="line"/>
      <point x="201" y="680" type="line"/>
      <point x="199" y="680" type="line"/>
      <point x="149" y="326" type="line"/>
      <point x="64" y="278" type="line"/>
      <point x="65" y="276" type="line"/>
      <point x="149" y="324" type="line"/>
      <point x="104" y="0" type="line"/>
      <point x="394" y="0" type="line"/>
      <point x="394" y="2" type="line"/>
    </contour>
  </outline>
</glyph>
<glyph name="Eng" format="1">
  <advance width="654"/>
  <unicode hex="014A"/>
  <outline>
    <contour>
      <point x="486" y="1" type="line"/>
      <point x="470" y="-117"/>
      <point x="436" y="-153"/>
      <point x="362" y="-189" type="curve"/>
      <point x="363" y="-191" type="line"/>
      <point x="438" y="-154"/>
      <point x="471" y="-119"/>
      <point x="488" y="0" type="curve"/>
    </contour>
    <contour>
      <point x="581" y="680" type="line"/>
      <point x="505" y="136" type="line"/>
      <point x="499" y="95"/>
      <point x="492" y="45"/>
      <point x="486" y="4" type="curve"/>
      <point x="192" y="680" type="line"/>
      <point x="189" y="680" type="line"/>
      <point x="94" y="0" type="line"/>
      <point x="96" y="0" type="line"/>
      <point x="176" y="572" type="line"/>
      <point x="183" y="622"/>
      <point x="187" y="650"/>
      <point x="191" y="677" type="curve"/>
      <point x="485" y="0" type="line"/>
      <point x="488" y="0" type="line"/>
      <point x="583" y="680" type="line"/>
    </contour>
    <contour>
      <point x="390" y="680" type="move" name="top"/>
    </contour>
    <contour>
      <point x="285" y="0" type="move" name="bottom"/>
    </contour>
  </outline>
</glyph>
<glyph name="OE" format="1">
  <advance width="839"/>
  <unicode hex="0152"/>
  <outline>
    <contour>
      <point x="171" y="690"/>
      <point x="90" y="418"/>
      <point x="90" y="247" type="curve" smooth="yes"/>
      <point x="90" y="84"/>
      <point x="163" y="-9"/>
      <point x="288" y="-9" type="curve" smooth="yes"/>
      <point x="317" y="-9"/>
      <point x="340" y="-5"/>
      <point x="361" y="1" type="curve"/>
      <point x="538" y="52"/>
      <point x="593" y="297"/>
      <point x="593" y="438" type="curve" smooth="yes"/>
      <point x="593" y="562"/>
      <point x="547" y="650"/>
      <point x="458" y="679" type="curve"/>
      <point x="441" y="685"/>
      <point x="414" y="690"/>
      <point x="385" y="690" type="curve" smooth="yes"/>
    </contour>
    <contour>
      <point x="362" y="2" type="line"/>
      <point x="357" y="0" type="line"/>
      <point x="753" y="0" type="line"/>
      <point x="753" y="2" type="line"/>
    </contour>
    <contour>
      <point x="588" y="362" type="line"/>
      <point x="588" y="360" type="line"/>
      <point x="751" y="360" type="line"/>
      <point x="751" y="362" type="line"/>
    </contour>
    <contour>
      <point x="454" y="680" type="line"/>
      <point x="459" y="678" type="line"/>
      <point x="838" y="678" type="line"/>
      <point x="838" y="680" type="line"/>
    </contour>
    <contour>
      <point x="517" y="688"/>
      <point x="591" y="594"/>
      <point x="591" y="438" type="curve" smooth="yes"/>
      <point x="591" y="287"/>
      <point x="527" y="-7"/>
      <point x="288" y="-7" type="curve" smooth="yes"/>
      <point x="164" y="-7"/>
      <point x="92" y="86"/>
      <point x="92" y="248" type="curve" smooth="yes"/>
      <point x="92" y="412"/>
      <point x="171" y="688"/>
      <point x="385" y="688" type="curve" smooth="yes"/>
    </contour>
  </outline>
</glyph>
<glyph name="oe" format="1">
  <advance width="926"/>
  <unicode hex="0153"/>
  <outline>
    <contour>
      <point x="136" y="527"/>
      <point x="75" y="325"/>
      <point x="75" y="192" type="curve" smooth="yes"/>
      <point x="75" y="65"/>
      <point x="136" y="-9"/>
      <point x="242" y="-9" type="curve" smooth="yes"/>
      <point x="426" y="-9"/>
      <point x="484" y="198"/>
      <point x="484" y="328" type="curve" smooth="yes"/>
      <point x="484" y="455"/>
      <point x="423" y="527"/>
      <point x="318" y="527" type="curve" smooth="yes"/>
    </contour>
    <contour>
      <point x="422" y="525"/>
      <point x="482" y="454"/>
      <point x="482" y="328" type="curve" smooth="yes"/>
      <point x="482" y="199"/>
      <point x="425" y="-7"/>
      <point x="242" y="-7" type="curve" smooth="yes"/>
      <point x="137" y="-7"/>
      <point x="77" y="66"/>
      <point x="77" y="192" type="curve" smooth="yes"/>
      <point x="77" y="324"/>
      <point x="137" y="525"/>
      <point x="318" y="525" type="curve" smooth="yes"/>
    </contour>
    <contour>
      <point x="530" y="527"/>
      <point x="472" y="310"/>
      <point x="472" y="190" type="curve"/>
      <point x="472" y="61"/>
      <point x="534" y="-9"/>
      <point x="636" y="-9" type="curve"/>
      <point x="701" y="-9"/>
      <point x="746" y="12"/>
      <point x="798" y="50" type="curve"/>
      <point x="797" y="52" type="line"/>
      <point x="745" y="14"/>
      <point x="701" y="-7"/>
      <point x="636" y="-7" type="curve"/>
      <point x="535" y="-7"/>
      <point x="474" y="62"/>
      <point x="474" y="190" type="curve"/>
      <point x="474" y="310"/>
      <point x="532" y="525"/>
      <point x="722" y="525" type="curve"/>
      <point x="796" y="525"/>
      <point x="860" y="487"/>
      <point x="860" y="414" type="curve"/>
      <point x="860" y="308"/>
      <point x="745" y="233"/>
      <point x="474" y="220" type="curve"/>
      <point x="474" y="218" type="line"/>
      <point x="745" y="231"/>
      <point x="862" y="306"/>
      <point x="862" y="414" type="curve"/>
      <point x="862" y="488"/>
      <point x="797" y="527"/>
      <point x="722" y="527" type="curve"/>
    </contour>
    <contour>
      <point x="513" y="517" type="move" name="top"/>
    </contour>
  </outline>
</glyph>
<glyph name="tbar" format="1">
  <advance width="322"/>
  <unicode hex="0167"/>
  <outline>
    <contour>
      <point x="129" y="335" type="line"/>
      <point x="42" y="335" type="line"/>
      <point x="42" y="333" type="line"/>
      <point x="277" y="333" type="line"/>
      <point x="277" y="335" type="line"/>
    </contour>
    <component base="t"/>
  </outline>
</glyph>
<glyph name="uni0196" format="1">
  <advance width="313"/>
  <unicode hex="0196"/>
  <outline>
    <contour>
      <point x="179" y="680" type="line"/>
      <point x="109" y="183" type="line"/>
      <point x="111" y="183" type="line"/>
      <point x="181" y="680" type="line"/>
    </contour>
    <component base="hookHELPERright.case" xOffset="102" yOffset="183"/>
  </outline>
</glyph>
<glyph name="uni01C3" format="1">
  <advance width="274"/>
  <unicode hex="01C3"/>
  <outline>
    <contour>
      <point x="201" y="730" type="line"/>
      <point x="125" y="188" type="line"/>
      <point x="127" y="188" type="line"/>
      <point x="203" y="730" type="line"/>
    </contour>
    <component base="period" xOffset="78"/>
  </outline>
</glyph>
<glyph name="uni024A" format="1">
  <advance width="639"/>
  <unicode hex="024A"/>
  <outline>
    <contour>
      <point x="372" y="-9"/>
      <point x="435" y="29"/>
      <point x="487" y="97" type="curve"/>
      <point x="487" y="100" type="line"/>
      <point x="434" y="31"/>
      <point x="372" y="-7"/>
      <point x="288" y="-7" type="curve" smooth="yes"/>
      <point x="170" y="-7"/>
      <point x="92" y="83"/>
      <point x="92" y="246" type="curve" smooth="yes"/>
      <point x="92" y="456"/>
      <point x="199" y="688"/>
      <point x="391" y="688" type="curve" smooth="yes"/>
      <point x="475" y="688"/>
      <point x="527" y="647"/>
      <point x="558" y="597" type="curve"/>
      <point x="558" y="600" type="line"/>
      <point x="528" y="649"/>
      <point x="475" y="690"/>
      <point x="391" y="690" type="curve" smooth="yes"/>
      <point x="198" y="690"/>
      <point x="90" y="457"/>
      <point x="90" y="246" type="curve" smooth="yes"/>
      <point x="90" y="82"/>
      <point x="169" y="-9"/>
      <point x="288" y="-9" type="curve" smooth="yes"/>
    </contour>
    <contour>
      <point x="475" y="0" type="line"/>
      <point x="569" y="680" type="line"/>
      <point x="567" y="680" type="line"/>
      <point x="557" y="600" type="line"/>
      <point x="486" y="98" type="line"/>
      <point x="473" y="0" type="line"/>
    </contour>
    <component base="hookHELPERright.case" xOffset="466"/>
  </outline>
</glyph>
<glyph name="uni0254" format="1">
  <advance width="471"/>
  <unicode hex="0254"/>
  <outline>
    <contour>
      <point x="315" y="-9"/>
      <point x="395" y="164"/>
      <point x="396" y="330" type="curve" smooth="yes"/>
      <point x="396" y="455"/>
      <point x="336" y="527"/>
      <point x="238" y="527" type="curve" smooth="yes"/>
      <point x="178" y="527"/>
      <point x="131" y="506"/>
      <point x="91" y="474" type="curve"/>
      <point x="92" y="472" type="line"/>
      <point x="131" y="504"/>
      <point x="178" y="525"/>
      <point x="238" y="525" type="curve" smooth="yes"/>
      <point x="335" y="525"/>
      <point x="393" y="454"/>
      <point x="394" y="330" type="curve" smooth="yes"/>
      <point x="393" y="165"/>
      <point x="314" y="-7"/>
      <point x="163" y="-7" type="curve" smooth="yes"/>
      <point x="96" y="-7"/>
      <point x="56" y="20"/>
      <point x="27" y="53" type="curve"/>
      <point x="26" y="51" type="line"/>
      <point x="55" y="18"/>
      <point x="96" y="-9"/>
      <point x="163" y="-9" type="curve" smooth="yes"/>
    </contour>
  </outline>
</glyph>
<glyph name="uni025C" format="1">
  <advance width="462"/>
  <unicode hex="025C"/>
  <outline>
    <component base="uni0437"/>
    <contour>
      <point x="370" y="517" type="move" name="topright"/>
    </contour>
  </outline>
</glyph>
<glyph name="uni0274" format="1">
  <advance width="578"/>
  <unicode hex="0274"/>
  <outline>
    <contour>
      <point x="487" y="517" type="line"/>
      <point x="431" y="113" type="line" smooth="yes"/>
      <point x="426" y="78"/>
      <point x="419" y="31"/>
      <point x="415" y="3" type="curve"/>
      <point x="164" y="517" type="line"/>
      <point x="161" y="517" type="line"/>
      <point x="89" y="0" type="line"/>
      <point x="91" y="0" type="line"/>
      <point x="151" y="430" type="line" smooth="yes"/>
      <point x="157" y="470"/>
      <point x="161" y="498"/>
      <point x="163" y="514" type="curve"/>
      <point x="414" y="0" type="line"/>
      <point x="417" y="0" type="line"/>
      <point x="489" y="517" type="line"/>
    </contour>
  </outline>
</glyph>
<glyph name="uni028B" format="1">
  <advance width="553"/>
  <unicode hex="028B"/>
  <outline>
    <contour>
      <point x="336" y="-9"/>
      <point x="426" y="71"/>
      <point x="453" y="258" type="curve" smooth="yes"/>
      <point x="481" y="454" type="line" smooth="yes"/>
      <point x="487" y="499"/>
      <point x="469" y="527"/>
      <point x="429" y="527" type="curve" smooth="yes"/>
      <point x="414" y="527"/>
      <point x="402" y="524"/>
      <point x="389" y="519" type="curve"/>
      <point x="389" y="517" type="line"/>
      <point x="402" y="522"/>
      <point x="414" y="525"/>
      <point x="429" y="525" type="curve" smooth="yes"/>
      <point x="468" y="525"/>
      <point x="485" y="498"/>
      <point x="479" y="454" type="curve" smooth="yes"/>
      <point x="451" y="258" type="line" smooth="yes"/>
      <point x="424" y="72"/>
      <point x="335" y="-7"/>
      <point x="229" y="-7" type="curve" smooth="yes"/>
      <point x="147" y="-7"/>
      <point x="93" y="47"/>
      <point x="107" y="153" type="curve" smooth="yes"/>
      <point x="158" y="517" type="line"/>
      <point x="156" y="517" type="line"/>
      <point x="105" y="153" type="line" smooth="yes"/>
      <point x="90" y="45"/>
      <point x="147" y="-9"/>
      <point x="229" y="-9" type="curve" smooth="yes"/>
    </contour>
  </outline>
</glyph>
<glyph name="uni028F" format="1">
  <advance width="392"/>
  <unicode hex="028F"/>
  <outline>
    <contour>
      <point x="406" y="517" type="line"/>
      <point x="190" y="214" type="line"/>
      <point x="58" y="517" type="line"/>
      <point x="56" y="517" type="line"/>
      <point x="189" y="212" type="line"/>
      <point x="160" y="0" type="line"/>
      <point x="162" y="0" type="line"/>
      <point x="191" y="212" type="line"/>
      <point x="408" y="517" type="line"/>
    </contour>
  </outline>
</glyph>
<glyph name="uni0290" format="1">
  <advance width="410"/>
  <unicode hex="0290"/>
  <outline>
    <contour>
      <point x="102" y="517" type="line"/>
      <point x="102" y="515" type="line"/>
      <point x="403" y="515" type="line"/>
      <point x="-1" y="2" type="line"/>
      <point x="-1" y="0" type="line"/>
      <point x="328" y="0" type="line"/>
      <point x="328" y="2" type="line"/>
      <point x="2" y="2" type="line"/>
      <point x="406" y="515" type="line"/>
      <point x="406" y="517" type="line"/>
    </contour>
    <component base="hookHELPERright" xOffset="319"/>
  </outline>
</glyph>
<glyph name="uni0299" format="1">
  <advance width="498"/>
  <unicode hex="0299"/>
  <outline>
    <contour>
      <point x="238" y="528"/>
      <point x="196" y="520"/>
      <point x="160" y="512" type="curve"/>
      <point x="88" y="0" type="line"/>
      <point x="224" y="0" type="line" smooth="yes"/>
      <point x="343" y="0"/>
      <point x="436" y="63"/>
      <point x="436" y="176" type="curve" smooth="yes"/>
      <point x="436" y="242"/>
      <point x="395" y="280"/>
      <point x="312" y="280" type="curve"/>
      <point x="386" y="283"/>
      <point x="439" y="337"/>
      <point x="439" y="417" type="curve" smooth="yes"/>
      <point x="439" y="480"/>
      <point x="402" y="528"/>
      <point x="296" y="528" type="curve" smooth="yes"/>
    </contour>
    <contour>
      <point x="401" y="526"/>
      <point x="437" y="479"/>
      <point x="437" y="417" type="curve" smooth="yes"/>
      <point x="437" y="338"/>
      <point x="385" y="281"/>
      <point x="300" y="281" type="curve" smooth="yes"/>
      <point x="129" y="281" type="line"/>
      <point x="129" y="279" type="line"/>
      <point x="305" y="279" type="line" smooth="yes"/>
      <point x="395" y="279"/>
      <point x="434" y="241"/>
      <point x="434" y="176" type="curve" smooth="yes"/>
      <point x="434" y="64"/>
      <point x="342" y="2"/>
      <point x="224" y="2" type="curve" smooth="yes"/>
      <point x="90" y="2" type="line"/>
      <point x="163" y="510" type="line"/>
      <point x="196" y="518"/>
      <point x="239" y="526"/>
      <point x="296" y="526" type="curve" smooth="yes"/>
    </contour>
  </outline>
</glyph>
<glyph name="uni029F" format="1">
  <advance width="396"/>
  <unicode hex="029F"/>
  <outline>
    <contour>
      <point x="161" y="517" type="line"/>
      <point x="89" y="0" type="line"/>
      <point x="340" y="0" type="line"/>
      <point x="340" y="2" type="line"/>
      <point x="91" y="2" type="line"/>
      <point x="163" y="517" type="line"/>
    </contour>
  </outline>
</glyph>
<glyph name="uni02A7" format="1">
  <advance width="533"/>
  <unicode hex="02A7"/>
  <outline>
    <contour>
      <point x="172" y="651" type="line"/>
      <point x="153" y="516" type="line"/>
      <point x="100" y="133" type="line" smooth="yes"/>
      <point x="86" y="40"/>
      <point x="125" y="-9"/>
      <point x="219" y="-9" type="curve" smooth="yes"/>
      <point x="277" y="-9"/>
      <point x="321" y="4"/>
      <point x="375" y="23" type="curve"/>
      <point x="375" y="25" type="line"/>
      <point x="322" y="6"/>
      <point x="277" y="-7"/>
      <point x="219" y="-7" type="curve" smooth="yes"/>
      <point x="126" y="-7"/>
      <point x="88" y="42"/>
      <point x="102" y="133" type="curve" smooth="yes"/>
      <point x="174" y="651" type="line"/>
    </contour>
    <contour>
      <point x="66" y="517" type="line"/>
      <point x="66" y="515" type="line"/>
      <point x="443" y="515" type="line"/>
      <point x="443" y="517" type="line"/>
    </contour>
    <component base="uni0283" xOffset="281"/>
  </outline>
</glyph>
<glyph name="uni02BC" format="1">
  <advance width="74"/>
  <unicode hex="02BC"/>
  <outline>
    <contour>
      <point x="99" y="733"/>
      <point x="97" y="731"/>
      <point x="97" y="728" type="curve" smooth="yes"/>
      <point x="97" y="725"/>
      <point x="99" y="723"/>
      <point x="102" y="723" type="curve"/>
      <point x="62" y="601" type="line"/>
      <point x="63" y="601" type="line"/>
      <point x="104" y="717" type="line" smooth="yes"/>
      <point x="106" y="722"/>
      <point x="107" y="726"/>
      <point x="107" y="728" type="curve" smooth="yes"/>
      <point x="107" y="731"/>
      <point x="105" y="733"/>
      <point x="102" y="733" type="curve" smooth="yes"/>
    </contour>
    <contour>
      <point x="80" y="517" type="move" name="_topleft"/>
    </contour>
  </outline>
</glyph>
<glyph name="circumflex" format="1">
  <advance width="278"/>
  <unicode hex="02C6"/>
  <outline>
    <contour>
      <point x="208" y="743" type="line"/>
      <point x="302" y="660" type="line"/>
      <point x="304" y="661" type="line"/>
      <point x="209" y="745" type="line"/>
      <point x="207" y="745" type="line"/>
      <point x="86" y="661" type="line"/>
      <point x="88" y="660" type="line"/>
    </contour>
    <contour>
      <point x="172" y="517" type="move" name="_top"/>
    </contour>
  </outline>
</glyph>
<glyph name="caron" format="1">
  <advance width="278"/>
  <unicode hex="02C7"/>
  <outline>
    <contour>
      <point x="193" y="650" type="line"/>
      <point x="99" y="733" type="line"/>
      <point x="97" y="732" type="line"/>
      <point x="192" y="648" type="line"/>
      <point x="194" y="648" type="line"/>
      <point x="315" y="732" type="line"/>
      <point x="313" y="733" type="line"/>
    </contour>
    <contour>
      <point x="172" y="517" type="move" name="_top"/>
    </contour>
  </outline>
</glyph>
<glyph name="dotaccent" format="1">
  <advance width="72"/>
  <unicode hex="02D9"/>
  <outline>
    <contour>
      <point x="93" y="706"/>
      <point x="91" y="703"/>
      <point x="91" y="700" type="curve" smooth="yes"/>
      <point x="91" y="697"/>
      <point x="93" y="694"/>
      <point x="97" y="694" type="curve" smooth="yes"/>
      <point x="101" y="694"/>
      <point x="103" y="697"/>
      <point x="103" y="700" type="curve" smooth="yes"/>
      <point x="103" y="703"/>
      <point x="101" y="706"/>
      <point x="97" y="706" type="curve" smooth="yes"/>
    </contour>
    <contour>
      <point x="97" y="700" type="move" name="_center"/>
    </contour>
    <contour>
      <point x="72" y="517" type="move" name="_top"/>
    </contour>
  </outline>
</glyph>
<glyph name="acutecomb" format="1">
  <advance width="227"/>
  <unicode hex="0301"/>
  <outline>
    <contour>
      <point x="111" y="647" type="line"/>
      <point x="112" y="645" type="line"/>
      <point x="287" y="714" type="line"/>
      <point x="286" y="716" type="line"/>
    </contour>
    <contour>
      <point x="176" y="517" type="move" name="_top"/>
    </contour>
  </outline>
</glyph>
<glyph name="uni030C" format="1">
  <advance width="278"/>
  <unicode hex="030C"/>
  <outline>
    <contour>
      <point x="218" y="641" type="line"/>
      <point x="123" y="719" type="line"/>
      <point x="121" y="718" type="line"/>
      <point x="217" y="639" type="line"/>
      <point x="219" y="639" type="line"/>
      <point x="339" y="718" type="line"/>
      <point x="337" y="719" type="line"/>
    </contour>
    <contour>
      <point x="207" y="517" type="move" name="_top"/>
    </contour>
  </outline>
</glyph>
<glyph name="dieresistonos" format="1">
  <advance width="221"/>
  <unicode hex="0385"/>
  <outline>
    <contour>
      <point x="171" y="696" type="line"/>
      <point x="173" y="696" type="line"/>
      <point x="218" y="804" type="line"/>
      <point x="216" y="804" type="line"/>
    </contour>
    <contour>
      <point x="88" y="661"/>
      <point x="86" y="658"/>
      <point x="86" y="655" type="curve" smooth="yes"/>
      <point x="86" y="652"/>
      <point x="88" y="649"/>
      <point x="92" y="649" type="curve" smooth="yes"/>
      <point x="96" y="649"/>
      <point x="98" y="652"/>
      <point x="98" y="655" type="curve" smooth="yes"/>
      <point x="98" y="658"/>
      <point x="96" y="661"/>
      <point x="92" y="661" type="curve" smooth="yes"/>
    </contour>
    <contour>
      <point x="237" y="661"/>
      <point x="235" y="658"/>
      <point x="235" y="655" type="curve" smooth="yes"/>
      <point x="235" y="652"/>
      <point x="237" y="649"/>
      <point x="241" y="649" type="curve" smooth="yes"/>
      <point x="245" y="649"/>
      <point x="247" y="652"/>
      <point x="247" y="655" type="curve" smooth="yes"/>
      <point x="247" y="658"/>
      <point x="245" y="661"/>
      <point x="241" y="661" type="curve" smooth="yes"/>
    </contour>
    <contour>
      <point x="147" y="517" type="move" name="_top"/>
    </contour>
  </outline>
</glyph>
<glyph name="Delta" format="1">
  <advance width="566"/>
  <unicode hex="0394"/>
  <outline>
    <contour>
      <point x="492" y="2" type="line"/>
      <point x="2" y="2" type="line"/>
      <point x="342" y="678" type="line"/>
    </contour>
    <contour>
      <point x="341" y="680" type="line"/>
      <point x="-1" y="0" type="line"/>
      <point x="495" y="0" type="line"/>
      <point x="343" y="680" type="line"/>
    </contour>
  </outline>
</glyph>
<glyph name="alpha" format="1">
  <advance width="571"/>
  <unicode hex="03B1"/>
  <outline>
    <contour>
      <point x="129" y="527"/>
      <point x="74" y="307"/>
      <point x="74" y="176" type="curve" smooth="yes"/>
      <point x="74" y="54"/>
      <point x="122" y="-9"/>
      <point x="207" y="-9" type="curve" smooth="yes"/>
      <point x="307" y="-9"/>
      <point x="366" y="58"/>
      <point x="432" y="263" type="curve"/>
      <point x="438" y="60" type="line" smooth="yes"/>
      <point x="439" y="12"/>
      <point x="451" y="6"/>
      <point x="470" y="-2" type="curve"/>
      <point x="470" y="0" type="line"/>
      <point x="451" y="8"/>
      <point x="441" y="16"/>
      <point x="440" y="60" type="curve" smooth="yes"/>
      <point x="434" y="266" type="line"/>
      <point x="527" y="517" type="line"/>
      <point x="525" y="517" type="line"/>
      <point x="433" y="270" type="line"/>
      <point x="434" y="463"/>
      <point x="393" y="527"/>
      <point x="292" y="527" type="curve" smooth="yes"/>
    </contour>
    <contour>
      <point x="392" y="525"/>
      <point x="432" y="460"/>
      <point x="431" y="267" type="curve"/>
      <point x="365" y="62"/>
      <point x="307" y="-7"/>
      <point x="208" y="-7" type="curve" smooth="yes"/>
      <point x="123" y="-7"/>
      <point x="76" y="54"/>
      <point x="76" y="176" type="curve" smooth="yes"/>
      <point x="76" y="306"/>
      <point x="130" y="525"/>
      <point x="292" y="525" type="curve" smooth="yes"/>
    </contour>
    <contour>
      <point x="301" y="517" type="move" name="top"/>
    </contour>
  </outline>
</glyph>
<glyph name="beta" format="1">
  <advance width="568"/>
  <unicode hex="03B2"/>
  <outline>
    <contour>
      <point x="261" y="733"/>
      <point x="182" y="669"/>
      <point x="164" y="541" type="curve" smooth="yes"/>
      <point x="61" y="-189" type="line"/>
      <point x="63" y="-189" type="line"/>
      <point x="103" y="89" type="line"/>
      <point x="137" y="20"/>
      <point x="198" y="-9"/>
      <point x="274" y="-9" type="curve" smooth="yes"/>
      <point x="434" y="-9"/>
      <point x="497" y="125"/>
      <point x="497" y="226" type="curve" smooth="yes"/>
      <point x="497" y="331"/>
      <point x="429" y="394"/>
      <point x="321" y="399" type="curve"/>
      <point x="444" y="406"/>
      <point x="505" y="495"/>
      <point x="505" y="592" type="curve" smooth="yes"/>
      <point x="505" y="686"/>
      <point x="442" y="733"/>
      <point x="363" y="733" type="curve" smooth="yes"/>
    </contour>
    <contour>
      <point x="441" y="731"/>
      <point x="503" y="685"/>
      <point x="503" y="592" type="curve" smooth="yes"/>
      <point x="503" y="496"/>
      <point x="440" y="400"/>
      <point x="304" y="400" type="curve" smooth="yes"/>
      <point x="237" y="400" type="line"/>
      <point x="236" y="398" type="line"/>
      <point x="303" y="398" type="line" smooth="yes"/>
      <point x="427" y="398"/>
      <point x="495" y="330"/>
      <point x="495" y="226" type="curve" smooth="yes"/>
      <point x="495" y="126"/>
      <point x="433" y="-7"/>
      <point x="274" y="-7" type="curve" smooth="yes"/>
      <point x="199" y="-7"/>
      <point x="138" y="21"/>
      <point x="103" y="93" type="curve"/>
      <point x="166" y="541" type="line" smooth="yes"/>
      <point x="183" y="668"/>
      <point x="262" y="731"/>
      <point x="363" y="731" type="curve" smooth="yes"/>
    </contour>
  </outline>
</glyph>
<glyph name="delta" format="1">
  <advance width="558"/>
  <unicode hex="03B4"/>
  <outline>
    <contour>
      <point x="250" y="733"/>
      <point x="183" y="673"/>
      <point x="183" y="608" type="curve" smooth="yes"/>
      <point x="183" y="548"/>
      <point x="216" y="518"/>
      <point x="302" y="483" type="curve"/>
      <point x="129" y="432"/>
      <point x="74" y="315"/>
      <point x="74" y="186" type="curve" smooth="yes"/>
      <point x="74" y="65"/>
      <point x="136" y="-9"/>
      <point x="244" y="-9" type="curve" smooth="yes"/>
      <point x="424" y="-9"/>
      <point x="477" y="170"/>
      <point x="477" y="286" type="curve" smooth="yes"/>
      <point x="477" y="388"/>
      <point x="427" y="435"/>
      <point x="305" y="484" type="curve" smooth="yes"/>
      <point x="217" y="519"/>
      <point x="185" y="549"/>
      <point x="185" y="608" type="curve" smooth="yes"/>
      <point x="185" y="672"/>
      <point x="251" y="731"/>
      <point x="338" y="731" type="curve" smooth="yes"/>
      <point x="403" y="731"/>
      <point x="442" y="714"/>
      <point x="483" y="684" type="curve"/>
      <point x="485" y="685" type="line"/>
      <point x="442" y="716"/>
      <point x="403" y="733"/>
      <point x="338" y="733" type="curve" smooth="yes"/>
    </contour>
    <contour>
      <point x="424" y="434"/>
      <point x="475" y="387"/>
      <point x="475" y="286" type="curve" smooth="yes"/>
      <point x="475" y="171"/>
      <point x="423" y="-7"/>
      <point x="244" y="-7" type="curve" smooth="yes"/>
      <point x="137" y="-7"/>
      <point x="76" y="66"/>
      <point x="76" y="186" type="curve" smooth="yes"/>
      <point x="76" y="308"/>
      <point x="125" y="429"/>
      <point x="305" y="482" type="curve"/>
    </contour>
  </outline>
</glyph>
<glyph name="epsilon" format="1">
  <advance width="448"/>
  <unicode hex="03B5"/>
  <outline>
    <contour>
      <point x="172" y="527"/>
      <point x="120" y="444"/>
      <point x="120" y="386" type="curve" smooth="yes"/>
      <point x="120" y="322"/>
      <point x="161" y="278"/>
      <point x="237" y="273" type="curve"/>
      <point x="107" y="268"/>
      <point x="62" y="189"/>
      <point x="62" y="123" type="curve" smooth="yes"/>
      <point x="62" y="41"/>
      <point x="121" y="-9"/>
      <point x="211" y="-9" type="curve"/>
      <point x="288" y="-9"/>
      <point x="335" y="13"/>
      <point x="379" y="49" type="curve"/>
      <point x="378" y="51" type="line"/>
      <point x="336" y="16"/>
      <point x="288" y="-7"/>
      <point x="211" y="-7" type="curve"/>
      <point x="121" y="-7"/>
      <point x="64" y="43"/>
      <point x="64" y="123" type="curve" smooth="yes"/>
      <point x="64" y="184"/>
      <point x="105" y="272"/>
      <point x="252" y="272" type="curve" smooth="yes"/>
      <point x="310" y="272" type="line"/>
      <point x="312" y="274" type="line"/>
      <point x="255" y="274" type="line" smooth="yes"/>
      <point x="163" y="274"/>
      <point x="122" y="323"/>
      <point x="122" y="386" type="curve" smooth="yes"/>
      <point x="122" y="443"/>
      <point x="173" y="525"/>
      <point x="293" y="525" type="curve"/>
      <point x="356" y="525"/>
      <point x="400" y="507"/>
      <point x="430" y="481" type="curve"/>
      <point x="432" y="482" type="line"/>
      <point x="404" y="506"/>
      <point x="361" y="527"/>
      <point x="293" y="527" type="curve"/>
    </contour>
    <contour>
      <point x="283" y="517" type="move" name="top"/>
    </contour>
  </outline>
</glyph>
<glyph name="zeta" format="1">
  <advance width="353"/>
  <unicode hex="03B6"/>
  <outline>
    <contour>
      <point x="115" y="727" type="line"/>
      <point x="115" y="725" type="line"/>
      <point x="325" y="726" type="line" smooth="yes"/>
      <point x="373" y="726"/>
      <point x="394" y="726"/>
      <point x="423" y="726" type="curve"/>
      <point x="145" y="524"/>
      <point x="56" y="348"/>
      <point x="56" y="208" type="curve" smooth="yes"/>
      <point x="56" y="114"/>
      <point x="110" y="79"/>
      <point x="189" y="49" type="curve" smooth="yes"/>
      <point x="284" y="13"/>
      <point x="312" y="-8"/>
      <point x="312" y="-59" type="curve" smooth="yes"/>
      <point x="312" y="-98"/>
      <point x="288" y="-142"/>
      <point x="192" y="-189" type="curve"/>
      <point x="193" y="-190" type="line"/>
      <point x="268" y="-153"/>
      <point x="314" y="-114"/>
      <point x="314" y="-59" type="curve" smooth="yes"/>
      <point x="314" y="-7"/>
      <point x="285" y="15"/>
      <point x="189" y="51" type="curve" smooth="yes"/>
      <point x="110" y="81"/>
      <point x="58" y="116"/>
      <point x="58" y="208" type="curve" smooth="yes"/>
      <point x="58" y="349"/>
      <point x="147" y="523"/>
      <point x="427" y="727" type="curve"/>
      <point x="427" y="728" type="line"/>
    </contour>
  </outline>
</glyph>
<glyph name="eta" format="1">
  <advance width="579"/>
  <unicode hex="03B7"/>
  <outline>
    <contour>
      <point x="276" y="527"/>
      <point x="193" y="424"/>
      <point x="144" y="331" type="curve"/>
      <point x="153" y="387"/>
      <point x="156" y="448"/>
      <point x="143" y="517" type="curve"/>
      <point x="141" y="517" type="line"/>
      <point x="155" y="447"/>
      <point x="151" y="385"/>
      <point x="141" y="325" type="curve" smooth="yes"/>
      <point x="88" y="0" type="line"/>
      <point x="90" y="0" type="line"/>
      <point x="143" y="325" type="line"/>
      <point x="193" y="422"/>
      <point x="276" y="525"/>
      <point x="370" y="525" type="curve" smooth="yes"/>
      <point x="456" y="525"/>
      <point x="487" y="466"/>
      <point x="473" y="368" type="curve" smooth="yes"/>
      <point x="394" y="-191" type="line"/>
      <point x="396" y="-190" type="line"/>
      <point x="475" y="368" type="line" smooth="yes"/>
      <point x="488" y="467"/>
      <point x="457" y="527"/>
      <point x="370" y="527" type="curve" smooth="yes"/>
    </contour>
    <contour>
      <point x="331" y="517" type="move" name="top"/>
    </contour>
  </outline>
</glyph>
<glyph name="theta" format="1">
  <advance width="550"/>
  <unicode hex="03B8"/>
  <outline>
    <contour>
      <point x="224" y="733"/>
      <point x="132" y="627"/>
      <point x="96" y="370" type="curve" smooth="yes"/>
      <point x="88" y="313"/>
      <point x="84" y="263"/>
      <point x="84" y="220" type="curve" smooth="yes"/>
      <point x="84" y="56"/>
      <point x="140" y="-9"/>
      <point x="237" y="-9" type="curve" smooth="yes"/>
      <point x="358" y="-9"/>
      <point x="446" y="93"/>
      <point x="485" y="370" type="curve" smooth="yes"/>
      <point x="492" y="419"/>
      <point x="495" y="463"/>
      <point x="495" y="502" type="curve" smooth="yes"/>
      <point x="495" y="663"/>
      <point x="437" y="733"/>
      <point x="343" y="733" type="curve" smooth="yes"/>
    </contour>
    <contour>
      <point x="444" y="95"/>
      <point x="357" y="-7"/>
      <point x="237" y="-7" type="curve" smooth="yes"/>
      <point x="141" y="-7"/>
      <point x="86" y="58"/>
      <point x="86" y="219" type="curve" smooth="yes"/>
      <point x="86" y="265"/>
      <point x="90" y="311"/>
      <point x="98" y="369" type="curve"/>
      <point x="483" y="369" type="line" smooth="yes"/>
    </contour>
    <contour>
      <point x="437" y="731"/>
      <point x="493" y="661"/>
      <point x="493" y="501" type="curve" smooth="yes"/>
      <point x="493" y="463"/>
      <point x="490" y="420"/>
      <point x="483" y="371" type="curve"/>
      <point x="98" y="371" type="line"/>
      <point x="134" y="625"/>
      <point x="225" y="731"/>
      <point x="343" y="731" type="curve" smooth="yes"/>
    </contour>
  </outline>
</glyph>
<glyph name="iota" format="1">
  <advance width="247"/>
  <unicode hex="03B9"/>
  <outline>
    <contour>
      <point x="156" y="517" type="line"/>
      <point x="97" y="97" type="line"/>
      <point x="89" y="39"/>
      <point x="98" y="16"/>
      <point x="139" y="-4" type="curve"/>
      <point x="140" y="-2" type="line"/>
      <point x="100" y="17"/>
      <point x="91" y="41"/>
      <point x="99" y="97" type="curve"/>
      <point x="158" y="517" type="line"/>
    </contour>
    <contour>
      <point x="157" y="517" type="move" name="top"/>
    </contour>
  </outline>
</glyph>
<glyph name="kappa" format="1">
  <advance width="472"/>
  <unicode hex="03BA"/>
  <outline>
    <contour>
      <point x="132" y="261" type="line"/>
      <point x="361" y="26" type="line" smooth="yes"/>
      <point x="378" y="8"/>
      <point x="389" y="-2"/>
      <point x="410" y="-6" type="curve"/>
      <point x="411" y="-4" type="line"/>
      <point x="391" y="0"/>
      <point x="381" y="8"/>
      <point x="362" y="28" type="curve" smooth="yes"/>
      <point x="135" y="261" type="line"/>
      <point x="453" y="517" type="line"/>
      <point x="451" y="518" type="line"/>
    </contour>
    <contour>
      <point x="141" y="517" type="line"/>
      <point x="149" y="480"/>
      <point x="149" y="435"/>
      <point x="143" y="390" type="curve" smooth="yes"/>
      <point x="88" y="0" type="line"/>
      <point x="90" y="0" type="line"/>
      <point x="145" y="390" type="line"/>
      <point x="151" y="436"/>
      <point x="151" y="480"/>
      <point x="143" y="517" type="curve"/>
    </contour>
  </outline>
</glyph>
<glyph name="mu" format="1">
  <advance width="581"/>
  <unicode hex="03BC"/>
  <outline>
    <contour>
      <point x="485" y="517" type="line"/>
      <point x="483" y="517" type="line"/>
      <point x="432" y="152" type="line"/>
      <point x="383" y="60"/>
      <point x="309" y="-7"/>
      <point x="218" y="-7" type="curve" smooth="yes"/>
      <point x="145" y="-7"/>
      <point x="95" y="30"/>
      <point x="110" y="134" type="curve" smooth="yes"/>
      <point x="163" y="517" type="line"/>
      <point x="161" y="517" type="line"/>
      <point x="62" y="-190" type="line"/>
      <point x="64" y="-190" type="line"/>
      <point x="83" y="-57" type="line" smooth="yes"/>
      <point x="90" y="-12"/>
      <point x="95" y="31"/>
      <point x="105" y="98" type="curve"/>
      <point x="106" y="25"/>
      <point x="146" y="-9"/>
      <point x="218" y="-9" type="curve" smooth="yes"/>
      <point x="309" y="-9"/>
      <point x="384" y="57"/>
      <point x="432" y="148" type="curve"/>
      <point x="425" y="93"/>
      <point x="429" y="46"/>
      <point x="438" y="1" type="curve"/>
      <point x="440" y="1" type="line"/>
      <point x="431" y="48"/>
      <point x="426" y="97"/>
      <point x="436" y="160" type="curve" smooth="yes"/>
    </contour>
  </outline>
</glyph>
<glyph name="nu" format="1">
  <advance width="429"/>
  <unicode hex="03BD"/>
  <outline>
    <contour>
      <point x="61" y="519" type="line"/>
      <point x="108" y="447"/>
      <point x="148" y="309"/>
      <point x="174" y="0" type="curve"/>
      <point x="177" y="0" type="line"/>
      <point x="435" y="517" type="line"/>
      <point x="433" y="518" type="line"/>
      <point x="176" y="2" type="line"/>
      <point x="150" y="310"/>
      <point x="110" y="448"/>
      <point x="63" y="520" type="curve"/>
    </contour>
  </outline>
</glyph>
<glyph name="xi" format="1">
  <advance width="409"/>
  <unicode hex="03BE"/>
  <outline>
    <contour>
      <point x="202" y="727"/>
      <point x="152" y="637"/>
      <point x="152" y="561" type="curve" smooth="yes"/>
      <point x="152" y="490"/>
      <point x="195" y="445"/>
      <point x="265" y="441" type="curve"/>
      <point x="124" y="435"/>
      <point x="67" y="313"/>
      <point x="67" y="234" type="curve" smooth="yes"/>
      <point x="67" y="132"/>
      <point x="117" y="87"/>
      <point x="212" y="49" type="curve" smooth="yes"/>
      <point x="306" y="11"/>
      <point x="335" y="-8"/>
      <point x="335" y="-59" type="curve" smooth="yes"/>
      <point x="335" y="-98"/>
      <point x="311" y="-142"/>
      <point x="215" y="-189" type="curve"/>
      <point x="216" y="-190" type="line"/>
      <point x="291" y="-153"/>
      <point x="337" y="-114"/>
      <point x="337" y="-59" type="curve" smooth="yes"/>
      <point x="337" y="-7"/>
      <point x="307" y="13"/>
      <point x="212" y="51" type="curve" smooth="yes"/>
      <point x="118" y="89"/>
      <point x="69" y="133"/>
      <point x="69" y="234" type="curve" smooth="yes"/>
      <point x="69" y="312"/>
      <point x="126" y="440"/>
      <point x="278" y="440" type="curve" smooth="yes"/>
      <point x="338" y="440" type="line"/>
      <point x="338" y="442" type="line"/>
      <point x="278" y="442" type="line" smooth="yes"/>
      <point x="198" y="442"/>
      <point x="154" y="489"/>
      <point x="154" y="561" type="curve" smooth="yes"/>
      <point x="154" y="636"/>
      <point x="203" y="725"/>
      <point x="329" y="725" type="curve"/>
      <point x="385" y="725"/>
      <point x="427" y="711"/>
      <point x="463" y="686" type="curve"/>
      <point x="464" y="688" type="line"/>
      <point x="428" y="713"/>
      <point x="385" y="727"/>
      <point x="329" y="727" type="curve"/>
    </contour>
  </outline>
</glyph>
<glyph name="pi" format="1">
  <advance width="566"/>
  <unicode hex="03C0"/>
  <outline>
    <contour>
      <point x="178" y="517" type="line" smooth="yes"/>
      <point x="139" y="517"/>
      <point x="110" y="515"/>
      <point x="91" y="509" type="curve"/>
      <point x="91" y="507" type="line"/>
      <point x="110" y="513"/>
      <point x="139" y="515"/>
      <point x="185" y="515" type="curve"/>
      <point x="113" y="0" type="line"/>
      <point x="115" y="0" type="line"/>
      <point x="187" y="515" type="line"/>
      <point x="461" y="515" type="line"/>
      <point x="402" y="97" type="line" smooth="yes"/>
      <point x="394" y="39"/>
      <point x="403" y="16"/>
      <point x="444" y="-4" type="curve"/>
      <point x="445" y="-2" type="line"/>
      <point x="405" y="17"/>
      <point x="396" y="41"/>
      <point x="404" y="97" type="curve" smooth="yes"/>
      <point x="463" y="515" type="line"/>
      <point x="548" y="515" type="line"/>
      <point x="548" y="517" type="line"/>
    </contour>
  </outline>
</glyph>
<glyph name="rho" format="1">
  <advance width="556"/>
  <unicode hex="03C1"/>
  <outline>
    <contour>
      <point x="212" y="527"/>
      <point x="139" y="434"/>
      <point x="120" y="299" type="curve" smooth="yes"/>
      <point x="52" y="-191" type="line"/>
      <point x="54" y="-190" type="line"/>
      <point x="96" y="113" type="line"/>
      <point x="114" y="34"/>
      <point x="169" y="-9"/>
      <point x="243" y="-9" type="curve" smooth="yes"/>
      <point x="410" y="-9"/>
      <point x="477" y="198"/>
      <point x="477" y="337" type="curve" smooth="yes"/>
      <point x="477" y="456"/>
      <point x="427" y="527"/>
      <point x="326" y="527" type="curve" smooth="yes"/>
    </contour>
    <contour>
      <point x="425" y="525"/>
      <point x="475" y="456"/>
      <point x="475" y="337" type="curve" smooth="yes"/>
      <point x="475" y="202"/>
      <point x="410" y="-7"/>
      <point x="243" y="-7" type="curve" smooth="yes"/>
      <point x="167" y="-7"/>
      <point x="114" y="37"/>
      <point x="97" y="118" type="curve"/>
      <point x="122" y="299" type="line" smooth="yes"/>
      <point x="140" y="432"/>
      <point x="213" y="525"/>
      <point x="326" y="525" type="curve" smooth="yes"/>
    </contour>
  </outline>
</glyph>
<glyph name="sigmafinal" format="1">
  <advance width="450"/>
  <unicode hex="03C2"/>
  <outline>
    <contour>
      <point x="138" y="527"/>
      <point x="78" y="331"/>
      <point x="78" y="222" type="curve" smooth="yes"/>
      <point x="78" y="125"/>
      <point x="122" y="85"/>
      <point x="212" y="49" type="curve" smooth="yes"/>
      <point x="307" y="11"/>
      <point x="335" y="-7"/>
      <point x="335" y="-59" type="curve" smooth="yes"/>
      <point x="335" y="-98"/>
      <point x="311" y="-142"/>
      <point x="215" y="-189" type="curve"/>
      <point x="216" y="-190" type="line"/>
      <point x="291" y="-153"/>
      <point x="337" y="-114"/>
      <point x="337" y="-59" type="curve" smooth="yes"/>
      <point x="337" y="-7"/>
      <point x="308" y="13"/>
      <point x="212" y="51" type="curve" smooth="yes"/>
      <point x="123" y="86"/>
      <point x="80" y="125"/>
      <point x="80" y="223" type="curve" smooth="yes"/>
      <point x="80" y="329"/>
      <point x="139" y="525"/>
      <point x="319" y="525" type="curve" smooth="yes"/>
      <point x="368" y="525"/>
      <point x="408" y="509"/>
      <point x="439" y="476" type="curve"/>
      <point x="441" y="477" type="line"/>
      <point x="410" y="510"/>
      <point x="370" y="527"/>
      <point x="319" y="527" type="curve" smooth="yes"/>
    </contour>
  </outline>
</glyph>
<glyph name="sigma" format="1">
  <advance width="566"/>
  <unicode hex="03C3"/>
  <outline>
    <contour>
      <point x="125" y="524"/>
      <point x="76" y="325"/>
      <point x="76" y="192" type="curve" smooth="yes"/>
      <point x="76" y="66"/>
      <point x="137" y="-9"/>
      <point x="243" y="-9" type="curve" smooth="yes"/>
      <point x="422" y="-9"/>
      <point x="484" y="193"/>
      <point x="484" y="320" type="curve" smooth="yes"/>
      <point x="484" y="424"/>
      <point x="441" y="492"/>
      <point x="369" y="522" type="curve"/>
      <point x="532" y="515" type="line"/>
      <point x="532" y="517" type="line"/>
      <point x="486" y="519"/>
      <point x="375" y="524"/>
      <point x="359" y="524" type="curve" smooth="yes"/>
    </contour>
    <contour>
      <point x="438" y="492"/>
      <point x="482" y="427"/>
      <point x="482" y="320" type="curve" smooth="yes"/>
      <point x="482" y="194"/>
      <point x="421" y="-7"/>
      <point x="243" y="-7" type="curve" smooth="yes"/>
      <point x="138" y="-7"/>
      <point x="78" y="67"/>
      <point x="78" y="192" type="curve" smooth="yes"/>
      <point x="78" y="324"/>
      <point x="126" y="522"/>
      <point x="359" y="522" type="curve" smooth="yes"/>
      <point x="365" y="522" type="line"/>
    </contour>
  </outline>
</glyph>
<glyph name="tau" format="1">
  <advance width="414"/>
  <unicode hex="03C4"/>
  <outline>
    <contour>
      <point x="122" y="517" type="line" smooth="yes"/>
      <point x="83" y="517"/>
      <point x="54" y="515"/>
      <point x="35" y="509" type="curve"/>
      <point x="35" y="507" type="line"/>
      <point x="54" y="513"/>
      <point x="84" y="515"/>
      <point x="123" y="515" type="curve" smooth="yes"/>
      <point x="229" y="515" type="line"/>
      <point x="170" y="97" type="line" smooth="yes"/>
      <point x="162" y="39"/>
      <point x="171" y="16"/>
      <point x="212" y="-4" type="curve"/>
      <point x="213" y="-2" type="line"/>
      <point x="173" y="17"/>
      <point x="164" y="41"/>
      <point x="172" y="97" type="curve" smooth="yes"/>
      <point x="231" y="515" type="line"/>
      <point x="432" y="515" type="line"/>
      <point x="432" y="517" type="line"/>
    </contour>
  </outline>
</glyph>
<glyph name="upsilon" format="1">
  <advance width="553"/>
  <unicode hex="03C5"/>
  <outline>
    <contour>
      <point x="460" y="517" type="line"/>
      <point x="462" y="489"/>
      <point x="463" y="457"/>
      <point x="463" y="424" type="curve" smooth="yes"/>
      <point x="463" y="242"/>
      <point x="424" y="-7"/>
      <point x="230" y="-7" type="curve" smooth="yes"/>
      <point x="121" y="-7"/>
      <point x="96" y="76"/>
      <point x="107" y="154" type="curve" smooth="yes"/>
      <point x="158" y="517" type="line"/>
      <point x="156" y="517" type="line"/>
      <point x="105" y="154" type="line" smooth="yes"/>
      <point x="95" y="82"/>
      <point x="114" y="-9"/>
      <point x="230" y="-9" type="curve" smooth="yes"/>
      <point x="424" y="-9"/>
      <point x="465" y="235"/>
      <point x="465" y="424" type="curve" smooth="yes"/>
      <point x="465" y="457"/>
      <point x="464" y="489"/>
      <point x="462" y="517" type="curve"/>
    </contour>
    <contour>
      <point x="309" y="517" type="move" name="top"/>
    </contour>
  </outline>
</glyph>
<glyph name="phi" format="1">
  <advance width="694"/>
  <unicode hex="03C6"/>
  <outline>
    <contour>
      <point x="426" y="527"/>
      <point x="372" y="482"/>
      <point x="354" y="357" type="curve" smooth="yes"/>
      <point x="303" y="-7" type="line"/>
      <point x="158" y="-2"/>
      <point x="90" y="50"/>
      <point x="90" y="179" type="curve" smooth="yes"/>
      <point x="90" y="283"/>
      <point x="129" y="406"/>
      <point x="189" y="517" type="curve"/>
      <point x="187" y="517" type="line"/>
      <point x="130" y="411"/>
      <point x="88" y="289"/>
      <point x="88" y="179" type="curve" smooth="yes"/>
      <point x="88" y="51"/>
      <point x="156" y="-4"/>
      <point x="303" y="-9" type="curve"/>
      <point x="278" y="-191" type="line"/>
      <point x="280" y="-190" type="line"/>
      <point x="305" y="-9" type="line"/>
      <point x="579" y="-3"/>
      <point x="617" y="185"/>
      <point x="617" y="370" type="curve"/>
      <point x="617" y="486"/>
      <point x="577" y="527"/>
      <point x="505" y="527" type="curve" smooth="yes"/>
    </contour>
    <contour>
      <point x="576" y="525"/>
      <point x="615" y="485"/>
      <point x="615" y="370" type="curve" smooth="yes"/>
      <point x="615" y="186"/>
      <point x="578" y="-1"/>
      <point x="305" y="-7" type="curve"/>
      <point x="356" y="357" type="line" smooth="yes"/>
      <point x="374" y="478"/>
      <point x="424" y="525"/>
      <point x="505" y="525" type="curve" smooth="yes"/>
    </contour>
  </outline>
</glyph>
<glyph name="chi" format="1">
  <advance width="405"/>
  <unicode hex="03C7"/>
  <outline>
    <contour>
      <point x="47" y="517" type="line"/>
      <point x="91" y="457"/>
      <point x="129" y="378"/>
      <point x="185" y="183" type="curve"/>
      <point x="186" y="181" type="line"/>
      <point x="317" y="-188" type="line"/>
      <point x="319" y="-188" type="line"/>
      <point x="188" y="182" type="line"/>
      <point x="187" y="184" type="line"/>
      <point x="132" y="378"/>
      <point x="93" y="458"/>
      <point x="49" y="518" type="curve"/>
    </contour>
    <contour>
      <point x="187" y="184" type="line"/>
      <point x="185" y="183" type="line"/>
      <point x="-45" y="-188" type="line"/>
      <point x="-43" y="-188" type="line"/>
      <point x="186" y="181" type="line"/>
      <point x="188" y="182" type="line"/>
      <point x="397" y="517" type="line"/>
      <point x="395" y="517" type="line"/>
    </contour>
  </outline>
</glyph>
<glyph name="psi" format="1">
  <advance width="725.127"/>
  <unicode hex="03C8"/>
  <outline>
    <contour>
      <point x="636" y="452"/>
      <point x="634" y="483"/>
      <point x="632" y="517" type="curve"/>
      <point x="630" y="517" type="line"/>
      <point x="632" y="483"/>
      <point x="634" y="452"/>
      <point x="634" y="422" type="curve" smooth="yes"/>
      <point x="634" y="191.183"/>
      <point x="590.069" y="1.30119"/>
      <point x="325.628" y="-6.98011" type="curve"/>
      <point x="399" y="517" type="line"/>
      <point x="397" y="517" type="line"/>
      <point x="323.729" y="-6.99841" type="line"/>
      <point x="156.632" y="-6.66081"/>
      <point x="84.0505" y="60.3462"/>
      <point x="104" y="200" type="curve" smooth="yes"/>
      <point x="149" y="517" type="line"/>
      <point x="147" y="517" type="line"/>
      <point x="102" y="200" type="line" smooth="yes"/>
      <point x="82.0616" y="58.4286"/>
      <point x="156.539" y="-8.58589"/>
      <point x="323.449" y="-8.99769" type="curve"/>
      <point x="298" y="-191" type="line"/>
      <point x="300" y="-190" type="line"/>
      <point x="325.346" y="-8.98889" type="line"/>
      <point x="591.039" y="-0.834093"/>
      <point x="636" y="189.102"/>
      <point x="636" y="422" type="curve" smooth="yes"/>
    </contour>
  </outline>
</glyph>
<glyph name="omega" format="1">
  <advance width="762"/>
  <unicode hex="03C9"/>
  <outline>
    <contour>
      <point x="648" y="517" type="line"/>
      <point x="660" y="469"/>
      <point x="669" y="409"/>
      <point x="669" y="343" type="curve" smooth="yes"/>
      <point x="669" y="183"/>
      <point x="625" y="-7"/>
      <point x="475" y="-7" type="curve"/>
      <point x="406" y="-7"/>
      <point x="371" y="28"/>
      <point x="371" y="114" type="curve" smooth="yes"/>
      <point x="371" y="133"/>
      <point x="373" y="153"/>
      <point x="375" y="173" type="curve" smooth="yes"/>
      <point x="396" y="349" type="line"/>
      <point x="394" y="349" type="line"/>
      <point x="373" y="175" type="line" smooth="yes"/>
      <point x="357" y="42"/>
      <point x="285" y="-7"/>
      <point x="214" y="-7" type="curve"/>
      <point x="147" y="-7"/>
      <point x="89" y="33"/>
      <point x="89" y="161" type="curve" smooth="yes"/>
      <point x="89" y="266"/>
      <point x="127" y="404"/>
      <point x="188" y="517" type="curve"/>
      <point x="186" y="517" type="line"/>
      <point x="125" y="404"/>
      <point x="87" y="269"/>
      <point x="87" y="161" type="curve" smooth="yes"/>
      <point x="87" y="32"/>
      <point x="146" y="-9"/>
      <point x="214" y="-9" type="curve"/>
      <point x="286" y="-9"/>
      <point x="351" y="39"/>
      <point x="371" y="151" type="curve"/>
      <point x="365" y="75"/>
      <point x="369" y="-9"/>
      <point x="475" y="-9" type="curve"/>
      <point x="626" y="-9"/>
      <point x="671" y="182"/>
      <point x="671" y="343" type="curve" smooth="yes"/>
      <point x="671" y="409"/>
      <point x="662" y="469"/>
      <point x="650" y="517" type="curve"/>
    </contour>
    <contour>
      <point x="417" y="517" type="move" name="top"/>
    </contour>
  </outline>
</glyph>
<glyph name="uni0402" format="1">
  <advance width="692.054"/>
  <unicode hex="0402"/>
  <outline>
    <contour>
      <point x="377.674" y="410"/>
      <point x="309.035" y="369.612"/>
      <point x="242.506" y="296.657" type="curve"/>
      <point x="295.86" y="678" type="line"/>
      <point x="511" y="678" type="line"/>
      <point x="511" y="680" type="line"/>
      <point x="79" y="680" type="line"/>
      <point x="79" y="678" type="line"/>
      <point x="293.86" y="678" type="line"/>
      <point x="199" y="0" type="line"/>
      <point x="201" y="0" type="line"/>
      <point x="242.009" y="293.109" type="line"/>
      <point x="310.654" y="368.389"/>
      <point x="377.439" y="408"/>
      <point x="467" y="408" type="curve" smooth="yes"/>
      <point x="585" y="408"/>
      <point x="619" y="338"/>
      <point x="607" y="244" type="curve" smooth="yes"/>
      <point x="586" y="85" type="line" smooth="yes"/>
      <point x="573" y="-6"/>
      <point x="549" y="-49"/>
      <point x="444" y="-89" type="curve"/>
      <point x="444" y="-91" type="line"/>
      <point x="550" y="-50"/>
      <point x="575" y="-7"/>
      <point x="588" y="85" type="curve" smooth="yes"/>
      <point x="609" y="244" type="line" smooth="yes"/>
      <point x="622" y="341"/>
      <point x="584" y="410"/>
      <point x="467" y="410" type="curve" smooth="yes"/>
    </contour>
  </outline>
</glyph>
<glyph name="uni0404" format="1">
  <advance width="549"/>
  <unicode hex="0404"/>
  <outline>
    <contour>
      <point x="170" y="690"/>
      <point x="92" y="441"/>
      <point x="92" y="260" type="curve" smooth="yes"/>
      <point x="92" y="81"/>
      <point x="174" y="-9"/>
      <point x="303" y="-9" type="curve"/>
      <point x="379" y="-9"/>
      <point x="427" y="16"/>
      <point x="475" y="50" type="curve"/>
      <point x="474" y="52" type="line"/>
      <point x="426" y="18"/>
      <point x="378" y="-7"/>
      <point x="303" y="-7" type="curve"/>
      <point x="175" y="-7"/>
      <point x="94" y="82"/>
      <point x="94" y="260" type="curve" smooth="yes"/>
      <point x="94" y="289"/>
      <point x="96" y="321"/>
      <point x="101" y="356" type="curve"/>
      <point x="101" y="357" type="line"/>
      <point x="138" y="583"/>
      <point x="254" y="688"/>
      <point x="403" y="688" type="curve" smooth="yes"/>
      <point x="476" y="688"/>
      <point x="515" y="663"/>
      <point x="546" y="631" type="curve"/>
      <point x="547" y="633" type="line"/>
      <point x="517" y="664"/>
      <point x="477" y="690"/>
      <point x="403" y="690" type="curve" smooth="yes"/>
    </contour>
    <contour>
      <point x="100" y="358" type="line"/>
      <point x="100" y="356" type="line"/>
      <point x="386" y="356" type="line"/>
      <point x="386" y="358" type="line"/>
    </contour>
  </outline>
</glyph>
<glyph name="uni0409" format="1">
  <advance width="885"/>
  <unicode hex="0409"/>
  <outline>
    <contour>
      <point x="252" y="680" type="line"/>
      <point x="166" y="354" type="line" smooth="yes"/>
      <point x="89" y="63"/>
      <point x="73" y="20"/>
      <point x="8" y="1" type="curve"/>
      <point x="8" y="-1" type="line"/>
      <point x="74" y="18"/>
      <point x="90" y="58"/>
      <point x="168" y="353" type="curve" smooth="yes"/>
      <point x="254" y="678" type="line"/>
      <point x="535" y="678" type="line"/>
      <point x="537" y="680" type="line"/>
    </contour>
    <contour>
      <point x="535" y="680" type="line"/>
      <point x="440" y="0" type="line"/>
      <point x="580" y="0" type="line" smooth="yes"/>
      <point x="764" y="0"/>
      <point x="821" y="137"/>
      <point x="821" y="240" type="curve" smooth="yes"/>
      <point x="821" y="344"/>
      <point x="754" y="399"/>
      <point x="631" y="399" type="curve" smooth="yes"/>
      <point x="497" y="399" type="line"/>
      <point x="497" y="397" type="line"/>
      <point x="631" y="397" type="line" smooth="yes"/>
      <point x="753" y="397"/>
      <point x="819" y="342"/>
      <point x="819" y="240" type="curve" smooth="yes"/>
      <point x="819" y="146"/>
      <point x="768" y="2"/>
      <point x="580" y="2" type="curve" smooth="yes"/>
      <point x="442" y="2" type="line"/>
      <point x="537" y="680" type="line"/>
    </contour>
  </outline>
</glyph>
<glyph name="uni040A" format="1">
  <advance width="925"/>
  <unicode hex="040A"/>
  <outline>
    <contour>
      <point x="529" y="367" type="line"/>
      <point x="573" y="680" type="line"/>
      <point x="571" y="680" type="line"/>
      <point x="527" y="367" type="line"/>
      <point x="147" y="367" type="line"/>
      <point x="191" y="680" type="line"/>
      <point x="189" y="680" type="line"/>
      <point x="94" y="0" type="line"/>
      <point x="96" y="0" type="line"/>
      <point x="147" y="365" type="line"/>
      <point x="527" y="365" type="line"/>
      <point x="476" y="0" type="line"/>
      <point x="616" y="0" type="line" smooth="yes"/>
      <point x="800" y="0"/>
      <point x="857" y="107"/>
      <point x="857" y="210" type="curve" smooth="yes"/>
      <point x="857" y="302"/>
      <point x="790" y="367"/>
      <point x="667" y="367" type="curve" smooth="yes"/>
    </contour>
    <contour>
      <point x="478" y="2" type="line"/>
      <point x="529" y="365" type="line"/>
      <point x="667" y="365" type="line" smooth="yes"/>
      <point x="789" y="365"/>
      <point x="855" y="300"/>
      <point x="855" y="210" type="curve" smooth="yes"/>
      <point x="855" y="116"/>
      <point x="804" y="2"/>
      <point x="616" y="2" type="curve" smooth="yes"/>
    </contour>
  </outline>
</glyph>
<glyph name="uni0411" format="1">
  <advance width="564"/>
  <unicode hex="0411"/>
  <outline>
    <contour>
      <point x="189" y="680" type="line"/>
      <point x="94" y="0" type="line"/>
      <point x="244" y="0" type="line" smooth="yes"/>
      <point x="428" y="0"/>
      <point x="485" y="139"/>
      <point x="485" y="243" type="curve" smooth="yes"/>
      <point x="485" y="347"/>
      <point x="418" y="399"/>
      <point x="296" y="399" type="curve" smooth="yes"/>
      <point x="151" y="399" type="line"/>
      <point x="151" y="397" type="line"/>
      <point x="296" y="397" type="line" smooth="yes"/>
      <point x="417" y="397"/>
      <point x="483" y="345"/>
      <point x="483" y="243" type="curve" smooth="yes"/>
      <point x="483" y="141"/>
      <point x="427" y="2"/>
      <point x="244" y="2" type="curve" smooth="yes"/>
      <point x="96" y="2" type="line"/>
      <point x="191" y="680" type="line"/>
    </contour>
    <contour>
      <point x="189" y="680" type="line"/>
      <point x="190" y="678" type="line"/>
      <point x="487" y="678" type="line"/>
      <point x="487" y="680" type="line"/>
    </contour>
  </outline>
</glyph>
<glyph name="uni0413" format="1">
  <advance width="521"/>
  <unicode hex="0413"/>
  <outline>
    <contour>
      <point x="94" y="0" type="line"/>
      <point x="96" y="0" type="line"/>
      <point x="191" y="679" type="line"/>
      <point x="189" y="680" type="line"/>
    </contour>
    <contour>
      <point x="189" y="680" type="line"/>
      <point x="190" y="678" type="line"/>
      <point x="559" y="678" type="line" smooth="yes"/>
      <point x="560" y="680" type="line" smooth="yes"/>
    </contour>
    <contour>
      <point x="389" y="680" type="move" name="top"/>
    </contour>
    <contour>
      <point x="106" y="0" type="move" name="bottomright"/>
    </contour>
  </outline>
</glyph>
<glyph name="uni0416" format="1">
  <advance width="715"/>
  <unicode hex="0416"/>
  <outline>
    <contour>
      <point x="713" y="676"/>
      <point x="691" y="662"/>
      <point x="636" y="578" type="curve" smooth="yes"/>
      <point x="494" y="361" type="line"/>
      <point x="386" y="361" type="line"/>
      <point x="430" y="680" type="line"/>
      <point x="428" y="680" type="line"/>
      <point x="384" y="361" type="line"/>
      <point x="261" y="361" type="line"/>
      <point x="157" y="581" type="line" smooth="yes"/>
      <point x="116" y="670"/>
      <point x="109" y="678"/>
      <point x="75" y="690" type="curve"/>
      <point x="75" y="688" type="line"/>
      <point x="109" y="676"/>
      <point x="113" y="669"/>
      <point x="155" y="581" type="curve" smooth="yes"/>
      <point x="259" y="360" type="line"/>
      <point x="2" y="0" type="line"/>
      <point x="4" y="0" type="line"/>
      <point x="261" y="359" type="line"/>
      <point x="384" y="359" type="line"/>
      <point x="333" y="1" type="line"/>
      <point x="335" y="1" type="line"/>
      <point x="386" y="359" type="line"/>
      <point x="494" y="359" type="line"/>
      <point x="642" y="0" type="line"/>
      <point x="644" y="0" type="line"/>
      <point x="496" y="360" type="line"/>
      <point x="638" y="577" type="line" smooth="yes"/>
      <point x="693" y="661"/>
      <point x="714" y="674"/>
      <point x="747" y="688" type="curve"/>
      <point x="747" y="690" type="line"/>
    </contour>
    <contour>
      <point x="426" y="680" type="move" name="top"/>
    </contour>
    <contour>
      <point x="653" y="0" type="move" name="bottomright"/>
    </contour>
  </outline>
</glyph>
<glyph name="uni0417" format="1">
  <advance width="508"/>
  <unicode hex="0417"/>
  <outline>
    <contour>
      <point x="233" y="690"/>
      <point x="174" y="660"/>
      <point x="113" y="605" type="curve"/>
      <point x="115" y="604" type="line"/>
      <point x="176" y="659"/>
      <point x="233" y="688"/>
      <point x="313" y="688" type="curve"/>
      <point x="409" y="688"/>
      <point x="459" y="632"/>
      <point x="459" y="554" type="curve" smooth="yes"/>
      <point x="459" y="475"/>
      <point x="398" y="373"/>
      <point x="262" y="373" type="curve" smooth="yes"/>
      <point x="207" y="373" type="line"/>
      <point x="207" y="371" type="line"/>
      <point x="264" y="371" type="line" smooth="yes"/>
      <point x="367" y="371"/>
      <point x="433" y="319"/>
      <point x="433" y="218" type="curve" smooth="yes"/>
      <point x="433" y="128"/>
      <point x="373" y="-7"/>
      <point x="209" y="-7" type="curve"/>
      <point x="119" y="-7"/>
      <point x="63" y="25"/>
      <point x="18" y="85" type="curve"/>
      <point x="16" y="84" type="line"/>
      <point x="62" y="23"/>
      <point x="118" y="-9"/>
      <point x="209" y="-9" type="curve"/>
      <point x="374" y="-9"/>
      <point x="435" y="126"/>
      <point x="435" y="218" type="curve" smooth="yes"/>
      <point x="435" y="321"/>
      <point x="369" y="368"/>
      <point x="279" y="372" type="curve"/>
      <point x="402" y="380"/>
      <point x="461" y="473"/>
      <point x="461" y="554" type="curve" smooth="yes"/>
      <point x="461" y="634"/>
      <point x="410" y="690"/>
      <point x="313" y="690" type="curve"/>
    </contour>
    <contour>
      <point x="313" y="680" type="move" name="top"/>
    </contour>
    <contour>
      <point x="208" y="0" type="move" name="bottom"/>
    </contour>
  </outline>
</glyph>
<glyph name="uni041A" format="1">
  <advance width="532"/>
  <unicode hex="041A"/>
  <outline>
    <contour>
      <point x="527" y="676"/>
      <point x="501" y="665"/>
      <point x="444" y="584" type="curve" smooth="yes"/>
      <point x="288" y="361" type="line"/>
      <point x="146" y="361" type="line"/>
      <point x="191" y="680" type="line"/>
      <point x="189" y="680" type="line"/>
      <point x="94" y="1" type="line"/>
      <point x="96" y="1" type="line"/>
      <point x="146" y="359" type="line"/>
      <point x="288" y="359" type="line"/>
      <point x="458" y="0" type="line"/>
      <point x="460" y="0" type="line"/>
      <point x="290" y="360" type="line"/>
      <point x="446" y="583" type="line" smooth="yes"/>
      <point x="503" y="664"/>
      <point x="528" y="674"/>
      <point x="561" y="688" type="curve"/>
      <point x="561" y="690" type="line"/>
    </contour>
    <contour>
      <point x="354" y="680" type="move" name="top"/>
    </contour>
    <contour>
      <point x="468" y="0" type="move" name="bottomright"/>
    </contour>
  </outline>
</glyph>
<glyph name="uni041B" format="1">
  <advance width="631"/>
  <unicode hex="041B"/>
  <outline>
    <contour>
      <point x="252" y="680" type="line"/>
      <point x="166" y="354" type="line" smooth="yes"/>
      <point x="89" y="63"/>
      <point x="73" y="20"/>
      <point x="8" y="1" type="curve"/>
      <point x="8" y="-1" type="line"/>
      <point x="74" y="18"/>
      <point x="90" y="58"/>
      <point x="168" y="353" type="curve" smooth="yes"/>
      <point x="254" y="678" type="line"/>
      <point x="558" y="678" type="line"/>
      <point x="463" y="0" type="line"/>
      <point x="465" y="0" type="line"/>
      <point x="560" y="680" type="line"/>
    </contour>
  </outline>
</glyph>
<glyph name="uni041F" format="1">
  <advance width="654"/>
  <unicode hex="041F"/>
  <outline>
    <contour>
      <point x="189" y="680" type="line"/>
      <point x="94" y="0" type="line"/>
      <point x="96" y="0" type="line"/>
      <point x="191" y="678" type="line"/>
      <point x="581" y="678" type="line"/>
      <point x="486" y="0" type="line"/>
      <point x="488" y="0" type="line"/>
      <point x="583" y="680" type="line"/>
    </contour>
    <contour>
      <point x="498" y="0" type="move" name="bottomright"/>
    </contour>
  </outline>
</glyph>
<glyph name="uni0423" format="1">
  <advance width="484"/>
  <unicode hex="0423"/>
  <outline>
    <contour>
      <point x="526" y="680" type="line"/>
      <point x="252" y="197" type="line"/>
      <point x="81" y="680" type="line"/>
      <point x="79" y="680" type="line"/>
      <point x="250" y="196" type="line"/>
      <point x="251" y="196" type="line"/>
      <point x="161" y="38"/>
      <point x="148" y="19"/>
      <point x="64" y="-5" type="curve"/>
      <point x="65" y="-7" type="line"/>
      <point x="148" y="16"/>
      <point x="165" y="39"/>
      <point x="253" y="195" type="curve" smooth="yes"/>
      <point x="528" y="680" type="line"/>
    </contour>
    <contour>
      <point x="311" y="680" type="move" name="top"/>
    </contour>
  </outline>
</glyph>
<glyph name="uni0424" format="1">
  <advance width="758"/>
  <unicode hex="0424"/>
  <outline>
    <contour>
      <point x="433" y="644" type="line"/>
      <point x="629" y="641"/>
      <point x="713" y="543"/>
      <point x="713" y="408" type="curve" smooth="yes"/>
      <point x="713" y="259"/>
      <point x="651" y="58"/>
      <point x="350" y="51" type="curve"/>
      <point x="350" y="49" type="line"/>
      <point x="653" y="56"/>
      <point x="715" y="258"/>
      <point x="715" y="408" type="curve" smooth="yes"/>
      <point x="715" y="543"/>
      <point x="631" y="643"/>
      <point x="434" y="646" type="curve"/>
    </contour>
    <contour>
      <point x="130" y="639"/>
      <point x="68" y="442"/>
      <point x="68" y="285" type="curve" smooth="yes"/>
      <point x="68" y="151"/>
      <point x="152" y="52"/>
      <point x="350" y="49" type="curve"/>
      <point x="350" y="51" type="line"/>
      <point x="154" y="54"/>
      <point x="70" y="152"/>
      <point x="70" y="285" type="curve" smooth="yes"/>
      <point x="70" y="441"/>
      <point x="132" y="637"/>
      <point x="433" y="644" type="curve"/>
      <point x="434" y="646" type="line"/>
    </contour>
    <contour>
      <point x="441" y="705" type="line"/>
      <point x="432" y="646" type="line"/>
      <point x="432" y="645" type="line"/>
      <point x="349" y="51" type="line"/>
      <point x="349" y="50" type="line"/>
      <point x="339" y="-16" type="line"/>
      <point x="341" y="-16" type="line"/>
      <point x="351" y="50" type="line"/>
      <point x="351" y="51" type="line"/>
      <point x="434" y="645" type="line"/>
      <point x="434" y="646" type="line"/>
      <point x="443" y="705" type="line"/>
    </contour>
  </outline>
</glyph>
<glyph name="uni0428" format="1">
  <advance width="887"/>
  <unicode hex="0428"/>
  <outline>
    <contour>
      <point x="815" y="682" type="line"/>
      <point x="719" y="2" type="line"/>
      <point x="408" y="2" type="line"/>
      <point x="504" y="682" type="line"/>
      <point x="502" y="682" type="line"/>
      <point x="406" y="2" type="line"/>
      <point x="95" y="2" type="line"/>
      <point x="191" y="682" type="line"/>
      <point x="189" y="682" type="line"/>
      <point x="93" y="0" type="line"/>
      <point x="721" y="0" type="line"/>
      <point x="817" y="682" type="line"/>
    </contour>
    <contour>
      <point x="731" y="0" type="move" name="bottomright"/>
    </contour>
  </outline>
</glyph>
<glyph name="uni042D" format="1">
  <advance width="525"/>
  <unicode hex="042D"/>
  <outline>
    <contour>
      <point x="208" y="690"/>
      <point x="156" y="666"/>
      <point x="96" y="624" type="curve"/>
      <point x="97" y="622" type="line"/>
      <point x="157" y="664"/>
      <point x="209" y="688"/>
      <point x="286" y="688" type="curve" smooth="yes"/>
      <point x="393" y="688"/>
      <point x="459" y="611"/>
      <point x="459" y="454" type="curve" smooth="yes"/>
      <point x="459" y="294"/>
      <point x="406" y="-7"/>
      <point x="189" y="-7" type="curve"/>
      <point x="109" y="-7"/>
      <point x="65" y="24"/>
      <point x="23" y="63" type="curve"/>
      <point x="21" y="61" type="line"/>
      <point x="64" y="22"/>
      <point x="108" y="-9"/>
      <point x="189" y="-9" type="curve"/>
      <point x="404" y="-9"/>
      <point x="461" y="287"/>
      <point x="461" y="455" type="curve" smooth="yes"/>
      <point x="461" y="614"/>
      <point x="395" y="690"/>
      <point x="286" y="690" type="curve" smooth="yes"/>
    </contour>
    <contour>
      <point x="150" y="358" type="line"/>
      <point x="150" y="356" type="line"/>
      <point x="454" y="356" type="line"/>
      <point x="454" y="358" type="line"/>
    </contour>
    <contour>
      <point x="284" y="680" type="move" name="top"/>
    </contour>
  </outline>
</glyph>
<glyph name="uni042E" format="1">
  <advance width="845"/>
  <unicode hex="042E"/>
  <outline>
    <contour>
      <point x="347" y="690"/>
      <point x="268" y="436"/>
      <point x="268" y="250" type="curve" smooth="yes"/>
      <point x="268" y="79"/>
      <point x="342" y="-9"/>
      <point x="474" y="-9" type="curve" smooth="yes"/>
      <point x="713" y="-9"/>
      <point x="779" y="260"/>
      <point x="779" y="435" type="curve" smooth="yes"/>
      <point x="779" y="599"/>
      <point x="707" y="690"/>
      <point x="571" y="690" type="curve" smooth="yes"/>
    </contour>
    <contour>
      <point x="189" y="680" type="line"/>
      <point x="94" y="0" type="line"/>
      <point x="96" y="0" type="line"/>
      <point x="147" y="365" type="line"/>
      <point x="279" y="365" type="line"/>
      <point x="279" y="367" type="line"/>
      <point x="147" y="367" type="line"/>
      <point x="191" y="680" type="line"/>
    </contour>
    <contour>
      <point x="706" y="688"/>
      <point x="777" y="597"/>
      <point x="777" y="435" type="curve" smooth="yes"/>
      <point x="777" y="265"/>
      <point x="713" y="-7"/>
      <point x="474" y="-7" type="curve" smooth="yes"/>
      <point x="343" y="-7"/>
      <point x="270" y="81"/>
      <point x="270" y="251" type="curve" smooth="yes"/>
      <point x="270" y="423"/>
      <point x="343" y="688"/>
      <point x="571" y="688" type="curve" smooth="yes"/>
    </contour>
  </outline>
</glyph>
<glyph name="uni042F" format="1">
  <advance width="579"/>
  <unicode hex="042F"/>
  <outline>
    <contour>
      <point x="236" y="312" type="line"/>
      <point x="28" y="0" type="line"/>
      <point x="31" y="0" type="line"/>
      <point x="239" y="312" type="line"/>
    </contour>
    <contour>
      <point x="238" y="311" type="line"/>
      <point x="456" y="311" type="line"/>
      <point x="456" y="313" type="line"/>
      <point x="242" y="313" type="line"/>
      <point x="171" y="313"/>
      <point x="101" y="367"/>
      <point x="101" y="460" type="curve" smooth="yes"/>
      <point x="101" y="552"/>
      <point x="151" y="678"/>
      <point x="369" y="678" type="curve" smooth="yes"/>
      <point x="506" y="678" type="line"/>
      <point x="411" y="0" type="line"/>
      <point x="413" y="0" type="line"/>
      <point x="508" y="680" type="line"/>
      <point x="369" y="680" type="line" smooth="yes"/>
      <point x="147" y="680"/>
      <point x="99" y="550"/>
      <point x="99" y="460" type="curve" smooth="yes"/>
      <point x="99" y="368"/>
      <point x="167" y="314"/>
      <point x="237" y="311" type="curve"/>
    </contour>
  </outline>
</glyph>
<glyph name="uni0431" format="1">
  <advance width="547"/>
  <unicode hex="0431"/>
  <outline>
    <contour>
      <point x="212" y="487"/>
      <point x="127" y="407"/>
      <point x="83" y="323" type="curve"/>
      <point x="97" y="463"/>
      <point x="142" y="579"/>
      <point x="312" y="640" type="curve" smooth="yes"/>
      <point x="392" y="669"/>
      <point x="434" y="687"/>
      <point x="470" y="725" type="curve"/>
      <point x="469" y="727" type="line"/>
      <point x="433" y="688"/>
      <point x="384" y="668"/>
      <point x="309" y="641" type="curve" smooth="yes"/>
      <point x="94" y="564"/>
      <point x="77" y="388"/>
      <point x="77" y="210" type="curve" smooth="yes"/>
      <point x="77" y="60"/>
      <point x="138" y="-9"/>
      <point x="241" y="-9" type="curve" smooth="yes"/>
      <point x="418" y="-9"/>
      <point x="470" y="174"/>
      <point x="470" y="304" type="curve" smooth="yes"/>
      <point x="470" y="413"/>
      <point x="420" y="487"/>
      <point x="321" y="487" type="curve" smooth="yes"/>
    </contour>
    <contour>
      <point x="135" y="-7"/>
      <point x="79" y="67"/>
      <point x="79" y="210" type="curve" smooth="yes"/>
      <point x="79" y="226"/>
      <point x="78" y="251"/>
      <point x="83" y="319" type="curve"/>
      <point x="129" y="407"/>
      <point x="213" y="485"/>
      <point x="321" y="485" type="curve" smooth="yes"/>
      <point x="420" y="485"/>
      <point x="468" y="411"/>
      <point x="468" y="304" type="curve" smooth="yes"/>
      <point x="468" y="175"/>
      <point x="417" y="-7"/>
      <point x="241" y="-7" type="curve" smooth="yes"/>
    </contour>
  </outline>
</glyph>
<glyph name="uni0432" format="1">
  <advance width="509"/>
  <unicode hex="0432"/>
  <outline>
    <contour>
      <point x="178" y="527"/>
      <point x="78" y="369"/>
      <point x="78" y="223" type="curve" smooth="yes"/>
      <point x="78" y="77"/>
      <point x="149" y="-9"/>
      <point x="264" y="-9" type="curve" smooth="yes"/>
      <point x="358" y="-9"/>
      <point x="445" y="46"/>
      <point x="445" y="160" type="curve" smooth="yes"/>
      <point x="445" y="240"/>
      <point x="384" y="277"/>
      <point x="319" y="291" type="curve"/>
      <point x="407" y="318"/>
      <point x="453" y="365"/>
      <point x="453" y="425" type="curve" smooth="yes"/>
      <point x="453" y="487"/>
      <point x="404" y="527"/>
      <point x="331" y="527" type="curve" smooth="yes"/>
    </contour>
    <contour>
      <point x="384" y="276"/>
      <point x="443" y="238"/>
      <point x="443" y="160" type="curve" smooth="yes"/>
      <point x="443" y="47"/>
      <point x="357" y="-7"/>
      <point x="264" y="-7" type="curve" smooth="yes"/>
      <point x="150" y="-7"/>
      <point x="80" y="78"/>
      <point x="80" y="223" type="curve" smooth="yes"/>
      <point x="80" y="236"/>
      <point x="80" y="239"/>
      <point x="82" y="260" type="curve"/>
      <point x="182" y="261"/>
      <point x="258" y="271"/>
      <point x="317" y="290" type="curve"/>
    </contour>
    <contour>
      <point x="403" y="525"/>
      <point x="451" y="486"/>
      <point x="451" y="425" type="curve" smooth="yes"/>
      <point x="451" y="330"/>
      <point x="333" y="263"/>
      <point x="82" y="262" type="curve"/>
      <point x="99" y="394"/>
      <point x="191" y="525"/>
      <point x="331" y="525" type="curve" smooth="yes"/>
    </contour>
  </outline>
</glyph>
<glyph name="uni0433" format="1">
  <advance width="457"/>
  <unicode hex="0433"/>
  <outline>
    <contour>
      <point x="208" y="527"/>
      <point x="161" y="509"/>
      <point x="116" y="475" type="curve"/>
      <point x="116" y="473" type="line"/>
      <point x="163" y="508"/>
      <point x="209" y="525"/>
      <point x="271" y="525" type="curve" smooth="yes"/>
      <point x="344" y="525"/>
      <point x="391" y="483"/>
      <point x="391" y="425" type="curve" smooth="yes"/>
      <point x="391" y="368"/>
      <point x="371" y="316"/>
      <point x="230" y="276" type="curve" smooth="yes"/>
      <point x="73" y="232"/>
      <point x="50" y="169"/>
      <point x="50" y="105" type="curve" smooth="yes"/>
      <point x="50" y="36"/>
      <point x="105" y="-9"/>
      <point x="191" y="-9" type="curve" smooth="yes"/>
      <point x="267" y="-9"/>
      <point x="327" y="19"/>
      <point x="373" y="57" type="curve"/>
      <point x="372" y="59" type="line"/>
      <point x="326" y="21"/>
      <point x="267" y="-7"/>
      <point x="191" y="-7" type="curve" smooth="yes"/>
      <point x="106" y="-7"/>
      <point x="52" y="37"/>
      <point x="52" y="105" type="curve" smooth="yes"/>
      <point x="52" y="166"/>
      <point x="73" y="230"/>
      <point x="230" y="274" type="curve" smooth="yes"/>
      <point x="371" y="314"/>
      <point x="393" y="366"/>
      <point x="393" y="425" type="curve" smooth="yes"/>
      <point x="393" y="484"/>
      <point x="345" y="527"/>
      <point x="271" y="527" type="curve" smooth="yes"/>
    </contour>
    <contour>
      <point x="270" y="517" type="move" name="top"/>
    </contour>
    <contour>
      <point x="193" y="0" type="move" name="bottom"/>
    </contour>
  </outline>
</glyph>
<glyph name="uni0434" format="1">
  <advance width="541"/>
  <unicode hex="0434"/>
  <outline>
    <contour>
      <point x="219" y="732" type="line"/>
      <point x="469" y="701"/>
      <point x="490" y="547"/>
      <point x="465" y="357" type="curve"/>
      <point x="428" y="428"/>
      <point x="372" y="487"/>
      <point x="289" y="487" type="curve" smooth="yes"/>
      <point x="131" y="487"/>
      <point x="73" y="309"/>
      <point x="73" y="180" type="curve" smooth="yes"/>
      <point x="73" y="63"/>
      <point x="128" y="-9"/>
      <point x="228" y="-9" type="curve" smooth="yes"/>
      <point x="350" y="-9"/>
      <point x="431" y="93"/>
      <point x="465" y="342" type="curve"/>
      <point x="466" y="350"/>
      <point x="466" y="350"/>
      <point x="467" y="357" type="curve"/>
      <point x="486" y="510"/>
      <point x="495" y="701"/>
      <point x="220" y="734" type="curve"/>
    </contour>
    <contour>
      <point x="372" y="485"/>
      <point x="427" y="426"/>
      <point x="464" y="354" type="curve"/>
      <point x="463" y="342"/>
      <point x="460" y="322"/>
      <point x="455" y="292" type="curve" smooth="yes"/>
      <point x="420" y="97"/>
      <point x="350" y="-7"/>
      <point x="228" y="-7" type="curve" smooth="yes"/>
      <point x="129" y="-7"/>
      <point x="75" y="64"/>
      <point x="75" y="180" type="curve" smooth="yes"/>
      <point x="75" y="308"/>
      <point x="132" y="485"/>
      <point x="289" y="485" type="curve" smooth="yes"/>
    </contour>
  </outline>
</glyph>
<glyph name="uni0436" format="1">
  <advance width="655"/>
  <unicode hex="0436"/>
  <outline>
    <contour>
      <point x="599" y="510"/>
      <point x="568" y="497"/>
      <point x="531" y="427" type="curve" smooth="yes"/>
      <point x="450" y="278" type="line"/>
      <point x="337" y="278" type="line"/>
      <point x="371" y="517" type="line"/>
      <point x="369" y="517" type="line"/>
      <point x="335" y="278" type="line"/>
      <point x="228" y="278" type="line"/>
      <point x="153" y="450" type="line" smooth="yes"/>
      <point x="133" y="498"/>
      <point x="121" y="513"/>
      <point x="82" y="527" type="curve"/>
      <point x="82" y="525" type="line"/>
      <point x="119" y="511"/>
      <point x="129" y="501"/>
      <point x="151" y="450" type="curve" smooth="yes"/>
      <point x="226" y="277" type="line"/>
      <point x="17" y="0" type="line"/>
      <point x="20" y="0" type="line"/>
      <point x="228" y="276" type="line"/>
      <point x="335" y="276" type="line"/>
      <point x="296" y="0" type="line"/>
      <point x="298" y="0" type="line"/>
      <point x="337" y="276" type="line"/>
      <point x="450" y="276" type="line"/>
      <point x="572" y="0" type="line"/>
      <point x="574" y="0" type="line"/>
      <point x="452" y="277" type="line"/>
      <point x="533" y="427" type="line" smooth="yes"/>
      <point x="571" y="496"/>
      <point x="599" y="508"/>
      <point x="648" y="525" type="curve"/>
      <point x="648" y="527" type="line"/>
    </contour>
    <contour>
      <point x="369" y="517" type="move" name="top"/>
    </contour>
    <contour>
      <point x="582" y="0" type="move" name="bottomright"/>
    </contour>
  </outline>
</glyph>
<glyph name="uni0437" format="1">
  <advance width="462"/>
  <unicode hex="0437"/>
  <outline>
    <contour>
      <point x="184" y="527"/>
      <point x="136" y="507"/>
      <point x="85" y="476" type="curve"/>
      <point x="86" y="474" type="line"/>
      <point x="137" y="505"/>
      <point x="184" y="525"/>
      <point x="250" y="525" type="curve"/>
      <point x="334" y="525"/>
      <point x="380" y="478"/>
      <point x="380" y="412" type="curve" smooth="yes"/>
      <point x="380" y="377"/>
      <point x="357" y="276"/>
      <point x="213" y="276" type="curve" smooth="yes"/>
      <point x="157" y="276" type="line"/>
      <point x="157" y="274" type="line"/>
      <point x="213" y="274" type="line" smooth="yes"/>
      <point x="322" y="274"/>
      <point x="372" y="233"/>
      <point x="372" y="158" type="curve" smooth="yes"/>
      <point x="372" y="81"/>
      <point x="318" y="-7"/>
      <point x="186" y="-7" type="curve"/>
      <point x="93" y="-7"/>
      <point x="50" y="28"/>
      <point x="12" y="63" type="curve"/>
      <point x="11" y="61" type="line"/>
      <point x="49" y="26"/>
      <point x="92" y="-9"/>
      <point x="186" y="-9" type="curve"/>
      <point x="319" y="-9"/>
      <point x="374" y="80"/>
      <point x="374" y="158" type="curve" smooth="yes"/>
      <point x="374" y="235"/>
      <point x="322" y="270"/>
      <point x="237" y="275" type="curve"/>
      <point x="351" y="285"/>
      <point x="382" y="365"/>
      <point x="382" y="412" type="curve" smooth="yes"/>
      <point x="382" y="479"/>
      <point x="335" y="527"/>
      <point x="250" y="527" type="curve"/>
    </contour>
    <contour>
      <point x="247" y="517" type="move" name="top"/>
    </contour>
    <contour>
      <point x="180" y="0" type="move" name="bottom"/>
    </contour>
  </outline>
</glyph>
<glyph name="uni0438" format="1">
  <advance width="575"/>
  <unicode hex="0438"/>
  <outline>
    <component base="u"/>
    <contour>
      <point x="329" y="517" type="move" name="top"/>
    </contour>
  </outline>
</glyph>
<glyph name="uni043B" format="1">
  <advance width="555"/>
  <unicode hex="043B"/>
  <outline>
    <contour>
      <point x="205" y="517" type="line"/>
      <point x="156" y="285" type="line" smooth="yes"/>
      <point x="110" y="66"/>
      <point x="96" y="20"/>
      <point x="30" y="1" type="curve"/>
      <point x="30" y="-1" type="line"/>
      <point x="96" y="18"/>
      <point x="111" y="61"/>
      <point x="158" y="284" type="curve" smooth="yes"/>
      <point x="207" y="515" type="line"/>
      <point x="464" y="515" type="line"/>
      <point x="392" y="0" type="line"/>
      <point x="394" y="0" type="line"/>
      <point x="466" y="517" type="line"/>
    </contour>
  </outline>
</glyph>
<glyph name="uni043D" format="1">
  <advance width="578"/>
  <unicode hex="043D"/>
  <outline>
    <contour>
      <point x="417" y="0" type="line"/>
      <point x="489" y="517" type="line"/>
      <point x="487" y="517" type="line"/>
      <point x="453" y="273" type="line"/>
      <point x="129" y="273" type="line"/>
      <point x="163" y="517" type="line"/>
      <point x="161" y="517" type="line"/>
      <point x="89" y="0" type="line"/>
      <point x="91" y="0" type="line"/>
      <point x="129" y="271" type="line"/>
      <point x="453" y="271" type="line"/>
      <point x="415" y="0" type="line"/>
    </contour>
    <contour>
      <point x="427" y="0" type="move" name="bottomright"/>
    </contour>
  </outline>
</glyph>
<glyph name="uni043F" format="1">
  <advance width="573"/>
  <unicode hex="043F"/>
  <outline>
    <contour>
      <point x="412" y="0" type="line"/>
      <point x="484" y="517" type="line"/>
      <point x="161" y="517" type="line"/>
      <point x="89" y="0" type="line"/>
      <point x="91" y="0" type="line"/>
      <point x="163" y="515" type="line"/>
      <point x="482" y="515" type="line"/>
      <point x="410" y="0" type="line"/>
    </contour>
    <contour>
      <point x="422" y="0" type="move" name="bottomright"/>
    </contour>
  </outline>
</glyph>
<glyph name="uni0442" format="1">
  <advance width="843"/>
  <unicode hex="0442"/>
  <outline>
    <component base="m"/>
    <contour>
      <point x="697" y="0" type="move" name="bottomright"/>
    </contour>
  </outline>
</glyph>
<glyph name="uni0444" format="1">
  <advance width="781"/>
  <unicode hex="0444"/>
  <outline>
    <contour>
      <point x="413" y="421" type="line"/>
      <point x="385" y="490"/>
      <point x="348" y="527"/>
      <point x="283" y="527" type="curve" smooth="yes"/>
      <point x="128" y="527"/>
      <point x="81" y="307"/>
      <point x="81" y="181" type="curve" smooth="yes"/>
      <point x="81" y="63"/>
      <point x="123" y="-9"/>
      <point x="204" y="-9" type="curve" smooth="yes"/>
      <point x="270" y="-9"/>
      <point x="313" y="22"/>
      <point x="367" y="90" type="curve"/>
      <point x="327" y="-190" type="line"/>
      <point x="329" y="-190" type="line"/>
      <point x="369" y="90" type="line"/>
      <point x="402" y="27"/>
      <point x="435" y="-9"/>
      <point x="510" y="-9" type="curve" smooth="yes"/>
      <point x="663" y="-9"/>
      <point x="704" y="239"/>
      <point x="704" y="367" type="curve" smooth="yes"/>
      <point x="704" y="468"/>
      <point x="672" y="527"/>
      <point x="585" y="527" type="curve" smooth="yes"/>
      <point x="513" y="527"/>
      <point x="459" y="483"/>
      <point x="415" y="421" type="curve"/>
      <point x="458" y="730" type="line"/>
      <point x="456" y="730" type="line"/>
    </contour>
    <contour>
      <point x="349" y="525"/>
      <point x="385" y="486"/>
      <point x="412" y="417" type="curve"/>
      <point x="367" y="93" type="line"/>
      <point x="314" y="25"/>
      <point x="270" y="-7"/>
      <point x="204" y="-7" type="curve" smooth="yes"/>
      <point x="124" y="-7"/>
      <point x="83" y="64"/>
      <point x="83" y="181" type="curve" smooth="yes"/>
      <point x="83" y="306"/>
      <point x="130" y="525"/>
      <point x="283" y="525" type="curve" smooth="yes"/>
    </contour>
    <contour>
      <point x="671" y="525"/>
      <point x="702" y="466"/>
      <point x="702" y="367" type="curve" smooth="yes"/>
      <point x="702" y="240"/>
      <point x="662" y="-7"/>
      <point x="510" y="-7" type="curve" smooth="yes"/>
      <point x="435" y="-7"/>
      <point x="403" y="29"/>
      <point x="369" y="93" type="curve"/>
      <point x="415" y="417" type="line"/>
      <point x="461" y="483"/>
      <point x="514" y="525"/>
      <point x="585" y="525" type="curve" smooth="yes"/>
    </contour>
  </outline>
</glyph>
<glyph name="uni0447" format="1">
  <advance width="520"/>
  <unicode hex="0447"/>
  <outline>
    <contour>
      <point x="429" y="517" type="line"/>
      <point x="399" y="301" type="line"/>
      <point x="354" y="251"/>
      <point x="295" y="192"/>
      <point x="204" y="192" type="curve" smooth="yes"/>
      <point x="119" y="192"/>
      <point x="74" y="239"/>
      <point x="86" y="327" type="curve" smooth="yes"/>
      <point x="113" y="517" type="line"/>
      <point x="111" y="517" type="line"/>
      <point x="85" y="327" type="line" smooth="yes"/>
      <point x="72" y="237"/>
      <point x="119" y="190"/>
      <point x="204" y="190" type="curve" smooth="yes"/>
      <point x="294" y="190"/>
      <point x="355" y="249"/>
      <point x="399" y="299" type="curve"/>
      <point x="357" y="0" type="line"/>
      <point x="359" y="0" type="line"/>
      <point x="431" y="517" type="line"/>
    </contour>
    <contour>
      <point x="271" y="517" type="move" name="top"/>
    </contour>
    <contour>
      <point x="369" y="0" type="move" name="bottomright"/>
    </contour>
    <contour>
      <point x="329" y="0" type="move" name="bottomleft"/>
    </contour>
  </outline>
</glyph>
<glyph name="uni044A" format="1">
  <advance width="527"/>
  <unicode hex="044A"/>
  <outline>
    <contour>
      <point x="198" y="517" type="line"/>
      <point x="46" y="517" type="line"/>
      <point x="46" y="515" type="line"/>
      <point x="196" y="515" type="line"/>
    </contour>
    <component base="uni044C" xOffset="35"/>
  </outline>
</glyph>
<glyph name="uni044B" format="1">
  <advance width="684"/>
  <unicode hex="044B"/>
  <outline>
    <contour>
      <point x="593" y="517" type="line"/>
      <point x="521" y="0" type="line"/>
      <point x="523" y="0" type="line"/>
      <point x="595" y="517" type="line"/>
    </contour>
    <contour>
      <point x="136" y="328" type="line"/>
      <point x="163" y="517" type="line"/>
      <point x="161" y="517" type="line"/>
      <point x="91" y="15" type="line"/>
      <point x="136" y="-2"/>
      <point x="177" y="-10"/>
      <point x="221" y="-9" type="curve" smooth="yes"/>
      <point x="369" y="-5"/>
      <point x="417" y="104"/>
      <point x="417" y="194" type="curve" smooth="yes"/>
      <point x="417" y="273"/>
      <point x="370" y="328"/>
      <point x="250" y="328" type="curve" smooth="yes"/>
    </contour>
    <contour>
      <point x="178" y="-8"/>
      <point x="136" y="0"/>
      <point x="93" y="16" type="curve"/>
      <point x="136" y="326" type="line"/>
      <point x="250" y="326" type="line" smooth="yes"/>
      <point x="369" y="326"/>
      <point x="415" y="272"/>
      <point x="415" y="194" type="curve" smooth="yes"/>
      <point x="415" y="105"/>
      <point x="368" y="-3"/>
      <point x="221" y="-7" type="curve" smooth="yes"/>
    </contour>
    <contour>
      <point x="378" y="517" type="move" name="top"/>
    </contour>
  </outline>
</glyph>
<glyph name="uni044C" format="1">
  <advance width="492"/>
  <unicode hex="044C"/>
  <outline>
    <contour>
      <point x="136" y="328" type="line"/>
      <point x="163" y="517" type="line"/>
      <point x="161" y="517" type="line"/>
      <point x="91" y="15" type="line"/>
      <point x="136" y="-2"/>
      <point x="177" y="-10"/>
      <point x="221" y="-9" type="curve" smooth="yes"/>
      <point x="379" y="-5"/>
      <point x="427" y="104"/>
      <point x="427" y="194" type="curve" smooth="yes"/>
      <point x="427" y="273"/>
      <point x="380" y="328"/>
      <point x="260" y="328" type="curve" smooth="yes"/>
    </contour>
    <contour>
      <point x="178" y="-8"/>
      <point x="136" y="0"/>
      <point x="93" y="16" type="curve"/>
      <point x="136" y="326" type="line"/>
      <point x="260" y="326" type="line" smooth="yes"/>
      <point x="379" y="326"/>
      <point x="425" y="272"/>
      <point x="425" y="194" type="curve" smooth="yes"/>
      <point x="425" y="105"/>
      <point x="378" y="-3"/>
      <point x="221" y="-7" type="curve" smooth="yes"/>
    </contour>
  </outline>
</glyph>
<glyph name="uni044D" format="1">
  <advance width="464"/>
  <unicode hex="044D"/>
  <outline>
    <contour>
      <point x="177" y="527"/>
      <point x="131" y="505"/>
      <point x="90" y="474" type="curve"/>
      <point x="89" y="472" type="line"/>
      <point x="131" y="503"/>
      <point x="177" y="525"/>
      <point x="234" y="525" type="curve" smooth="yes"/>
      <point x="335" y="525"/>
      <point x="389" y="468"/>
      <point x="389" y="344" type="curve" smooth="yes"/>
      <point x="389" y="322"/>
      <point x="387" y="297"/>
      <point x="383" y="270" type="curve"/>
      <point x="122" y="270" type="line"/>
      <point x="122" y="268" type="line"/>
      <point x="383" y="268" type="line"/>
      <point x="359" y="96"/>
      <point x="285" y="-9"/>
      <point x="162" y="-9" type="curve" smooth="yes"/>
      <point x="98" y="-9"/>
      <point x="55" y="19"/>
      <point x="26" y="51" type="curve"/>
      <point x="25" y="49" type="line"/>
      <point x="54" y="17"/>
      <point x="98" y="-11"/>
      <point x="162" y="-11" type="curve" smooth="yes"/>
      <point x="285" y="-11"/>
      <point x="361" y="92"/>
      <point x="385" y="269" type="curve" smooth="yes"/>
      <point x="389" y="296"/>
      <point x="391" y="321"/>
      <point x="391" y="344" type="curve" smooth="yes"/>
      <point x="391" y="469"/>
      <point x="336" y="527"/>
      <point x="234" y="527" type="curve" smooth="yes"/>
    </contour>
    <contour>
      <point x="246" y="517" type="move" name="top"/>
    </contour>
  </outline>
</glyph>
<glyph name="uni044E" format="1">
  <advance width="732"/>
  <unicode hex="044E"/>
  <outline>
    <contour>
      <point x="358" y="527"/>
      <point x="291" y="389"/>
      <point x="273" y="266" type="curve"/>
      <point x="128" y="266" type="line"/>
      <point x="163" y="517" type="line"/>
      <point x="161" y="517" type="line"/>
      <point x="89" y="0" type="line"/>
      <point x="91" y="0" type="line"/>
      <point x="128" y="264" type="line"/>
      <point x="272" y="264" type="line"/>
      <point x="253" y="142"/>
      <point x="277" y="-9"/>
      <point x="424" y="-9" type="curve" smooth="yes"/>
      <point x="598" y="-9"/>
      <point x="656" y="198"/>
      <point x="656" y="328" type="curve" smooth="yes"/>
      <point x="656" y="455"/>
      <point x="595" y="527"/>
      <point x="500" y="527" type="curve" smooth="yes"/>
    </contour>
    <contour>
      <point x="594" y="525"/>
      <point x="654" y="454"/>
      <point x="654" y="328" type="curve" smooth="yes"/>
      <point x="654" y="199"/>
      <point x="597" y="-7"/>
      <point x="424" y="-7" type="curve" smooth="yes"/>
      <point x="324" y="-7"/>
      <point x="269" y="66"/>
      <point x="269" y="192" type="curve" smooth="yes"/>
      <point x="269" y="324"/>
      <point x="329" y="525"/>
      <point x="500" y="525" type="curve" smooth="yes"/>
    </contour>
  </outline>
</glyph>
<glyph name="uni044F" format="1">
  <advance width="529"/>
  <unicode hex="044F"/>
  <outline>
    <contour>
      <point x="153" y="527"/>
      <point x="107" y="428"/>
      <point x="107" y="352" type="curve" smooth="yes"/>
      <point x="107" y="278"/>
      <point x="148" y="242"/>
      <point x="211" y="239" type="curve"/>
      <point x="43" y="0" type="line"/>
      <point x="45" y="0" type="line"/>
      <point x="213" y="239" type="line"/>
      <point x="400" y="239" type="line"/>
      <point x="366" y="0" type="line"/>
      <point x="368" y="0" type="line"/>
      <point x="440" y="512" type="line"/>
      <point x="404" y="521"/>
      <point x="362" y="527"/>
      <point x="316" y="527" type="curve" smooth="yes"/>
    </contour>
    <contour>
      <point x="362" y="525"/>
      <point x="403" y="519"/>
      <point x="438" y="511" type="curve"/>
      <point x="400" y="241" type="line"/>
      <point x="218" y="241" type="line" smooth="yes"/>
      <point x="150" y="241"/>
      <point x="109" y="279"/>
      <point x="109" y="352" type="curve" smooth="yes"/>
      <point x="109" y="427"/>
      <point x="154" y="525"/>
      <point x="316" y="525" type="curve" smooth="yes"/>
    </contour>
  </outline>
</glyph>
<glyph name="uni0454" format="1">
  <advance width="475"/>
  <unicode hex="0454"/>
  <outline>
    <contour>
      <point x="199" y="527"/>
      <point x="105" y="426"/>
      <point x="82" y="269" type="curve" smooth="yes"/>
      <point x="78" y="243"/>
      <point x="77" y="220"/>
      <point x="77" y="197" type="curve" smooth="yes"/>
      <point x="77" y="62"/>
      <point x="139" y="-9"/>
      <point x="240" y="-9" type="curve" smooth="yes"/>
      <point x="304" y="-9"/>
      <point x="345" y="13"/>
      <point x="389" y="40" type="curve"/>
      <point x="388" y="42" type="line"/>
      <point x="345" y="15"/>
      <point x="303" y="-7"/>
      <point x="240" y="-7" type="curve" smooth="yes"/>
      <point x="89" y="-7"/>
      <point x="66" y="148"/>
      <point x="84" y="267" type="curve"/>
      <point x="361" y="267" type="line"/>
      <point x="361" y="269" type="line"/>
      <point x="84" y="269" type="line"/>
      <point x="107" y="426"/>
      <point x="201" y="525"/>
      <point x="318" y="525" type="curve" smooth="yes"/>
      <point x="369" y="525"/>
      <point x="405" y="510"/>
      <point x="444" y="477" type="curve"/>
      <point x="445" y="479" type="line"/>
      <point x="407" y="511"/>
      <point x="370" y="527"/>
      <point x="318" y="527" type="curve" smooth="yes"/>
    </contour>
  </outline>
</glyph>
<glyph name="uni0459" format="1">
  <advance width="781"/>
  <unicode hex="0459"/>
  <outline>
    <contour>
      <point x="205" y="517" type="line"/>
      <point x="156" y="285" type="line" smooth="yes"/>
      <point x="110" y="66"/>
      <point x="96" y="20"/>
      <point x="25" y="1" type="curve"/>
      <point x="25" y="-1" type="line"/>
      <point x="96" y="18"/>
      <point x="111" y="61"/>
      <point x="158" y="284" type="curve" smooth="yes"/>
      <point x="207" y="515" type="line"/>
      <point x="460" y="515" type="line"/>
      <point x="390" y="15" type="line"/>
      <point x="435" y="-2"/>
      <point x="476" y="-10"/>
      <point x="520" y="-9" type="curve" smooth="yes"/>
      <point x="668" y="-5"/>
      <point x="716" y="104"/>
      <point x="716" y="194" type="curve" smooth="yes"/>
      <point x="716" y="273"/>
      <point x="669" y="328"/>
      <point x="549" y="328" type="curve" smooth="yes"/>
      <point x="435" y="328" type="line"/>
      <point x="462" y="517" type="line"/>
    </contour>
    <contour>
      <point x="668" y="326"/>
      <point x="714" y="272"/>
      <point x="714" y="194" type="curve" smooth="yes"/>
      <point x="714" y="105"/>
      <point x="667" y="-3"/>
      <point x="520" y="-7" type="curve" smooth="yes"/>
      <point x="477" y="-8"/>
      <point x="435" y="0"/>
      <point x="392" y="16" type="curve"/>
      <point x="435" y="326" type="line"/>
      <point x="549" y="326" type="line" smooth="yes"/>
    </contour>
  </outline>
</glyph>
<glyph name="uni045A" format="1">
  <advance width="798"/>
  <unicode hex="045A"/>
  <outline>
    <contour>
      <point x="450" y="309" type="line"/>
      <point x="479" y="517" type="line"/>
      <point x="477" y="517" type="line"/>
      <point x="448" y="309" type="line"/>
      <point x="135" y="310" type="line"/>
      <point x="164" y="518" type="line"/>
      <point x="162" y="518" type="line"/>
      <point x="90" y="1" type="line"/>
      <point x="92" y="1" type="line"/>
      <point x="135" y="308" type="line"/>
      <point x="448" y="307" type="line"/>
      <point x="407" y="15" type="line"/>
      <point x="452" y="-2"/>
      <point x="493" y="-10"/>
      <point x="537" y="-9" type="curve" smooth="yes"/>
      <point x="685" y="-5"/>
      <point x="733" y="96"/>
      <point x="733" y="186" type="curve" smooth="yes"/>
      <point x="733" y="265"/>
      <point x="684" y="309"/>
      <point x="564" y="309" type="curve" smooth="yes"/>
    </contour>
    <contour>
      <point x="494" y="-8"/>
      <point x="452" y="0"/>
      <point x="409" y="16" type="curve"/>
      <point x="450" y="307" type="line"/>
      <point x="564" y="307" type="line" smooth="yes"/>
      <point x="683" y="307"/>
      <point x="731" y="264"/>
      <point x="731" y="186" type="curve" smooth="yes"/>
      <point x="731" y="97"/>
      <point x="684" y="-3"/>
      <point x="537" y="-7" type="curve" smooth="yes"/>
    </contour>
  </outline>
</glyph>
<glyph name="uni045D" format="1">
  <advance width="575"/>
  <unicode hex="045D"/>
  <outline>
    <component base="uni0438"/>
    <component base="grave" xOffset="184"/>
    <contour>
      <point x="290" y="517" type="move" name="top"/>
    </contour>
  </outline>
</glyph>
<glyph name="uni0462" format="1">
  <advance width="662"/>
  <unicode hex="0462"/>
  <outline>
    <contour>
      <point x="79" y="680" type="line"/>
      <point x="79" y="678" type="line"/>
      <point x="511" y="678" type="line"/>
      <point x="511" y="680" type="line"/>
    </contour>
    <component base="uni042C" xOffset="98"/>
  </outline>
</glyph>
<glyph name="uni0463" format="1">
  <advance width="501"/>
  <unicode hex="0463"/>
  <outline>
    <contour>
      <point x="311" y="487" type="line"/>
      <point x="311" y="489" type="line"/>
      <point x="168" y="489" type="line"/>
      <point x="87" y="489" type="line"/>
      <point x="87" y="487" type="line"/>
    </contour>
    <contour>
      <point x="146" y="328" type="line"/>
      <point x="188" y="624" type="line"/>
      <point x="186" y="624" type="line"/>
      <point x="101" y="15" type="line"/>
      <point x="146" y="-2"/>
      <point x="187" y="-10"/>
      <point x="231" y="-9" type="curve" smooth="yes"/>
      <point x="389" y="-5"/>
      <point x="437" y="104"/>
      <point x="437" y="194" type="curve" smooth="yes"/>
      <point x="437" y="273"/>
      <point x="390" y="328"/>
      <point x="270" y="328" type="curve" smooth="yes"/>
    </contour>
    <contour>
      <point x="188" y="-8"/>
      <point x="146" y="0"/>
      <point x="103" y="16" type="curve"/>
      <point x="146" y="326" type="line"/>
      <point x="270" y="326" type="line" smooth="yes"/>
      <point x="389" y="326"/>
      <point x="435" y="272"/>
      <point x="435" y="194" type="curve" smooth="yes"/>
      <point x="435" y="105"/>
      <point x="388" y="-3"/>
      <point x="231" y="-7" type="curve" smooth="yes"/>
    </contour>
  </outline>
</glyph>
<glyph name="uni0474" format="1">
  <advance width="525"/>
  <unicode hex="0474"/>
  <outline>
    <contour>
      <point x="543" y="657"/>
      <point x="522" y="626"/>
      <point x="500" y="580" type="curve" smooth="yes"/>
      <point x="228" y="2" type="line"/>
      <point x="97" y="680" type="line"/>
      <point x="95" y="680" type="line"/>
      <point x="227" y="0" type="line"/>
      <point x="229" y="0" type="line"/>
      <point x="503" y="580" type="line" smooth="yes"/>
      <point x="524" y="625"/>
      <point x="545" y="655"/>
      <point x="569" y="681" type="curve"/>
      <point x="567" y="682" type="line"/>
    </contour>
  </outline>
</glyph>
<glyph name="uni0475" format="1">
  <advance width="436"/>
  <unicode hex="0475"/>
  <outline>
    <contour>
      <point x="431" y="497"/>
      <point x="412" y="461"/>
      <point x="388" y="413" type="curve" smooth="yes"/>
      <point x="187" y="2" type="line"/>
      <point x="68" y="517" type="line"/>
      <point x="66" y="517" type="line"/>
      <point x="186" y="0" type="line" smooth="yes"/>
      <point x="188" y="0" type="line"/>
      <point x="390" y="412" type="line" smooth="yes"/>
      <point x="418" y="468"/>
      <point x="435" y="499"/>
      <point x="455" y="517" type="curve"/>
      <point x="453" y="518" type="line"/>
    </contour>
  </outline>
</glyph>
<glyph name="uni0490" format="1">
  <advance width="507"/>
  <unicode hex="0490"/>
  <outline>
    <contour>
      <point x="560" y="680" type="line"/>
      <point x="574" y="777" type="line"/>
      <point x="572" y="777" type="line"/>
      <point x="558" y="679" type="line"/>
    </contour>
    <component base="uni0413"/>
  </outline>
</glyph>
<glyph name="uni0492" format="1">
  <advance width="523"/>
  <unicode hex="0492"/>
  <outline>
    <contour>
      <point x="52" y="379" type="line"/>
      <point x="51" y="377" type="line"/>
      <point x="149" y="377" type="line"/>
      <point x="315" y="377" type="line"/>
      <point x="316" y="379" type="line"/>
    </contour>
    <component base="uni0413" xOffset="2"/>
  </outline>
</glyph>
<glyph name="uni0493" format="1">
  <advance width="415"/>
  <unicode hex="0493"/>
  <outline>
    <contour>
      <point x="106" y="-7"/>
      <point x="52" y="37"/>
      <point x="52" y="105" type="curve" smooth="yes"/>
      <point x="52" y="165"/>
      <point x="72" y="228"/>
      <point x="224" y="273" type="curve"/>
      <point x="366" y="231" type="line"/>
      <point x="367" y="233" type="line"/>
      <point x="227" y="274" type="line"/>
      <point x="374" y="316"/>
      <point x="393" y="364"/>
      <point x="393" y="425" type="curve" smooth="yes"/>
      <point x="393" y="484"/>
      <point x="345" y="527"/>
      <point x="271" y="527" type="curve" smooth="yes"/>
      <point x="208" y="527"/>
      <point x="161" y="509"/>
      <point x="116" y="475" type="curve"/>
      <point x="116" y="473" type="line"/>
      <point x="163" y="508"/>
      <point x="209" y="525"/>
      <point x="271" y="525" type="curve" smooth="yes"/>
      <point x="344" y="525"/>
      <point x="391" y="483"/>
      <point x="391" y="425" type="curve" smooth="yes"/>
      <point x="391" y="365"/>
      <point x="373" y="317"/>
      <point x="223" y="275" type="curve"/>
      <point x="96" y="313" type="line"/>
      <point x="95" y="311" type="line"/>
      <point x="220" y="274" type="line"/>
      <point x="72" y="229"/>
      <point x="50" y="167"/>
      <point x="50" y="105" type="curve" smooth="yes"/>
      <point x="50" y="36"/>
      <point x="105" y="-9"/>
      <point x="191" y="-9" type="curve" smooth="yes"/>
      <point x="267" y="-9"/>
      <point x="327" y="19"/>
      <point x="373" y="57" type="curve"/>
      <point x="372" y="59" type="line"/>
      <point x="326" y="21"/>
      <point x="267" y="-7"/>
      <point x="191" y="-7" type="curve" smooth="yes"/>
    </contour>
    <contour>
      <point x="270" y="517" type="move" name="top"/>
    </contour>
    <contour>
      <point x="193" y="0" type="move" name="bottom"/>
    </contour>
  </outline>
</glyph>
<glyph name="uni049D" format="1">
  <advance width="487"/>
  <unicode hex="049D"/>
  <outline>
    <contour>
      <point x="344" y="429" type="line" smooth="yes"/>
      <point x="389" y="499"/>
      <point x="411" y="510"/>
      <point x="449" y="525" type="curve"/>
      <point x="448" y="527" type="line"/>
      <point x="409" y="511"/>
      <point x="389" y="503"/>
      <point x="342" y="430" type="curve" smooth="yes"/>
      <point x="246" y="279" type="line"/>
      <point x="197" y="279" type="line"/>
      <point x="214" y="393" type="line"/>
      <point x="212" y="393" type="line"/>
      <point x="195" y="279" type="line"/>
      <point x="129" y="279" type="line"/>
      <point x="163" y="517" type="line"/>
      <point x="161" y="517" type="line"/>
      <point x="88" y="0" type="line"/>
      <point x="90" y="0" type="line"/>
      <point x="129" y="277" type="line"/>
      <point x="195" y="277" type="line"/>
      <point x="174" y="126" type="line"/>
      <point x="176" y="126" type="line"/>
      <point x="197" y="277" type="line"/>
      <point x="246" y="277" type="line"/>
      <point x="394" y="0" type="line"/>
      <point x="396" y="0" type="line"/>
      <point x="248" y="278" type="line"/>
    </contour>
  </outline>
</glyph>
<glyph name="uni04A1" format="1">
  <advance width="503"/>
  <unicode hex="04A1"/>
  <outline>
    <contour>
      <point x="198" y="517" type="line"/>
      <point x="46" y="517" type="line"/>
      <point x="46" y="515" type="line"/>
      <point x="196" y="515" type="line"/>
    </contour>
    <component base="uni043A" xOffset="35"/>
  </outline>
</glyph>
<glyph name="uni04B0" format="1">
  <advance width="479"/>
  <unicode hex="04B0"/>
  <outline>
    <contour>
      <point x="276" y="272" type="line"/>
      <point x="158" y="272" type="line"/>
      <point x="158" y="270" type="line"/>
      <point x="278" y="270" type="line"/>
      <point x="396" y="270" type="line"/>
      <point x="396" y="272" type="line"/>
    </contour>
    <component base="Y"/>
    <contour>
      <point x="335" y="680" type="move" name="top"/>
    </contour>
  </outline>
</glyph>
<glyph name="uni04B1" format="1">
  <advance width="435"/>
  <unicode hex="04B1"/>
  <outline>
    <contour>
      <point x="441" y="517" type="line"/>
      <point x="439" y="517" type="line"/>
      <point x="191" y="22" type="line"/>
      <point x="68" y="517" type="line"/>
      <point x="66" y="517" type="line"/>
      <point x="190" y="20" type="line"/>
      <point x="77" y="20" type="line"/>
      <point x="77" y="18" type="line"/>
      <point x="190" y="18" type="line"/>
      <point x="160" y="-190" type="line"/>
      <point x="162" y="-190" type="line"/>
      <point x="192" y="18" type="line"/>
      <point x="305" y="18" type="line"/>
      <point x="305" y="20" type="line"/>
      <point x="192" y="20" type="line"/>
    </contour>
  </outline>
</glyph>
<glyph name="uni04B9" format="1">
  <advance width="520"/>
  <unicode hex="04B9"/>
  <outline>
    <contour>
      <point x="239" y="368" type="line"/>
      <point x="200" y="101" type="line"/>
      <point x="202" y="101" type="line"/>
      <point x="241" y="368" type="line"/>
    </contour>
    <component base="uni0447"/>
  </outline>
</glyph>
<glyph name="uni04BA" format="1">
  <advance width="587"/>
  <unicode hex="04BA"/>
  <outline>
    <contour>
      <point x="272" y="410"/>
      <point x="203" y="369"/>
      <point x="136" y="295" type="curve"/>
      <point x="136" y="292" type="line"/>
      <point x="205" y="369"/>
      <point x="272" y="408"/>
      <point x="362" y="408" type="curve" smooth="yes"/>
      <point x="480" y="408"/>
      <point x="516" y="336"/>
      <point x="502" y="244" type="curve" smooth="yes"/>
      <point x="469" y="0" type="line"/>
      <point x="471" y="0" type="line"/>
      <point x="504" y="244" type="line" smooth="yes"/>
      <point x="518" y="339"/>
      <point x="479" y="410"/>
      <point x="362" y="410" type="curve" smooth="yes"/>
    </contour>
    <contour>
      <point x="189" y="680" type="line"/>
      <point x="94" y="0" type="line"/>
      <point x="96" y="0" type="line"/>
      <point x="191" y="680" type="line"/>
    </contour>
    <contour>
      <point x="481" y="0" type="move" name="bottomright"/>
    </contour>
  </outline>
</glyph>
<glyph name="uni04BB" format="1">
  <advance width="568"/>
  <unicode hex="04BB"/>
  <outline>
    <contour>
      <point x="273" y="487"/>
      <point x="201" y="433"/>
      <point x="132" y="295" type="curve"/>
      <point x="193" y="730" type="line"/>
      <point x="191" y="730" type="line"/>
      <point x="89" y="0" type="line"/>
      <point x="91" y="0" type="line"/>
      <point x="131" y="289" type="line"/>
      <point x="202" y="431"/>
      <point x="273" y="485"/>
      <point x="359" y="485" type="curve" smooth="yes"/>
      <point x="451" y="485"/>
      <point x="482" y="426"/>
      <point x="468" y="328" type="curve" smooth="yes"/>
      <point x="422" y="0" type="line"/>
      <point x="424" y="0" type="line"/>
      <point x="470" y="328" type="line" smooth="yes"/>
      <point x="484" y="427"/>
      <point x="452" y="487"/>
      <point x="359" y="487" type="curve" smooth="yes"/>
    </contour>
  </outline>
</glyph>
<glyph name="uni04D8" format="1">
  <advance width="644"/>
  <unicode hex="04D8"/>
  <outline>
    <contour>
      <point x="571" y="348" type="line"/>
      <point x="540" y="107"/>
      <point x="427" y="-7"/>
      <point x="282" y="-7" type="curve" smooth="yes"/>
      <point x="157" y="-7"/>
      <point x="80" y="81"/>
      <point x="80" y="240" type="curve" smooth="yes"/>
      <point x="80" y="273"/>
      <point x="83" y="309"/>
      <point x="91" y="348" type="curve"/>
      <point x="572" y="348" type="line"/>
      <point x="572" y="350" type="line"/>
      <point x="89" y="350" type="line"/>
      <point x="83" y="320"/>
      <point x="78" y="278"/>
      <point x="78" y="239" type="curve" smooth="yes"/>
      <point x="78" y="83"/>
      <point x="152" y="-9"/>
      <point x="282" y="-9" type="curve" smooth="yes"/>
      <point x="425" y="-9"/>
      <point x="539" y="102"/>
      <point x="571" y="335" type="curve" smooth="yes"/>
      <point x="577" y="375"/>
      <point x="579" y="411"/>
      <point x="579" y="444" type="curve" smooth="yes"/>
      <point x="579" y="617"/>
      <point x="503" y="690"/>
      <point x="378" y="690" type="curve" smooth="yes"/>
      <point x="299" y="690"/>
      <point x="238" y="662"/>
      <point x="171" y="611" type="curve"/>
      <point x="172" y="609" type="line"/>
      <point x="237" y="659"/>
      <point x="299" y="688"/>
      <point x="378" y="688" type="curve" smooth="yes"/>
      <point x="503" y="688"/>
      <point x="577" y="615"/>
      <point x="577" y="444" type="curve" smooth="yes"/>
      <point x="577" y="415"/>
      <point x="575" y="383"/>
      <point x="571" y="349" type="curve"/>
    </contour>
    <contour>
      <point x="377" y="680" type="move" name="top"/>
    </contour>
  </outline>
</glyph>
<glyph name="uni04D9" format="1">
  <advance width="529"/>
  <unicode hex="04D9"/>
  <outline>
    <component base="e" xOffset="529" yOffset="517" xScale="-1" yScale="-1"/>
    <contour>
      <point x="292" y="517" type="move" name="top"/>
    </contour>
  </outline>
</glyph>
<glyph name="uni04E8" format="1">
  <advance width="686"/>
  <unicode hex="04E8"/>
  <outline>
    <contour>
      <point x="248" y="690"/>
      <point x="126" y="557"/>
      <point x="97" y="342" type="curve" smooth="yes"/>
      <point x="92" y="310"/>
      <point x="90" y="280"/>
      <point x="90" y="252" type="curve" smooth="yes"/>
      <point x="90" y="84"/>
      <point x="170" y="-9"/>
      <point x="306" y="-9" type="curve" smooth="yes"/>
      <point x="473" y="-9"/>
      <point x="582" y="119"/>
      <point x="614" y="342" type="curve" smooth="yes"/>
      <point x="618" y="373"/>
      <point x="621" y="403"/>
      <point x="621" y="430" type="curve" smooth="yes"/>
      <point x="621" y="596"/>
      <point x="541" y="690"/>
      <point x="403" y="690" type="curve" smooth="yes"/>
    </contour>
    <contour>
      <point x="540" y="688"/>
      <point x="619" y="595"/>
      <point x="619" y="430" type="curve" smooth="yes"/>
      <point x="619" y="403"/>
      <point x="616" y="373"/>
      <point x="612" y="342" type="curve" smooth="yes"/>
      <point x="581" y="121"/>
      <point x="472" y="-7"/>
      <point x="306" y="-7" type="curve" smooth="yes"/>
      <point x="171" y="-7"/>
      <point x="92" y="86"/>
      <point x="92" y="252" type="curve" smooth="yes"/>
      <point x="92" y="280"/>
      <point x="94" y="310"/>
      <point x="99" y="342" type="curve" smooth="yes"/>
      <point x="128" y="555"/>
      <point x="249" y="688"/>
      <point x="403" y="688" type="curve" smooth="yes"/>
    </contour>
    <contour>
      <point x="98" y="343" type="line"/>
      <point x="98" y="341" type="line"/>
      <point x="613" y="341" type="line"/>
      <point x="613" y="343" type="line"/>
    </contour>
    <contour>
      <point x="402" y="680" type="move" name="top"/>
    </contour>
  </outline>
</glyph>
<glyph name="uni04F7" format="1">
  <advance width="457"/>
  <unicode hex="04F7"/>
  <outline>
    <contour>
      <point x="172" y="-131" type="line"/>
      <point x="174" y="-131" type="line"/>
      <point x="191" y="-8" type="line"/>
      <point x="189" y="-7" type="line"/>
    </contour>
    <component base="uni0433"/>
  </outline>
</glyph>
<glyph name="uni200F" format="1">
  <advance width="0"/>
  <unicode hex="200F"/>
  <outline>
    <contour>
      <point x="-59" y="750" type="line"/>
      <point x="-14" y="678" type="line"/>
      <point x="0" y="687" type="line"/>
      <point x="-35" y="742" type="line"/>
      <point x="60" y="742" type="line"/>
      <point x="-65" y="-150" type="line"/>
      <point x="-49" y="-150" type="line"/>
      <point x="77" y="758" type="line"/>
      <point x="-34" y="758" type="line"/>
      <point x="17" y="813" type="line"/>
      <point x="6" y="822" type="line"/>
    </contour>
  </outline>
</glyph>
<glyph name="quotesinglbase" format="1">
  <advance width="222"/>
  <unicode hex="201A"/>
  <outline>
    <contour>
      <point x="79" y="4"/>
      <point x="78" y="3"/>
      <point x="78" y="2" type="curve" smooth="yes"/>
      <point x="78" y="1"/>
      <point x="79" y="0"/>
      <point x="80" y="0" type="curve"/>
      <point x="20" y="-119" type="line"/>
      <point x="21" y="-119" type="line"/>
      <point x="79" y="-5" type="line" smooth="yes"/>
      <point x="81" y="-1"/>
      <point x="82" y="1"/>
      <point x="82" y="2" type="curve" smooth="yes"/>
      <point x="82" y="3"/>
      <point x="81" y="4"/>
      <point x="80" y="4" type="curve" smooth="yes"/>
    </contour>
  </outline>
</glyph>
<glyph name="daggerdbl" format="1">
  <advance width="531"/>
  <unicode hex="2021"/>
  <outline>
    <contour>
      <point x="59" y="202" type="line"/>
      <point x="59" y="200" type="line"/>
      <point x="415" y="200" type="line"/>
      <point x="415" y="202" type="line"/>
    </contour>
    <component base="dagger"/>
  </outline>
</glyph>
